<?xml version="1.0" encoding="utf-8"?>
<!-- Generator: Adobe Illustrator 18.0.0, SVG Export Plug-In . SVG Version: 6.00 Build 0)  -->
<!DOCTYPE svg PUBLIC "-//W3C//DTD SVG 1.1//EN" "http://www.w3.org/Graphics/SVG/1.1/DTD/svg11.dtd">
<svg version="1.1" id="Layer_1" xmlns="http://www.w3.org/2000/svg" xmlns:xlink="http://www.w3.org/1999/xlink" x="0px" y="0px"
	 viewBox="0 142 612 514" style="enable-background:new 0 142 612 514;" xml:space="preserve">
<style type="text/css">
	.st0{fill:none;stroke:#FFFFFF;stroke-width:2;stroke-miterlimit:10;stroke-dasharray:2.0061,4.0122;}
	.st1{fill:none;stroke:#FFFFFF;stroke-width:2;stroke-miterlimit:10;stroke-dasharray:2,4;}
	.st2{opacity:0.1;}
	.st3{fill:#F3DCBC;}
	.st4{fill:#CF513A;}
	.st5{fill:#82130B;}
	.st6{fill:#CD2E2A;}
	.st7{fill:#FFFFFF;}
	.st8{fill:#77B950;}
	.st9{fill:#CCCBCB;}
	.st10{fill:#3C3D3D;}
	.st11{fill:#D85442;}
	.st12{fill:#7BB5E1;}
	.st13{fill:#2EB4DD;}
	.st14{fill:#70756F;}
	.st15{fill:#E44F2F;}
	.st16{fill:#82B6B2;}
	.st17{fill:none;stroke:#2498CB;stroke-miterlimit:10;}
	.st18{fill:none;stroke:#231F20;stroke-width:2;stroke-miterlimit:10;}
	.st19{fill:#F3F3F4;}
	.st20{fill:#183647;}
	.st21{fill:#26A6DD;}
	.st22{fill:#EB7420;}
	.st23{fill:#00AA4D;}
	.st24{fill:#78C6E1;}
	.st25{fill:#F14852;}
	.st26{clip-path:url(#SVGID_2_);}
	.st27{clip-path:url(#SVGID_4_);}
	.st28{fill:#F5D112;}
	.st29{clip-path:url(#SVGID_7_);fill:#F5D112;}
	.st30{clip-path:url(#SVGID_9_);fill:#AFB0B0;}
</style>
<g>
	<g>
		<circle class="st0" cx="457.2" cy="314.5" r="131.2"/>
	</g>
	<rect x="87.6" y="199.9" class="st1" width="255" height="93.6"/>
	<circle class="st1" cx="164.2" cy="486.9" r="132.1"/>
	<g>
		<g>
			<g class="st2">
				<rect x="167.3" y="217.7" width="279.7" height="376.2"/>
			</g>
			<g>
				<rect x="159.6" y="209.9" class="st3" width="279.7" height="376.2"/>
			</g>
		</g>
		<g>
			<polygon class="st4" points="254,246.1 219.8,246.1 231.2,236 219.8,226.7 254,226.7 			"/>
			<polygon class="st4" points="344.9,246.1 379.1,246.1 367.7,236 379.1,226.7 344.9,226.7 			"/>
			<polygon class="st5" points="254,246.1 237.2,241.9 254,239 			"/>
			<polygon class="st5" points="344.6,246.1 361.4,241.9 344.6,239 			"/>
			<rect x="237.2" y="222.5" class="st6" width="124.8" height="19.4"/>
		</g>
		<path class="st7" d="M327.6,306.3c0-5.6,4.6-10.2,10.2-10.2v-8.2c-3.7,0-7,1-10,3c-8.5,5.5-11,17-5.4,25.5l6.9-4.5
			C328.2,310.2,327.6,308.3,327.6,306.3z"/>
		<path class="st8" d="M337.8,288v8.2c5.6,0,10.2,4.6,10.2,10.2s-4.6,10.2-10.2,10.2c-3.6,0-6.7-1.9-8.6-4.7l-6.9,4.5
			c3.5,5.5,8.9,8.4,15.5,8.4c10.2,0,18.4-8.2,18.4-18.4C356.2,296.3,348,288,337.8,288z"/>
		<g>
			<g>
				<path class="st9" d="M354.4,386.8l39.4,15.1c-8.4,21.7-32.7,32.6-54.5,24.3c-21.7-8.4-32.6-32.7-24.2-54.5
					c6.3-16.5,21.7-27,39.4-27L354.4,386.8L354.4,386.8z"/>
			</g>
		</g>
		<g>
			<g>
				<path class="st10" d="M354.4,386.8l-39.2,15.5c-8.6-21.6,2.1-46.1,23.7-54.7c5.2-2.1,9.5-2.9,15.1-2.9L354.4,386.8z"/>
			</g>
		</g>
		<g>
			<g>
				<path class="st11" d="M354.4,386.8l-34.8-23.7c13.1-19.2,39.3-24.2,58.6-11.1c4.6,3.2,7.7,6.2,10.9,10.8L354.4,386.8z"/>
			</g>
		</g>
		<g>
			<g>
				<path class="st12" d="M354.4,386.8v-42.1c23.3,0,42.2,18.9,42.2,42.1c0,5.6-0.8,9.9-2.8,15.1L354.4,386.8z"/>
			</g>
		</g>
		<g>
			<path class="st7" d="M391.7,317.7c-6.1,0-11.1-5-11.1-11.1c0-6,4.9-11,10.9-11V287c-2.1,0-4,0.3-6,1
				c-10.2,3.3-15.8,14.3-12.5,24.5s14.3,15.8,24.5,12.5l-2.5-7.8C394,317.5,392.9,317.7,391.7,317.7z"/>
			<path class="st13" d="M391.5,287v8.6c0.1,0,0.1,0,0.1,0c6.1,0,11.1,5,11.1,11.1c0,4.9-3.3,9.1-7.7,10.5l2.5,7.8
				c8.2-2.7,13.5-9.9,13.5-18.5C411,295.7,402.3,287,391.5,287z"/>
		</g>
		<rect x="302.8" y="278.6" class="st14" width="126.8" height="3"/>
		<rect x="302.8" y="271.7" class="st14" width="49.1" height="4.3"/>
		<rect x="168.9" y="278.6" class="st14" width="126.8" height="3"/>
		<rect x="168.9" y="271.7" class="st14" width="49.1" height="4.3"/>
		<rect x="168.9" y="360.7" class="st14" width="71.3" height="1.9"/>
		<rect x="168.9" y="364.8" class="st14" width="71.3" height="1.9"/>
		<rect x="168.9" y="368.8" class="st14" width="71.3" height="1.9"/>
		<rect x="168.9" y="372.8" class="st14" width="71.3" height="1.9"/>
		<rect x="168.9" y="376.9" class="st14" width="71.3" height="1.9"/>
		<rect x="168.9" y="380.9" class="st14" width="71.3" height="1.9"/>
		<rect x="168.9" y="385" class="st14" width="71.3" height="1.9"/>
		<rect x="168.9" y="389" class="st14" width="71.3" height="1.9"/>
		<rect x="168.9" y="350.5" class="st14" width="49.1" height="7.3"/>
		<rect x="168.9" y="497.9" class="st14" width="71.3" height="1.9"/>
		<rect x="168.9" y="501.9" class="st14" width="71.3" height="1.9"/>
		<rect x="168.9" y="505.9" class="st14" width="71.3" height="1.9"/>
		<rect x="168.9" y="510" class="st14" width="71.3" height="1.9"/>
		<rect x="168.9" y="514" class="st14" width="71.3" height="1.9"/>
		<rect x="168.9" y="518" class="st14" width="71.3" height="1.9"/>
		<rect x="168.9" y="522.1" class="st14" width="71.3" height="1.9"/>
		<rect x="168.9" y="526.1" class="st14" width="71.3" height="1.9"/>
		<rect x="168.9" y="487.7" class="st14" width="49.1" height="7.3"/>
		<rect x="234.7" y="297.1" class="st15" width="37.3" height="16.9"/>
		<rect x="184.4" y="297.1" class="st16" width="31.6" height="16.9"/>
		<g>
			<path class="st16" d="M178.9,296.2h-5.2c-1.9,0.1-2.6,1.8-2.6,2.3v0.1v0.4v7.9c0,0.5,0.4,0.9,0.9,0.9s0.9-0.4,0.9-0.9V300h0.7
				v6.6c0,0.1,0,0.2,0,0.3v11.7c0,0.8,0.5,1.4,1.2,1.4s1.2-0.6,1.2-1.4v-10.4h0.6v10.4c0,0.8,0.5,1.4,1.2,1.4s1.2-0.6,1.2-1.4v-12
				v-0.1V300h0.6v6.9c0,0.5,0.4,0.9,0.9,0.9s0.9-0.4,0.9-0.9V299v-0.4v-0.2C181.4,297.7,180.5,296.2,178.9,296.2z"/>
			<path class="st16" d="M176.2,295.7c1.1,0,2.1-1,2.1-2.3c0-1.2-0.9-2.3-2.1-2.3c-1.1,0-2.1,1-2.1,2.3
				C174.2,294.7,175.1,295.7,176.2,295.7z"/>
		</g>
		<g>
			<path class="st15" d="M226.2,296.4c1.1,0,1.9-1,1.9-2.2s-0.9-2.1-1.9-2.1c-1.1,0-1.9,1-1.9,2.1
				C224.2,295.4,225.1,296.4,226.2,296.4z"/>
			<path class="st15" d="M232.2,305.9l-2.2-7.3c-0.1-0.8-0.7-1.4-1.4-1.4h-4.8c-0.5,0-0.9,0.3-1.2,0.7c-0.1,0.1-0.1,0.2-0.1,0.3l0,0
				c0,0.1,0,0.1,0,0.2l-2.1,7.5c-0.1,0.5,0.1,1,0.6,1.2s0.9-0.1,1.1-0.6l1.7-6c0.1,0,0.1,0,0.2,0h0.1l-2.6,10.7h2.6v8.5
				c0,0.6,0.4,1.1,1,1.1s1-0.5,1-1.1v-8.5h0.6v8.5c0,0.6,0.4,1.1,1,1.1c0.5,0,1-0.5,1-1.1v-8.5h2.6l-2.7-10.7h0.2c0.1,0,0.1,0,0.2,0
				l1.8,6c0.1,0.5,0.6,0.8,1.1,0.6C232.1,307,232.4,306.4,232.2,305.9z"/>
		</g>
		<line class="st17" x1="168.9" y1="335.2" x2="429.7" y2="335.2"/>
		<line class="st17" x1="168.9" y1="337.5" x2="429.7" y2="337.5"/>
		<line class="st17" x1="168.9" y1="456" x2="429.7" y2="456"/>
		<line class="st17" x1="168.9" y1="458.3" x2="429.7" y2="458.3"/>
		<line class="st17" x1="168.9" y1="541.8" x2="429.7" y2="541.8"/>
		<line class="st17" x1="168.9" y1="544.1" x2="429.7" y2="544.1"/>
		<polyline class="st18" points="380,359.8 423.3,359.8 423.3,365.7 		"/>
		<polyline class="st18" points="328.6,388.9 285.3,388.9 285.3,394.8 		"/>
		<polyline class="st18" points="339.3,350.5 296,350.5 296,356.5 		"/>
		<polyline class="st18" points="361,414.5 404.3,414.5 404.3,420.4 		"/>
		<rect x="385.8" y="425.1" class="st19" width="31.7" height="16.8"/>
		<rect x="404.3" y="373.5" class="st19" width="31.7" height="16.8"/>
		<rect x="270.6" y="397.7" class="st19" width="31.7" height="16.8"/>
		<rect x="277.7" y="359.8" class="st19" width="31.7" height="16.8"/>
		<rect x="235.7" y="415.8" class="st20" width="20.9" height="27.5"/>
		<rect x="213.4" y="423.2" class="st21" width="20.9" height="20.1"/>
		<rect x="191.1" y="429.6" class="st22" width="20.9" height="13.7"/>
		<rect x="168.9" y="436.4" class="st23" width="20.9" height="6.9"/>
		<g>
			<path class="st24" d="M253.1,506.8c1,0,12.2-7.6,12.2-7.6l6.4-12.2l4.2,4l2.7,2.7l1.7,2.3l1.4-3.4l5.5,5.5l2.3-3.3l3,1l1.2,1.2
				l4-0.8l5-2.2l0.8,2.2l2.4-3.8l2.4-2.6l1.8,4l2.6,3.2v4.2l0.8,6L253.1,506.8z"/>
			<path class="st25" d="M317.3,507.2l-1.6-11l5.1-4l1.9-5l3.6,5.2l5.7-6.1l3.1,3.4l1.5,3.4l1.8-1.5l3-3.1c0,0,1.8-5.4,2.4-5.4
				s3.4,3.8,3.4,3.8l9.4,6.9v5.7l1.2,5.2v2.6L317.3,507.2z"/>
			<polygon class="st8" points="362.8,507.1 360.2,483.3 363.5,478.7 365.1,480.3 366.9,475.6 369.4,470.9 370.6,475 373.2,477.6 
				373.8,476.9 374.4,479.9 378.5,478.2 383.7,475.9 386,480.5 390.7,479.5 393.2,484.3 392.6,489.6 393.3,504.2 393.3,506.9 			"/>
			<polygon class="st21" points="395.7,506.9 397.2,474.6 402,472.6 408.6,470.6 411.6,473.5 414.8,467.4 417.4,475.6 419.4,476.3 
				419.9,479.1 422,482.1 423.1,484.8 425.5,506.8 			"/>
			<g>
				<rect x="255.5" y="512.9" class="st14" width="128.9" height="3.1"/>
				<rect x="255.5" y="520" class="st14" width="128.9" height="3.1"/>
				<rect x="255.5" y="527" class="st14" width="128.9" height="3.1"/>
			</g>
		</g>
		<rect x="236" y="563.1" class="st14" width="126.8" height="3"/>
		<rect x="274.9" y="556.2" class="st14" width="49.1" height="4.3"/>
	</g>
	<g>
		<g class="st2">
			<circle cx="465" cy="466" r="96.7"/>
		</g>
		<g>
			<circle class="st22" cx="457.2" cy="458.3" r="96.7"/>
		</g>
	</g>
	<g>
		<g class="st2">
			<path d="M457.1,477.8l-35-34.9c-17.4,20.1-17.4,49.7,0,69.8L457.1,477.8z"/>
			<path d="M478.6,424.6v51.1l-35.9,36.2c8.1,6.1,18,9.9,28.6,9.9c27.5,0,49.4-22,49.4-49.1C520.8,448.1,502.6,428.1,478.6,424.6
				L478.6,424.6z"/>
			<path d="M465,466v-55.9c-15.2,0.9-29,6.8-40.1,15.8L465,466z"/>
		</g>
		<g>
			<g>
				<path class="st7" d="M449.4,470.1l-35-34.9c-17.4,20.1-17.4,49.7,0,69.8L449.4,470.1z"/>
				<path class="st7" d="M470.9,416.9V468L435,504.2c8.1,6.1,18,9.9,28.6,9.9c27.5,0,49.4-22,49.4-49.1
					C513.1,440.4,494.8,420.4,470.9,416.9L470.9,416.9z"/>
				<path class="st7" d="M457.3,458.3v-55.9c-15.2,0.9-29,6.8-40.1,15.8L457.3,458.3z"/>
			</g>
		</g>
	</g>
	<g>
		<g class="st2">
			<circle cx="96.2" cy="294" r="48.9"/>
		</g>
		<g>
			<circle class="st7" cx="88.5" cy="286.3" r="48.9"/>
		</g>
	</g>
	<g>
		<g class="st2">
			<path d="M103,311.9c-0.9,0-1.7-0.8-1.7-1.7v-41.3c0-1,0.8-1.7,1.7-1.7h8.6c0.9,0,1.7,0.8,1.7,1.7v41.3c0,0.9-0.8,1.7-1.7,1.7H103
				z"/>
			<path d="M87.5,311.9c-1,0-1.7-0.8-1.7-1.7v-31c0-1,0.8-1.7,1.7-1.7h8.6c0.9,0,1.7,0.8,1.7,1.7v31c0,0.9-0.8,1.7-1.7,1.7H87.5z"/>
			<path d="M72.1,311.9c-1,0-1.7-0.8-1.7-1.7v-20.6c0-0.9,0.8-1.7,1.7-1.7h8.6c0.9,0,1.7,0.8,1.7,1.7v20.6c0,0.9-0.8,1.7-1.7,1.7
				H72.1z"/>
		</g>
		<g>
			<g>
				<path class="st22" d="M95.3,304.1c-0.9,0-1.7-0.8-1.7-1.7v-41.3c0-1,0.8-1.7,1.7-1.7h8.6c0.9,0,1.7,0.8,1.7,1.7v41.3
					c0,0.9-0.8,1.7-1.7,1.7H95.3z"/>
				<path class="st22" d="M79.8,304.1c-1,0-1.7-0.8-1.7-1.7v-31c0-1,0.8-1.7,1.7-1.7h8.6c0.9,0,1.7,0.8,1.7,1.7v31
					c0,0.9-0.8,1.7-1.7,1.7H79.8z"/>
				<path class="st22" d="M64.4,304.1c-1,0-1.7-0.8-1.7-1.7v-20.6c0-0.9,0.8-1.7,1.7-1.7H73c0.9,0,1.7,0.8,1.7,1.7v20.6
					c0,0.9-0.8,1.7-1.7,1.7H64.4z"/>
			</g>
		</g>
	</g>
	<g>
		<g class="st2">
			<rect x="495.7" y="174" transform="matrix(-0.7071 0.7071 -0.7071 -0.7071 1074.5587 -9.8656)" width="87.3" height="87.3"/>
		</g>
		<g>
			
				<rect x="487.9" y="166.3" transform="matrix(-0.7071 0.7071 -0.7071 -0.7071 1055.8987 -17.4213)" class="st8" width="87.3" height="87.3"/>
		</g>
	</g>
	<g>
		<g class="st2">
			<polygon points="75.8,651.5 26.4,565.9 75.8,480.3 174.7,480.3 224.1,565.9 174.7,651.5 			"/>
		</g>
		<g>
			<polygon class="st8" points="68.1,643.8 18.7,558.2 68.1,472.6 167,472.6 216.4,558.2 167,643.8 			"/>
		</g>
	</g>
	<g>
		<g>
			<g class="st2">
				<path d="M129.4,557.3l-50.7,18.9c-3.5,1.3-3.5,6.2,0,7.5l50.6,19.6c1,0.4,2.1,0.4,3.1-0.1l46.1-21c3.2-1.5,3.1-6.1-0.2-7.4
					l-46-17.5C131.3,556.9,130.3,556.9,129.4,557.3z"/>
				<g>
					<g>
						<path id="SVGID_5_" d="M129.4,557.3l-50.7,18.9c-3.5,1.3-3.5,6.2,0,7.5l50.6,19.6c1,0.4,2.1,0.4,3.1-0.1l46.1-21
							c3.2-1.5,3.1-6.1-0.2-7.4l-46-17.5C131.3,557,130.3,557,129.4,557.3z"/>
					</g>
					<g>
						<defs>
							<path id="SVGID_1_" d="M129.4,557.3l-50.7,18.9c-3.5,1.3-3.5,6.2,0,7.5l50.6,19.6c1,0.4,2.1,0.4,3.1-0.1l46.1-21
								c3.2-1.5,3.1-6.1-0.2-7.4l-46-17.5C131.3,557,130.3,557,129.4,557.3z"/>
						</defs>
						<clipPath id="SVGID_2_">
							<use xlink:href="#SVGID_1_"  style="overflow:visible;"/>
						</clipPath>
						<path class="st26" d="M129.4,548l-50.7,18.9c-3.5,1.3-3.5,6.2,0,7.5l50.6,19.6c1,0.4,2.1,0.4,3.1-0.1l46.1-21
							c3.2-1.5,3.1-6.1-0.2-7.4l-46-17.5C131.3,547.7,130.3,547.6,129.4,548z"/>
					</g>
				</g>
				<path d="M129.4,543.9l-50.7,18.9c-3.5,1.3-3.5,6.2,0,7.5l50.6,19.6c1,0.4,2.1,0.4,3.1-0.1l46.1-21c3.2-1.5,3.1-6.1-0.2-7.4
					l-46-17.5C131.3,543.5,130.3,543.5,129.4,543.9z"/>
				<g>
					<g>
						<defs>
							<path id="SVGID_3_" d="M129.4,543.9l-50.7,18.9c-3.5,1.3-3.5,6.2,0,7.5l50.6,19.6c1,0.4,2.1,0.4,3.1-0.1l46.1-21
								c3.2-1.5,3.1-6.1-0.2-7.4l-46-17.5C131.3,543.5,130.3,543.5,129.4,543.9z"/>
						</defs>
						<clipPath id="SVGID_4_">
							<use xlink:href="#SVGID_3_"  style="overflow:visible;"/>
						</clipPath>
						<path class="st27" d="M129.4,534.5l-50.7,18.9c-3.5,1.3-3.5,6.2,0,7.5l50.6,19.6c1,0.4,2.1,0.4,3.1-0.1l46.1-21
							c3.2-1.5,3.1-6.1-0.2-7.4l-46-17.5C131.3,534.2,130.3,534.2,129.4,534.5z"/>
					</g>
				</g>
				<path d="M129.4,528.9l-50.7,18.9c-3.5,1.3-3.5,6.2,0,7.5l50.6,19.6c1,0.4,2.1,0.4,3.1-0.1l46.1-21c3.2-1.5,3.1-6.1-0.2-7.4
					l-46-17.5C131.3,528.5,130.3,528.5,129.4,528.9z"/>
			</g>
			<g>
				<g>
					<path class="st12" d="M121.7,549.6L71,568.5c-3.5,1.3-3.5,6.2,0,7.5l50.6,19.6c1,0.4,2.1,0.4,3.1-0.1l46.1-21
						c3.2-1.5,3.1-6.1-0.2-7.4l-46-17.5C123.6,549.2,122.6,549.2,121.7,549.6z"/>
					<g>
						<g>
							<path id="SVGID_17_" class="st28" d="M121.6,549.6l-50.7,18.9c-3.5,1.3-3.5,6.2,0,7.5l50.6,19.6c1,0.4,2.1,0.4,3.1-0.1
								l46.1-21c3.2-1.5,3.1-6.1-0.2-7.4l-46-17.5C123.6,549.3,122.6,549.3,121.6,549.6z"/>
						</g>
						<g>
							<defs>
								<path id="SVGID_6_" d="M121.6,549.6l-50.7,18.9c-3.5,1.3-3.5,6.2,0,7.5l50.6,19.6c1,0.4,2.1,0.4,3.1-0.1l46.1-21
									c3.2-1.5,3.1-6.1-0.2-7.4l-46-17.5C123.6,549.3,122.6,549.3,121.6,549.6z"/>
							</defs>
							<clipPath id="SVGID_7_">
								<use xlink:href="#SVGID_6_"  style="overflow:visible;"/>
							</clipPath>
							<path class="st29" d="M121.6,540.3l-50.7,18.9c-3.5,1.3-3.5,6.2,0,7.5l50.6,19.6c1,0.4,2.1,0.4,3.1-0.1l46.1-21
								c3.2-1.5,3.1-6.1-0.2-7.4l-46-17.5C123.6,539.9,122.6,539.9,121.6,540.3z"/>
						</g>
					</g>
					<path class="st11" d="M121.7,536.2L71,555.1c-3.5,1.3-3.5,6.2,0,7.5l50.6,19.6c1,0.4,2.1,0.4,3.1-0.1l46.1-21
						c3.2-1.5,3.1-6.1-0.2-7.4l-46-17.5C123.6,535.8,122.6,535.8,121.7,536.2z"/>
					<g>
						<g>
							<defs>
								<path id="SVGID_8_" d="M121.7,536.2L71,555.1c-3.5,1.3-3.5,6.2,0,7.5l50.6,19.6c1,0.4,2.1,0.4,3.1-0.1l46.1-21
									c3.2-1.5,3.1-6.1-0.2-7.4l-46-17.5C123.6,535.8,122.6,535.8,121.7,536.2z"/>
							</defs>
							<clipPath id="SVGID_9_">
								<use xlink:href="#SVGID_8_"  style="overflow:visible;"/>
							</clipPath>
							<path class="st30" d="M121.7,526.8l-50.7,19c-3.5,1.3-3.5,6.2,0,7.5l50.6,19.6c1,0.4,2.1,0.4,3.1-0.1l46.1-21
								c3.2-1.5,3.1-6.1-0.2-7.4l-46-17.5C123.6,526.5,122.6,526.5,121.7,526.8z"/>
						</g>
					</g>
					<path class="st21" d="M121.7,521.1l-50.7,19c-3.5,1.3-3.5,6.2,0,7.5l50.6,19.6c1,0.4,2.1,0.4,3.1-0.1l46.1-21
						c3.2-1.5,3.1-6.1-0.2-7.4l-46-17.5C123.6,520.8,122.6,520.8,121.7,521.1z"/>
				</g>
			</g>
		</g>
		<polygon class="st7" points="124.9,530.1 122.9,530.1 122.9,499.8 105.6,499.8 105.6,497.8 124.9,497.8 		"/>
		<polygon class="st7" points="106.6,606.3 84.2,606.3 84.2,604.3 104.6,604.3 104.6,586 106.6,586 		"/>
		<polygon class="st7" points="149.9,614 140.2,614 140.2,612 147.9,612 147.9,566.2 149.9,566.2 		"/>
		<g>
			<rect x="71.9" y="495.5" class="st7" width="24.7" height="4"/>
			<rect x="71.9" y="502.1" class="st7" width="16.8" height="2"/>
			<rect x="71.9" y="506.1" class="st7" width="21.1" height="2"/>
			<rect x="71.9" y="510.1" class="st7" width="16.8" height="2"/>
		</g>
		<g>
			<rect x="56" y="593.1" class="st7" width="24.7" height="4"/>
			<rect x="56" y="599.7" class="st7" width="16.8" height="2"/>
			<rect x="56" y="603.7" class="st7" width="21.1" height="2"/>
			<rect x="56" y="607.7" class="st7" width="16.8" height="2"/>
		</g>
		<g>
			<rect x="110.6" y="613" class="st7" width="24.7" height="4"/>
			<rect x="110.6" y="619.6" class="st7" width="16.8" height="2"/>
			<rect x="110.6" y="623.6" class="st7" width="21.1" height="2"/>
			<rect x="110.6" y="627.6" class="st7" width="16.8" height="2"/>
		</g>
	</g>
	<g>
		<g class="st2">
			<path d="M560.8,222.8v-8.3c0-2.9-2.3-5.2-5.2-5.2h-13V201c3-1.1,5.2-4,5.2-7.3c0-4.3-3.5-7.8-7.8-7.8s-7.8,3.5-7.8,7.8
				c0,3.4,2.2,6.3,5.2,7.3v8.3h-13c-2.9,0-5.2,2.3-5.2,5.2v8.3c-3,1.1-5.2,4-5.2,7.3c0,4.3,3.5,7.8,7.8,7.8s7.8-3.5,7.8-7.8
				c0-3.4-2.2-6.3-5.2-7.3v-8.3h13v8.3c-3,1.1-5.2,4-5.2,7.3c0,4.3,3.5,7.8,7.8,7.8s7.8-3.5,7.8-7.8c0-3.4-2.2-6.3-5.2-7.3v-8.3h13
				v8.3c-3,1.1-5.2,4-5.2,7.3c0,4.3,3.5,7.8,7.8,7.8s7.8-3.5,7.8-7.8C566,226.7,563.9,223.8,560.8,222.8L560.8,222.8z M521.8,232.7
				c-1.4,0-2.6-1.2-2.6-2.6c0-1.4,1.2-2.6,2.6-2.6c1.4,0,2.6,1.2,2.6,2.6C524.4,231.5,523.2,232.7,521.8,232.7L521.8,232.7z
				 M540,232.7c-1.4,0-2.6-1.2-2.6-2.6c0-1.4,1.2-2.6,2.6-2.6c1.4,0,2.6,1.2,2.6,2.6S541.5,232.7,540,232.7L540,232.7z M540,196.3
				c-1.4,0-2.6-1.2-2.6-2.6c0-1.4,1.2-2.6,2.6-2.6c1.4,0,2.6,1.2,2.6,2.6S541.5,196.3,540,196.3L540,196.3z M558.2,232.7
				c-1.4,0-2.6-1.2-2.6-2.6c0-1.4,1.2-2.6,2.6-2.6s2.6,1.2,2.6,2.6S559.7,232.7,558.2,232.7L558.2,232.7z"/>
		</g>
		<g>
			<g>
				<path class="st7" d="M553.1,215v-8.3c0-2.9-2.3-5.2-5.2-5.2h-13v-8.3c3-1.1,5.2-4,5.2-7.3c0-4.3-3.5-7.8-7.8-7.8
					s-7.8,3.5-7.8,7.8c0,3.4,2.2,6.3,5.2,7.3v8.3h-13c-2.9,0-5.2,2.3-5.2,5.2v8.3c-3,1.1-5.2,4-5.2,7.3c0,4.3,3.5,7.8,7.8,7.8
					s7.8-3.5,7.8-7.8c0-3.4-2.2-6.3-5.2-7.3v-8.3h13v8.3c-3,1.1-5.2,4-5.2,7.3c0,4.3,3.5,7.8,7.8,7.8s7.8-3.5,7.8-7.8
					c0-3.4-2.2-6.3-5.2-7.3v-8.3h13v8.3c-3,1.1-5.2,4-5.2,7.3c0,4.3,3.5,7.8,7.8,7.8s7.8-3.5,7.8-7.8
					C558.3,219,556.1,216.1,553.1,215L553.1,215z M514.1,225c-1.4,0-2.6-1.2-2.6-2.6c0-1.4,1.2-2.6,2.6-2.6s2.6,1.2,2.6,2.6
					C516.7,223.8,515.5,225,514.1,225L514.1,225z M532.3,225c-1.4,0-2.6-1.2-2.6-2.6c0-1.4,1.2-2.6,2.6-2.6c1.4,0,2.6,1.2,2.6,2.6
					C534.9,223.8,533.7,225,532.3,225L532.3,225z M532.3,188.6c-1.4,0-2.6-1.2-2.6-2.6c0-1.4,1.2-2.6,2.6-2.6c1.4,0,2.6,1.2,2.6,2.6
					C534.9,187.4,533.7,188.6,532.3,188.6L532.3,188.6z M550.5,225c-1.4,0-2.6-1.2-2.6-2.6c0-1.4,1.2-2.6,2.6-2.6
					c1.4,0,2.6,1.2,2.6,2.6S552,225,550.5,225L550.5,225z"/>
			</g>
		</g>
	</g>
</g>
</svg>
