<svg xmlns="http://www.w3.org/2000/svg" viewBox="0 0 662.1 662.1" enable-background="new 0 0 662.1 662.1" xmlns:xlink="http://www.w3.org/1999/xlink"><g stroke="#fff"><g fill="#fff"><path stroke-width="4" stroke-linecap="round" stroke-linejoin="round" d="m331 229.2v-53.7"/><path stroke-miterlimit="10" d="m331 151.3c4.2 11.4 11.4 25.5 19 34.2l-19-6.9-19 6.9c7.6-8.7 14.8-22.8 19-34.2z"/><path stroke-width="4" stroke-linecap="round" stroke-linejoin="round" d="m331 433v53.7"/><path stroke-miterlimit="10" d="m331 510.9c-4.2-11.4-11.4-25.5-19-34.2l19 6.9 19-6.9c-7.6 8.7-14.8 22.8-19 34.2z"/><path stroke-width="4" stroke-linecap="round" stroke-linejoin="round" d="m432.9 331.1h53.8"/><path stroke-miterlimit="10" d="m510.8 331.1c-11.4 4.2-25.5 11.4-34.2 19l6.9-19-6.9-19c8.7 7.6 22.8 14.8 34.2 19z"/><path stroke-width="4" stroke-linecap="round" stroke-linejoin="round" d="m229.1 331.1h-53.7"/><path stroke-miterlimit="10" d="m151.3 331.1c11.4-4.2 25.5-11.4 34.2-19l-6.9 19 6.9 19c-8.8-7.6-22.9-14.8-34.2-19z"/><path stroke-width="4" stroke-linecap="round" stroke-linejoin="round" d="m403.1 259l38-38"/><path stroke-miterlimit="10" d="m458.1 204c-5.1 11-9.9 26.1-10.7 37.6l-8.6-18.3-18.3-8.6c11.6-.8 26.6-5.7 37.6-10.7z"/><path stroke-width="4" stroke-linecap="round" stroke-linejoin="round" d="m259 403.2l-38 37.9"/><path stroke-miterlimit="10" d="m203.9 458.2c5.1-11 9.9-26.1 10.7-37.6l8.6 18.3 18.3 8.6c-11.5.8-26.6 5.7-37.6 10.7z"/><path stroke-width="4" stroke-linecap="round" stroke-linejoin="round" d="m403.1 403.2l38 37.9"/><path stroke-miterlimit="10" d="m458.1 458.2c-11-5.1-26.1-9.9-37.6-10.7l18.3-8.6 8.6-18.3c.8 11.5 5.7 26.6 10.7 37.6z"/><path stroke-width="4" stroke-linecap="round" stroke-linejoin="round" d="m259 259l-38-38"/><path stroke-miterlimit="10" d="m203.9 204c11 5.1 26.1 9.9 37.6 10.7l-18.3 8.6-8.6 18.3c-.8-11.6-5.6-26.6-10.7-37.6z"/></g><circle fill="none" stroke-width="1.92" stroke-miterlimit="10" stroke-dasharray="1.9203 3.8406" cx="331" cy="76.1" r="75.2"/></g><circle fill="#79ba51" cx="331" cy="76.1" r="58.7"/><circle fill="none" stroke="#fff" stroke-width="1.92" stroke-miterlimit="10" stroke-dasharray="1.9203 3.8406" cx="331" cy="585.9" r="75.2"/><circle fill="#79ba51" cx="331" cy="585.9" r="58.7"/><circle fill="none" stroke="#fff" stroke-width="1.92" stroke-miterlimit="10" stroke-dasharray="1.9203 3.8406" cx="585.9" cy="331" r="75.2"/><circle fill="#fbb56b" cx="585.9" cy="331" r="58.7"/><circle fill="none" stroke="#fff" stroke-width="1.92" stroke-miterlimit="10" stroke-dasharray="1.9203 3.8406" cx="76.1" cy="331" r="75.2"/><circle fill="#fbb56b" cx="76.1" cy="331" r="58.7"/><circle fill="none" stroke="#fff" stroke-width="1.92" stroke-miterlimit="10" stroke-dasharray="1.9203 3.8406" cx="511.3" cy="150.8" r="75.2"/><circle fill="#f04953" cx="511.3" cy="150.8" r="58.7"/><circle fill="none" stroke="#fff" stroke-width="1.92" stroke-miterlimit="10" stroke-dasharray="1.9203 3.8406" cx="150.8" cy="511.3" r="75.2"/><circle fill="#f04953" cx="150.8" cy="511.3" r="58.7"/><circle fill="none" stroke="#fff" stroke-width="1.92" stroke-miterlimit="10" stroke-dasharray="1.9203 3.8406" cx="511.3" cy="511.3" r="75.2"/><circle fill="#67cdef" cx="511.3" cy="511.3" r="58.7"/><circle fill="none" stroke="#fff" stroke-width="1.92" stroke-miterlimit="10" stroke-dasharray="1.9203 3.8406" cx="150.8" cy="150.8" r="75.2"/><circle fill="#67cdef" cx="150.8" cy="150.8" r="58.7"/><g opacity=".1"><g fill="#010101"><path d="m153.9 126h9.3v9.3h-9.3z"/><path d="m153.9 181.2h9.3v9.3h-9.3z"/><path d="m181.5 153.6h9.3v9.3h-9.3z"/><path d="m126.3 153.6h9.3v9.3h-9.3z"/><path transform="matrix(.7071.7071-.7071.7071 150.26-85.3)" d="m173.4 134.1h9.3v9.3h-9.3z"/><path transform="matrix(.7071.7071-.7071.7071 166.45-46.22)" d="m134.3 173.2h9.3v9.3h-9.3z"/><path transform="matrix(-.7071.7071-.7071-.7071 335.41 138.53)" d="m134.3 134.1h9.3v9.3h-9.3z"/></g><path fill="#010101" d="m184.7 177.8l-16.8-16.8c.1-.4.1-.8.1-1.2 0-4-2.9-7.3-6.7-8.1 1.5 1.1 2.5 2.9 2.5 4.9 0 3.4-2.8 6.2-6.2 6.2-2.8 0-5.2-1.9-5.9-4.4-.1.4-.1.9-.1 1.3 0 4.5 3.7 8.2 8.2 8.2.6 0 1.2-.1 1.8-.2l16.5 16.5 6.6-6.4" id="1"/><path fill="#010101" d="m162.3 175.2c-1.2.3-2.5.4-3.7.4-9.6 0-17.3-7.8-17.3-17.3 0-9.6 7.8-17.3 17.3-17.3 9.6 0 17.3 7.8 17.3 17.3 0 1.3-.2 2.5-.4 3.7l6.6 6.6c1.4-3.2 2.2-6.7 2.2-10.3 0-14.2-11.5-25.7-25.7-25.7-14.2 0-25.7 11.5-25.7 25.7 0 14.2 11.5 25.7 25.7 25.7 3.7 0 7.2-.8 10.3-2.2l-6.6-6.6"/><use xlink:href="#1"/></g><g fill="#d9d8d8"><path d="m146.9 119h9.3v9.3h-9.3z"/><path d="m146.9 174.2h9.3v9.3h-9.3z"/><path d="m174.5 146.6h9.3v9.3h-9.3z"/><path d="m119.3 146.6h9.3v9.3h-9.3z"/><path transform="matrix(.7071.7071-.7071.7071 143.26-82.4)" d="m166.4 127.1h9.3v9.3h-9.3z"/><path transform="matrix(.7071.7071-.7071.7071 159.45-43.32)" d="m127.3 166.2h9.3v9.3h-9.3z"/><path transform="matrix(-.7071.7071-.7071-.7071 318.51 131.53)" d="m127.3 127.1h9.3v9.3h-9.3z"/></g><path fill="#d9d8d8" d="m177.7 170.8l-16.8-16.8c.1-.4.1-.8.1-1.2 0-4-2.9-7.3-6.7-8.1 1.5 1.1 2.5 2.9 2.5 4.9 0 3.4-2.8 6.2-6.2 6.2-2.8 0-5.2-1.9-5.9-4.4-.1.4-.1.9-.1 1.3 0 4.5 3.7 8.2 8.2 8.2.6 0 1.2-.1 1.8-.2l16.5 16.5 6.6-6.4" id="0"/><path fill="#d9d8d8" d="m155.3 168.2c-1.2.3-2.5.4-3.7.4-9.6 0-17.3-7.8-17.3-17.3 0-9.6 7.8-17.3 17.3-17.3 9.6 0 17.3 7.8 17.3 17.3 0 1.3-.2 2.5-.4 3.7l6.6 6.6c1.4-3.2 2.2-6.7 2.2-10.3 0-14.2-11.5-25.7-25.7-25.7-14.2 0-25.7 11.5-25.7 25.7 0 14.2 11.5 25.7 25.7 25.7 3.7 0 7.2-.8 10.3-2.2l-6.6-6.6"/><use xlink:href="#0"/><g opacity=".1" fill="#010101"><circle cx="318.6" cy="58.2" r="9.6"/><circle cx="359.3" cy="58.2" r="9.6"/><circle cx="339.5" cy="91.8" r="9.6"/><path d="m304.3 87v-13c0 0 6.6-8.6 10.5-3.9 3.9 4.7 4.3 8.9 6.6 7.1 2.4-1.8 1.3-8 6.9-7.8 5.6.2 7.1 7.1 6.4 8.8-.6 1.7-9.2 7.1-9.2 8.6l-21.2.2"/><path d="m373.6 87v-13c0 0-6.6-8.6-10.5-3.9-3.9 4.7-4.3 8.9-6.6 7.1-2.4-1.8-1.3-8-6.9-7.8-5.6.2-7.1 7.1-6.4 8.8.6 1.7 9.2 7.1 9.2 8.6l21.2.2"/><path d="m354.2 108.2c0 0-.8-1-2-2.2-.5-.6-1.2-1.2-1.9-1.6-2.1-1.5-4.7-2.3-6.5 0-2.6 3.2-3.7 6.1-4.8 7.1-1.1-1-2.2-3.9-4.8-7.1-1.9-2.3-4.4-1.4-6.5 0-.8.4-1.4 1-1.9 1.6-1.2 1.2-2 2.2-2 2.2v13l15.3-.1 15.3.1v-13z"/></g><g fill="#d9d8d8"><circle cx="310.3" cy="49.8" r="9.6"/><circle cx="351" cy="49.8" r="9.6"/><circle cx="331.1" cy="83.4" r="9.6"/></g><path fill="#fbb56b" d="m295.9 78.6v-13c0 0 6.6-8.6 10.5-3.9 3.9 4.7 4.3 8.9 6.6 7.1 2.4-1.8 1.3-8 6.9-7.8s7.1 7.1 6.4 8.8c-.6 1.7-9.2 7.1-9.2 8.6l-21.2.2"/><path fill="#f04953" d="m365.2 78.6v-13c0 0-6.6-8.6-10.5-3.9-3.9 4.7-4.3 8.9-6.6 7.1-2.4-1.8-1.3-8-6.9-7.8s-7.1 7.1-6.4 8.8c.6 1.7 9.2 7.1 9.2 8.6l21.2.2"/><path fill="#67cdef" d="m345.8 99.8c0 0-.8-1-2-2.2-.5-.6-1.2-1.2-1.9-1.6-2.1-1.5-4.7-2.3-6.5 0-2.6 3.2-3.7 6.1-4.8 7.1-1.1-1-2.2-3.9-4.8-7.1-1.9-2.3-4.4-1.4-6.5 0-.8.4-1.4 1-1.9 1.6-1.2 1.2-2 2.2-2 2.2v13l15.3-.1 15.3.1v-13z"/><g opacity=".1" fill="#010101"><path d="m505.9 163h17.9v16.3h-17.9z"/><path d="m531.2 151.6c0-9-7.3-16.3-16.3-16.3-9 0-16.3 7.3-16.3 16.3 0 3 .9 5.9 2.3 8.3 7.9 13.7 4.9 18 4.9 18v1.3h18.7c-2.9-12.2 3.9-19.3 4.4-19.3 1.4-2.4 2.3-5.2 2.3-8.3"/><path d="m504.3 181.4h21.1v4.6h-21.1z"/><path d="m508.6 188.1h12.6v4.6h-12.6z"/><path d="m512.7 116.8h3.7v12.4h-3.7z"/><path d="m537.6 150.3h12.4v3.7h-12.4z"/><path d="m479.1 150.3h12.4v3.7h-12.4z"/><path transform="matrix(.7071.7071-.7071.7071 249.75-339.92)" d="m533.3 125.3h3.7v12.4h-3.7z"/><path transform="matrix(.7071.7071-.7071.7071 266.85-298.62)" d="m492 166.6h3.7v12.4h-3.7z"/><path transform="matrix(-.7071.7071-.7071-.7071 1035.84-83.43)" d="m533.3 166.6h3.7v12.4h-3.7z"/><path transform="matrix(-.7071.7071-.7071-.7071 936.12-124.74)" d="m492 125.3h3.7v12.4h-3.7z"/></g><path fill="#d9d8d8" d="m501.9 159h17.9v16.3h-17.9z"/><path fill="#fbb56b" d="m527.2 147.6c0-9-7.3-16.3-16.3-16.3-9 0-16.3 7.3-16.3 16.3 0 3 .9 5.9 2.3 8.3 7.9 13.7 4.9 18 4.9 18v1.3h18.7c-2.9-12.2 3.9-19.3 4.4-19.3 1.4-2.4 2.3-5.2 2.3-8.3"/><g fill="#d9d8d8"><path d="m500.3 177.4h21.1v4.6h-21.1z"/><path d="m504.6 184.1h12.6v4.6h-12.6z"/></g><g fill="#fbb56b"><path d="m508.7 112.8h3.7v12.4h-3.7z"/><path d="m533.6 146.3h12.4v3.7h-12.4z"/><path d="m475.1 146.3h12.4v3.7h-12.4z"/><path transform="matrix(.7071.7071-.7071.7071 245.75-338.27)" d="m529.3 121.3h3.7v12.4h-3.7z"/><path transform="matrix(.7071.7071-.7071.7071 262.85-296.96)" d="m488 162.6h3.7v12.4h-3.7z"/><path transform="matrix(-.7071.7071-.7071-.7071 1026.18-87.43)" d="m529.3 162.6h3.7v12.4h-3.7z"/><path transform="matrix(-.7071.7071-.7071-.7071 926.46-128.74)" d="m488 121.3h3.7v12.4h-3.7z"/></g><g opacity=".1"><g fill="none" stroke="#010101" stroke-width="4.818" stroke-miterlimit="10"><path d="m590.2 355.2v-25.9h-30v25.9"/><path d="m620.2 355.2v-25.9h-30v25.9"/><path d="m604.9 328v-25.9h-30v25.9"/></g><g fill="#010101"><path d="m581.8 296.4h16.8v13.1h-16.8z"/><path d="m567.9 322.7h16.8v13.1h-16.8z"/><path d="m596 322.7h16.8v13.1h-16.8z"/><path d="m552.8 348.7h16.8v13.1h-16.8z"/><path d="m581.5 348.7h16.8v13.1h-16.8z"/><path d="m610.2 348.7h16.8v13.1h-16.8z"/></g></g><g fill="none" stroke="#d9d8d8" stroke-width="4.818" stroke-miterlimit="10"><path d="m586.2 351.2v-25.9h-30v25.9"/><path d="m616.2 351.2v-25.9h-30v25.9"/><path d="m600.9 324v-25.9h-30v25.9"/></g><path fill="#f04953" d="m577.8 292.4h16.8v13.1h-16.8z"/><g fill="#79ba51"><path d="m563.9 318.7h16.8v13.1h-16.8z"/><path d="m592 318.7h16.8v13.1h-16.8z"/></g><g fill="#67cdef"><path d="m548.8 344.7h16.8v13.1h-16.8z"/><path d="m577.5 344.7h16.8v13.1h-16.8z"/><path d="m606.2 344.7h16.8v13.1h-16.8z"/></g><g opacity=".1" fill="#010101"><path d="m332 561.9c-3 3-8 3-11 0l-15.4 15.4c3 3 3 8 0 11l40.8 40.8 26.4-26.4-40.8-40.8"/><path d="m346.4 620.6l-33.3-33.3c1-2.9 1-6.1 0-9.1l8.9-8.9c2.9 1 6.1 1 9.1 0l33.3 33.3-18 18"/><circle cx="322.5" cy="578.8" r="4.1"/><path transform="matrix(.7071-.7071.7071.7071-326.69 413.61)" d="m333.7 585.9h4.5v30.5h-4.5z"/><path transform="matrix(.7071-.7071.7071.7071-322.45 415.37)" d="m337.9 581.7h4.5v30.5h-4.5z"/><path transform="matrix(.7071-.7071.7071.7071-317.78 417.3)" d="m342.6 577h4.5v30.5h-4.5z"/></g><path fill="#f04953" d="m325 554.9c-3 3-8 3-11 0l-15.4 15.4c3 3 3 8 0 11l40.8 40.8 26.4-26.4-40.8-40.8"/><path fill="#fbab3f" d="m339.4 613.6l-33.3-33.3c1-2.9 1-6.1 0-9.1l8.9-8.9c2.9 1 6.1 1 9.1 0l33.3 33.3-18 18"/><g fill="#f04953"><circle cx="315.5" cy="571.8" r="4.1"/><path transform="matrix(.7071-.7071.7071.7071-323.79 406.61)" d="m326.7 578.9h4.5v30.5h-4.5z"/><path transform="matrix(.7071-.7071.7071.7071-319.55 408.37)" d="m330.9 574.7h4.5v30.5h-4.5z"/><path transform="matrix(.7071-.7071.7071.7071-314.89 410.3)" d="m335.6 570h4.5v30.5h-4.5z"/></g><g opacity=".1" fill="#010101"><path d="m132.4 509.7h52.4v5.8h-52.4z"/><path d="m182.8 501.2v27.6h-48.5v-35.1h40.8z"/><path d="m175.1 495.1l-1.6 7.9 7.5-1.8z"/><path d="m175.1 493.7l7.7 7.5h-7.7z"/><path d="m158.6 525.7l-26.2-16v32.1z"/><path d="m158.6 525.7l26.1-16v32.1z"/><path d="m158.5 525.8l-23.1 16h46.5z"/><path d="m134 510.7l24.6 13.1 23.3-12.4-23.4 14.4z"/><path d="m158.6 525.8l-26.2 16h3z"/><path d="m158.6 525.8l26.1 16h-3z"/></g><path fill="#0f3051" d="m125.4 502.7h52.4v5.8h-52.4z"/><path fill="#ededee" d="m175.8 494.2v27.6h-48.5v-35.1h40.8z"/><path fill="#d2d3d3" d="m168.1 488.1l-1.6 7.9 7.5-1.8z"/><g fill="#369ed8"><path d="m168.1 486.7l7.7 7.5h-7.7z"/><path d="m151.6 518.7l-26.2-16v32.1z"/></g><path fill="#1e7091" d="m151.6 518.7l26.1-16v32.1z"/><path fill="#298dc1" d="m151.5 518.8l-23.1 16h46.5z"/><path fill="#d2d3d3" d="m127 503.7l24.6 13.1 23.3-12.4-23.4 14.4z"/><g fill="#0f3051"><path d="m151.6 518.8l-26.2 16h3z"/><path d="m151.6 518.8l26.1 16h-3z"/></g><g opacity=".1"><path fill="none" stroke="#010101" stroke-width="4" stroke-linecap="round" stroke-linejoin="round" stroke-miterlimit="10" d="m66.1 370.8l17-42.4 16.5 42.4"/><g fill="#010101"><path d="m56.3 312.5h53.6v39.1h-53.6z"/><path d="m86.9 324h5.9v20h-5.9z"/><path d="m92.8 328.4h5.9v15.7h-5.9z"/><path d="m98.6 317.9h5.9v26.1h-5.9z"/><circle cx="70.6" cy="333.4" r="10.1"/><path d="m70.6 333.4h10.1c0-2.3-.8-4.5-2.1-6.2l-8 6.2"/><path d="m70.6 333.4l8-6.2c-1.8-2.4-4.7-3.9-8-3.9-2.2 0-4.3.7-6 2l6 8.1"/></g></g><path fill="none" stroke="#cbcbcb" stroke-width="4" stroke-linecap="round" stroke-linejoin="round" stroke-miterlimit="10" d="m59.1 363.8l17-42.4 16.5 42.4"/><path fill="#fff" d="m49.3 305.5h53.6v39.1h-53.6z"/><path fill="#f04953" d="m79.9 317h5.9v20h-5.9z"/><path fill="#79ba51" d="m85.8 321.4h5.9v15.7h-5.9z"/><path fill="#79c6e1" d="m91.6 310.9h5.9v26.1h-5.9z"/><circle fill="#fbb56b" cx="63.6" cy="326.4" r="10.1"/><path fill="#79ba51" d="m63.6 326.4h10.1c0-2.3-.8-4.5-2.1-6.2l-8 6.2"/><path fill="#79c6e1" d="m63.6 326.4l8-6.2c-1.8-2.4-4.7-3.9-8-3.9-2.2 0-4.3.7-6 2l6 8.1"/><circle fill="none" stroke="#fff" stroke-width="1.92" stroke-miterlimit="10" stroke-dasharray="1.9203 3.8406" cx="331" cy="330.5" r="122.4"/><circle fill="#f04953" cx="331" cy="330.5" r="108.3"/><g opacity=".1"><text transform="translate(263.4 385.16)" fill="#010101" font-family="&apos;Gotham-Light&apos;" font-size="67">SEO</text></g><text transform="translate(256.4 378.16)" fill="#fff" font-family="&apos;Gotham-Light&apos;" font-size="67">SEO</text><g opacity=".1" fill="#010101"><path transform="matrix(.5974-.802.802.5974-103.01 395.63)" d="m334.7 282.1h15.6v36.5h-15.6z"/><path transform="matrix(.5974-.802.802.5974-104.09 401.72)" d="m340.2 299.9h15.6v9.3h-15.6z"/><circle stroke="#010101" stroke-width="5.318" stroke-miterlimit="10" cx="315.7" cy="280.6" r="17.4"/></g><path transform="matrix(.5974-.802.802.5974-100.22 387.2)" fill="#848384" d="m327.7 275.1h15.6v36.5h-15.6z"/><path transform="matrix(.5974-.802.802.5974-101.29 393.29)" fill="#cbcbcb" d="m333.2 292.9h15.6v9.3h-15.6z"/><circle fill="#67cdef" stroke="#e4e5e6" stroke-width="5.318" stroke-miterlimit="10" cx="308.7" cy="273.6" r="17.4"/><g opacity=".1" fill="#010101"><path d="m484.5 496.6h30.1v26.9h-30.1z"/><path d="m481.5 517.7h-3.7c-3.7 0-3.7-15.2 0-15.2h3.7v15.2"/><path d="m490.3 523.5h20l-3.2 3 .2 19.9h-7.8z"/><path d="m507.2 531.2h3.1v6.3h-3.1z"/><path d="m480 500.9h4.4v18.3h-4.4z"/><path d="m552.2 535l-37.6-13.3v-23.1l37.6-13.2z"/><path d="m500.1 528.8h7.1v2.5h-7.1z"/><path d="m500.1 533.7h7.1v2.5h-7.1z"/><path d="m500.1 539.2h7.1v2.5h-7.1z"/><path d="m540.6 530.9l8.7 3v-47.5l-8.7 3.1z"/><path d="m549.3 533.9l2.9 1.1v-49.6l-2.9 1z"/></g><g fill="#f04953"><path d="m479.8 492h30.1v26.9h-30.1z"/><path d="m476.9 513h-3.7c-3.7 0-3.7-15.2 0-15.2h3.7v15.2"/></g><path fill="#fff" d="m485.7 518.9h19.9l-3.1 3 .2 19.9h-7.8z"/><path fill="#f04953" d="m502.5 526.6h3.1v6.3h-3.1z"/><g fill="#fff"><path d="m475.3 496.3h4.4v18.3h-4.4z"/><path d="m547.6 530.4l-37.7-13.3v-23.1l37.7-13.3z"/></g><g fill="#b3b5b8"><path d="m495.4 524.1h7.1v2.5h-7.1z"/><path d="m495.4 529.1h7.1v2.5h-7.1z"/><path d="m495.4 534.5h7.1v2.5h-7.1z"/><path d="m536 526.3l8.6 3v-47.5l-8.6 3z"/></g><path fill="#f04953" d="m544.6 529.3l3 1.1v-49.7l-3 1.1z"/></svg>