<svg xmlns="http://www.w3.org/2000/svg" viewBox="0 0 526.8 518.2" enable-background="new 0 0 526.8 518.2"><path fill="#79c6e1" d="m406.8 416.9h106.2v101.2h-106.2z"/><path fill="#f4d9b2" d="m420.1 384.1v-19.2l-22.4-26.2-10.7-45.8c0 0-1.6.5 2.7-6.4 4.3-6.9 18.2-26.3 18.2-26.3l.2-86.8c0 0-.9-8.5 12-8.5 12.8 0 12.8 5.3 12.8 10.1s0 55 0 55 3.7-8.5 14.4-8.5c10.7 0 12.3 8.5 12.3 8.5l.3 12.5 1.3-4.7c0 0 2.3-5.1 12.9-5.1 11.7 0 12 8.6 12 8.6l-.3 7.4 2.7-6.2c0 0 .5-3.9 8.5-3.9s12.3 7.2 12.3 7.2v73.2l-9.6 37.3-1.1 27.7h-78.5z"/><path fill="#f4e4cc" d="m430.4 178.5c0 7.6-4.4 13.7-9.8 13.7-5.4 0-9.8-6.1-9.8-13.7s.5-13.7 9.8-13.7 9.8 6.2 9.8 13.7"/><g fill="none" stroke="#eabc81" stroke-linejoin="round" stroke-linecap="round" stroke-width="2" stroke-miterlimit="10"><path d="m413.9 227.8c0 0 6-3.6 14.2 0"/><path d="m413.9 234.5c0 0 5.5 3 14.2 0"/><path d="m417 231h7.7"/><path d="m413.9 272.8c0 0 7.3-3.7 14.2 0"/><path d="m439.5 272.8c0 0 7.3-3.7 14.2 0"/><path d="m465.7 272.8c0 0 7.3-3.7 14.2 0"/><path d="m491.3 272.8c0 0 7.3-3.7 14.2 0"/></g><g fill="#eabc81"><path d="m407.8 307.2l.1-47-8.9 12.6z"/><path d="m434.1 266.8l-1.1-36.9c0 0 3-9.7 16.8-8.4 0 0-4.2 1.3-5.4 5.4-1.1 4.2-10.3 39.9-10.3 39.9"/><path d="m460 266.8l-.1-24.4c0 0-1.2-9.8 12.1-9.7l5.2.2c0 0-4.4.6-5.6 3.8-1.4 3.1-11.6 30.1-11.6 30.1"/><path d="m486.2 266.8l-.4-18.2c0 0 .1-10.1 10.4-10.1 0 0 3.9.2 5.4.8 0 0-3 0-4.5 2.6s-10.9 24.9-10.9 24.9"/></g><path fill="#fff" d="m415.3 380.4h88.6v36.5h-88.6z"/><circle fill="#fbb56b" cx="491.3" cy="398.7" r="7.1"/><g stroke-dasharray="2 4" fill="none" stroke="#fff" stroke-width="2" stroke-miterlimit="10"><path d="m191.3 185.1v231.8l114.6-114.5v116.1"/><path d="m343.1 55.2h-151.8"/></g><circle fill="#fbb56b" cx="343.1" cy="55.2" r="21.6"/><circle fill="#f04953" cx="193.2" cy="416.9" r="48.8"/><circle fill="#79ba51" cx="307.5" cy="304.1" r="34.6"/><circle fill="#fbb56b" cx="307.5" cy="418.5" r="22.1"/><path fill="none" stroke="#fff" stroke-width="2" stroke-miterlimit="10" stroke-dasharray="2 4" d="m78.7 125.2v248.9"/><circle fill="#fbb56b" cx="78.7" cy="125.2" r="33.8"/><circle fill="#79c6e1" cx="78.7" cy="374.5" r="17.6"/><path fill="none" stroke="#fff" stroke-width="9.908" stroke-miterlimit="10" d="m2.6 324.5l76.1-46.4 113.6-93 114.2-16.5 114.2-49.1 66.4-74.8"/><path fill="#fff" d="m526.8 0c-10.9 28-20.8 65.9-21 94.6l-23.9-44-46.5-18.6c28.5-3.6 65-17.9 91.4-32"/><circle fill="#f04953" cx="420.1" cy="121.2" r="19.4"/><g fill="#79ba51"><circle cx="78.7" cy="278.1" r="19.4"/><circle cx="191.3" cy="185.1" r="19.4"/></g><g opacity=".1" fill="#010101"><path d="m70.6 376.5h4.7v7.8h-4.7z"/><path d="m75.3 372.3h4.7v12h-4.7z"/><path d="m80.1 368.3h4.7v16h-4.7z"/><path d="m84.8 373.4h4.7v10.9h-4.7z"/></g><path fill="#fbb56b" d="m68.6 374.5h4.7v7.8h-4.7z"/><path fill="#79ba51" d="m73.3 370.3h4.7v12h-4.7z"/><path fill="#f04953" d="m78.1 366.3h4.7v16h-4.7z"/><path fill="#fff" d="m82.8 371.4h4.7v10.9h-4.7z"/><g opacity=".1" fill="#010101"><circle cx="83.7" cy="130.2" r="21.6"/><path d="m83.7 130.2h21.6c0-5-1.7-9.6-4.5-13.2l-17.1 13.2"/><path d="m83.7 130.2l17.1-13.2c-4-5.1-10.1-8.4-17.1-8.4-4.8 0-9.3 1.6-12.9 4.3l12.9 17.3"/></g><circle fill="#f04953" cx="78.7" cy="125.2" r="21.6"/><path fill="#79ba51" d="m78.7 125.2h21.6c0-5-1.7-9.6-4.5-13.2l-17.1 13.2"/><path fill="#79c6e1" d="m78.7 125.2l17.1-13.2c-4-5.1-10.1-8.4-17.1-8.4-4.8 0-9.3 1.6-12.9 4.3l12.9 17.3"/><path fill="#0f3051" d="m166.9 407.2h52.4v5.8h-52.4z"/><path fill="#ededee" d="m217.4 398.8v27.5h-48.5v-35.1h40.8z"/><path fill="#d2d3d3" d="m209.7 392.6l-1.6 8 7.5-1.8z"/><g fill="#369ed8"><path d="m209.7 391.2l7.7 7.6h-7.7z"/><path d="m193.1 423.3l-26.2-16.1v32.1z"/></g><path fill="#1e7091" d="m193.1 423.3l26.2-16.1v32.1z"/><path fill="#298dc1" d="m193.1 423.3l-23.2 16h46.5z"/><path fill="#d2d3d3" d="m168.5 408.2l24.6 13.1 23.3-12.3-23.3 14.3z"/><g fill="#0f3051"><path d="m193.1 423.3l-26.2 16h3.1z"/><path d="m193.1 423.3l26.2 16h-3.1z"/></g><g opacity=".1"><text transform="translate(303.81 432.19)" fill="#010101" font-family="&apos;Gotham-Ultra&apos;" font-size="24.615">$</text></g><text transform="translate(298.81 427.19)" fill="#fff" font-family="&apos;Gotham-Ultra&apos;" font-size="24.615">$</text><g opacity=".1" fill="#010101"><path d="m334 323.8c0 .8-.6 1.4-1.4 1.4h-40.3c-.8 0-1.4-.6-1.4-1.4v-29.6c0-.8.6-1.4 1.4-1.4h40.3c.8 0 1.4.6 1.4 1.4v29.6"/><path d="m290.9 298.1v-3.9c0-.8.6-1.4 1.4-1.4h40.3c.8 0 1.4.6 1.4 1.4v3.9h-43.1"/><circle cx="295.9" cy="295.4" r="1.5"/><circle cx="301.3" cy="295.4" r="1.5"/><circle cx="306.7" cy="295.4" r="1.5"/><path d="m300.4 304.2h24.6v11.6h-24.6z"/><path d="m300.4 300.3h5.6v1.9h-5.6z"/><path d="m306.7 300.3h5.6v1.9h-5.6z"/><path d="m313.2 300.3h5.6v1.9h-5.6z"/><path d="m319.5 300.3h5.6v1.9h-5.6z"/><path d="m300.4 317.7h6.9v4.4h-6.9z"/><path d="m309.3 317.7h6.9v4.4h-6.9z"/><path d="m318.1 317.7h6.9v4.4h-6.9z"/></g><path fill="#fffffb" d="m329.1 318.9c0 .8-.6 1.4-1.4 1.4h-40.3c-.8 0-1.4-.6-1.4-1.4v-29.6c0-.8.6-1.4 1.4-1.4h40.3c.8 0 1.4.6 1.4 1.4v29.6"/><path fill="#cbcbcb" d="m286 293.2v-3.9c0-.8.6-1.4 1.4-1.4h40.3c.8 0 1.4.6 1.4 1.4v3.9h-43.1"/><circle fill="#f04953" cx="291" cy="290.5" r="1.5"/><circle fill="#fbb56b" cx="296.4" cy="290.5" r="1.5"/><circle fill="#79ba51" cx="301.8" cy="290.5" r="1.5"/><path fill="#f04953" d="m295.5 299.3h24.6v11.6h-24.6z"/><g fill="#fbb56b"><path d="m295.5 295.4h5.6v1.9h-5.6z"/><path d="m301.8 295.4h5.6v1.9h-5.6z"/><path d="m308.2 295.4h5.6v1.9h-5.6z"/><path d="m314.5 295.4h5.6v1.9h-5.6z"/></g><g fill="#79ba51"><path d="m295.5 312.8h6.9v4.4h-6.9z"/><path d="m304.3 312.8h6.9v4.4h-6.9z"/><path d="m313.2 312.8h6.9v4.4h-6.9z"/></g><path fill="#f04953" d="m343.1 42.9c-6.8 0-12.3 5.5-12.3 12.3 0 6.8 5.5 12.3 12.3 12.3 6.8 0 12.3-5.5 12.3-12.3 0-6.8-5.5-12.3-12.3-12.3m.6 8.4c1.9 0 3.7-.2 5.2-.4.4 1.3.5 2.5.5 3.9h-5.7v-3.5m0-1.2v-5.5c.7 0 1.5.2 2.1.4 1.2 1.5 2.1 3.1 2.7 4.8-1.4.1-3 .3-4.8.3m-1.1 0c-1.5 0-3.1-.1-4.7-.3.6-1.7 1.5-3.4 2.8-4.9.6-.1 1.3-.2 1.9-.3v5.5m0 1.2v3.4h-5.6c0-1.3.2-2.5.5-3.8 1.8.2 3.5.3 5.1.4m-6.6 3.4h-3.5c.1-1.6.5-3.2 1.3-4.5.9.2 1.8.4 2.7.6-.4 1.3-.5 2.6-.5 3.9m0 1.1c.1 1.3.3 2.5.6 3.6 0 .1.1.3.1.4-1 .2-1.9.4-2.9.6-.8-1.4-1.2-2.9-1.3-4.6h3.5m1.7 3.3c-.3-1.1-.5-2.2-.6-3.3h5.5v3.5c-1.5 0-3.1.1-4.8.3 0-.2-.1-.4-.1-.5m4.9 1.3v5.4c-.6 0-1.1-.1-1.7-.2h.1c0 0-1.6-1.9-2.8-4.9 1.5-.2 3-.3 4.4-.3m1.1 0c1.7 0 3.2.2 4.5.3-1.1 2.8-2.6 4.6-2.7 4.8-.6.1-1.2.2-1.8.3v-5.4m0-1.1v-3.5h5.7c-.1 1.1-.3 2.1-.6 3.2-.1.2-.1.4-.2.6-1.4-.1-3.1-.3-4.9-.3m6.2.1c.3-1.1.5-2.3.6-3.6h3.2c-.1 1.7-.6 3.2-1.3 4.6-.7-.2-1.6-.3-2.6-.5 0-.2 0-.4.1-.5m.6-4.7c0-1.3-.2-2.6-.5-4 1-.2 1.8-.3 2.4-.5.7 1.4 1.2 2.9 1.3 4.5h-3.2m1.3-5.5c-.6.1-1.3.3-2.1.4-.4-1.3-1.1-2.6-1.9-3.9 1.5.8 2.9 2 4 3.5m-12.9-3.7c-1 1.4-1.6 2.8-2.1 4.2-.8-.1-1.6-.3-2.4-.5 1.1-1.7 2.7-3 4.5-3.7m-4.5 15.8c.9-.2 1.8-.4 2.7-.5.7 1.9 1.6 3.4 2.2 4.3-2-.7-3.7-2.1-4.9-3.8m12.9 3.6c.6-.9 1.4-2.3 2.1-4 .9.1 1.7.3 2.4.4-1.2 1.6-2.7 2.9-4.5 3.6"/><path fill="none" stroke="#fff" stroke-width="2" stroke-miterlimit="10" stroke-dasharray="2 4" d="m193.2 55.2l114.3 114.1"/><circle fill="#79c6e1" cx="193.2" cy="55.2" r="48.8"/><g opacity=".1" fill="#010101"><circle cx="206.9" cy="42.1" r="9.9"/><circle cx="206.9" cy="76.7" r="9.9"/><circle cx="179.7" cy="59.6" r="9.9"/><path d="m204.9 81.2l-31.5-21.7 31.6-20.3 3.8 5.8-22.9 14.7 23 15.8z"/></g><g fill="#fff"><circle cx="202.6" cy="37.8" r="9.9"/><circle cx="202.6" cy="72.4" r="9.9"/><circle cx="175.3" cy="55.2" r="9.9"/><path d="m200.6 76.9l-31.6-21.8 31.7-20.3 3.7 5.9-22.8 14.6 22.9 15.8z"/></g><circle fill="#79ba51" cx="307.5" cy="169.3" r="19.4"/></svg>