<svg xmlns="http://www.w3.org/2000/svg" viewBox="0 0 539.2 596.3" enable-background="new 0 0 539.2 596.3"><g fill="none" stroke="#fff" stroke-width="2" stroke-miterlimit="10"><circle stroke-dasharray="1.9982 3.9964" cx="439.7" cy="59.2" r="58.2"/><circle stroke-dasharray="1.9941 3.9881" cx="406.9" cy="275.1" r="87.6"/><circle stroke-dasharray="2.0091 4.0183" cx="316.3" cy="104.4" r="60.4"/></g><circle fill="#79c6e1" cx="462.2" cy="77.6" r="55.2"/><circle fill="#fbb56b" cx="383.2" cy="145.3" r="66.9"/><g fill="#fff" font-family="&apos;Gotham-Light&apos;"><text transform="translate(415.4 86.82)" font-size="31.882">Cloud</text><text transform="translate(356.57 167.24)" font-size="80.68">js</text></g><circle fill="#79ba51" cx="450.2" cy="257.6" r="85.9"/><text transform="translate(376.68 280.52)" fill="#fff" font-family="&apos;Gotham-Light&apos;" font-size="65">PHP</text><circle fill="#f04953" cx="325.7" cy="64.7" r="46.6"/><text transform="translate(295.1 72.09)" fill="#fff" font-family="&apos;Gotham-Light&apos;" font-size="26.12">XML</text><circle fill="#f04953" cx="507.9" cy="182.1" r="22.8"/><g fill="none" stroke="#fff" stroke-miterlimit="10"><g stroke-width="2"><circle stroke-dasharray="2.0197 4.0393" cx="230.7" cy="186.6" r="45.3"/><circle stroke-dasharray="1.9962 3.9925" cx="121.3" cy="219.7" r="115.3"/></g><circle stroke-width=".687" stroke-dasharray="2.0091 4.0183" cx="102.1" cy="231.9" r="60.4"/></g><circle fill="#76bd4f" cx="276" cy="208.3" r="19.2"/><circle fill="#79c6e1" cx="180.2" cy="173" r="58.9"/><circle fill="#fbb56b" cx="83.9" cy="260" r="83.9"/><g fill="#fff" font-family="&apos;Gotham-Light&apos;"><text transform="translate(130.74 182.83)" font-size="37.579">www</text><text transform="translate(16.822 276.65)" font-size="50">CSS3</text></g><circle fill="#f04953" cx="121.3" cy="132.8" r="22.9"/><path fill="#111" d="m83.8 593.3c-8.6 0-15.6-7-15.6-15.6v-266.7c0-8.6 7-15.6 15.6-15.6h389.6c8.6 0 15.6 7 15.6 15.6v266.8c0 8.6-7 15.6-15.6 15.6h-389.6z"/><path fill="#e2dfdc" d="m473.4 297.4c7.5 0 13.6 6.1 13.6 13.6v266.8c0 7.5-6.1 13.6-13.6 13.6h-389.6c-7.5 0-13.6-6.1-13.6-13.6v-266.8c0-7.5 6.1-13.6 13.6-13.6h389.6m0-4h-389.6c-9.7 0-17.6 7.9-17.6 17.6v266.8c0 9.7 7.9 17.6 17.6 17.6h389.6c9.7 0 17.6-7.9 17.6-17.6v-266.8c0-9.7-7.9-17.6-17.6-17.6z"/><path fill="#202020" d="m79.2 312.6h398.9v248.7h-398.9z"/><path fill="#c6c7ca" d="m18.1 580.4h521.1v8.9h-521.1z"/><g fill="#989798"><path d="M539.2,589.3v2.6c0,2.4-12,4.4-14.4,4.4H32.5c-2.4,0-14.4-2-14.4-4.4v-2.6H539.2z"/><path d="m316.3 580.4c0 2.9-2.3 5.2-5.2 5.2h-65c-2.9 0-5.2-2.3-5.2-5.2"/></g><circle fill="#f04953" cx="242.5" cy="288.4" r="80"/><g fill="#fff" font-family="&apos;Gotham-Light&apos;"><text transform="translate(178.69 301.09)" font-size="35">MySQL</text><text transform="translate(122.16 482.77)" font-size="90.33">HTML5</text></g></svg>