<svg xmlns="http://www.w3.org/2000/svg" xmlns:xlink="http://www.w3.org/1999/xlink" viewBox="0 0 543.8 608.1" enable-background="new 0 0 543.8 608.1"><defs><path id="2" d="m450 118.6h-70c-1 0-1.7.8-1.7 1.7v42.7c0 1 0 1.7 0 1.7h73.5c0 0 0-.8 0-1.7v-42.7c0-.9-.8-1.7-1.8-1.7"/><use id="3" xlink:href="#9"/><use id="4" xlink:href="#9"/><use id="5" xlink:href="#9"/><path id="6" d="m489.9 252.6h21.7v33.5h-21.7z"/><path id="7" d="m489.9 252.6h21.7v33.5h-21.7z"/><use id="8" xlink:href="#7"/><path id="9" d="m496.9 259.6h21.7v33.5h-21.7z"/><circle id="1" cx="307" cy="352.8" r="81.2"/><clipPath><use xlink:href="#6"/></clipPath><clipPath><use xlink:href="#7"/></clipPath><clipPath><use xlink:href="#8"/></clipPath><clipPath><use xlink:href="#5"/></clipPath><clipPath id="0"><use xlink:href="#1"/></clipPath><clipPath><use xlink:href="#2"/></clipPath><clipPath><use xlink:href="#4"/></clipPath><clipPath><use xlink:href="#3"/></clipPath></defs><g stroke-dasharray="2 4" fill="none" stroke="#fff" stroke-width="2" stroke-miterlimit="10"><path d="M 156.3,519.1 307,352.8"/><path d="m73.3 310.8l233.7 42"/><path d="m307 352.8c-4.7-15.7-139.7-197.8-139.7-197.8"/><path d="m306.8 346.3l-25.9-295.5"/><path d="m304.1 344.4l112.1-194.7"/><path d="m307.6 346.3l198.8-74"/><path d="m306.8 346.5l131.7 72.2"/><path d="M 304.1,354.8 379,555"/></g><circle fill="#79c6e1" cx="501.4" cy="271.6" r="42.4"/><circle fill="#ef5359" cx="163.2" cy="154.8" r="54.7"/><g opacity=".1"><g fill="#000101"><path d="m515.9 254.5c0 .2-.2.4-.4.4h-2.1c-.2 0-.4-.2-.4-.4 0-.2.2-.4.4-.4h2.1c.2 0 .4.2.4.4"/><path d="m495.8 261c-.2 0-.4-.2-.4-.4v-1.3c0-.2.2-.4.4-.4.2 0 .4.2.4.4v1.3c0 .2-.2.4-.4.4"/><path d="m495.8 263.5c-.2 0-.4-.2-.4-.4v-1c0-.2.2-.4.4-.4.2 0 .4.2.4.4v1c0 .3-.2.4-.4.4"/><path d="m495.8 265.6c-.2 0-.4-.2-.4-.4v-1c0-.2.2-.4.4-.4.2 0 .4.2.4.4v1c0 .3-.2.4-.4.4"/><path d="m519.7 296.6c0 1.3-1 2.3-2.3 2.3h-19.3c-1.3 0-2.3-1-2.3-2.3v-39.7c0-1.3 1-2.3 2.3-2.3h19.3c1.3 0 2.3 1 2.3 2.3v39.7"/><circle cx="507.8" cy="295.8" r="1.7"/></g><path fill="none" stroke="#000101" stroke-width=".163" stroke-miterlimit="10" d="m508.5 296.3c0 .2-.2.3-.3.3h-.8c-.2 0-.3-.2-.3-.3v-.8c0-.2.2-.3.3-.3h.8c.2 0 .3.2.3.3v.8z"/><g fill="#000101"><path d="m509.9 257.6c0 .1-.1.2-.2.2h-3.9c-.1 0-.2-.1-.2-.2 0-.1.1-.2.2-.2h3.9c.1 0 .2.1.2.2"/><path d="m509.1 256.6c0 .1-.1.2-.2.2h-2.3c-.1 0-.2-.1-.2-.2 0-.1.1-.2.2-.2h2.3c.1 0 .2.1.2.2"/><circle cx="504.4" cy="257.6" r=".4"/></g><g><use xlink:href="#4" fill="#000101"/></g><g fill="#000101"><path d="m517.2 275c0-1-.8-1.8-1.8-1.8-.1 0-.2 0-.2 0 0-.1 0-.2 0-.3 0-.9-.8-1.7-1.7-1.7-.4 0-.7.1-1 .3-.1-1.6-1.5-2.8-3.1-2.8-1.6 0-3 1.3-3.1 2.9-.3-.2-.6-.4-1-.4-.9 0-1.7.8-1.7 1.7 0 .1 0 .2 0 .3-.1 0-.1 0-.2 0-1 0-1.8.8-1.8 1.8 0 1 .8 1.8 1.8 1.8h12.3c.8-.2 1.5-.9 1.5-1.8"/><path d="m514.9 277.5c0-1-.8-1.8-1.8-1.8-.1 0-.2 0-.2 0 0-.1 0-.2 0-.3 0-.9-.8-1.7-1.7-1.7-.4 0-.7.1-1 .3-.1-1.6-1.5-2.8-3.1-2.8-1.6 0-3 1.3-3.1 2.9-.3-.2-.6-.4-1-.4-.9 0-1.7.8-1.7 1.7 0 .1 0 .2 0 .3-.1 0-.1 0-.2 0-1 0-1.8.8-1.8 1.8s.8 1.8 1.8 1.8h12.3c.8-.1 1.5-.9 1.5-1.8"/></g></g><g fill="#212120"><path d="m508.9 247.5c0 .2-.2.4-.4.4h-2.1c-.2 0-.4-.2-.4-.4 0-.2.2-.4.4-.4h2.1c.2 0 .4.2.4.4"/><path d="m488.8 254c-.2 0-.4-.2-.4-.4v-1.3c0-.2.2-.4.4-.4.2 0 .4.2.4.4v1.3c0 .2-.2.4-.4.4"/><path d="m488.8 256.5c-.2 0-.4-.2-.4-.4v-1c0-.2.2-.4.4-.4.2 0 .4.2.4.4v1c0 .3-.2.4-.4.4"/><path d="m488.8 258.6c-.2 0-.4-.2-.4-.4v-1c0-.2.2-.4.4-.4.2 0 .4.2.4.4v1c0 .3-.2.4-.4.4"/></g><path fill="#231f20" d="m512.7 289.6c0 1.3-1 2.3-2.3 2.3h-19.3c-1.3 0-2.3-1-2.3-2.3v-39.7c0-1.3 1-2.3 2.3-2.3h19.3c1.3 0 2.3 1 2.3 2.3v39.7"/><circle fill="#303030" cx="500.8" cy="288.8" r="1.7"/><path fill="none" stroke="#30302f" stroke-width=".163" stroke-miterlimit="10" d="m501.5 289.3c0 .2-.2.3-.3.3h-.8c-.2 0-.3-.2-.3-.3v-.8c0-.2.2-.3.3-.3h.8c.2 0 .3.2.3.3v.8z"/><g fill="#212120"><path d="m502.9 250.6c0 .1-.1.2-.2.2h-3.9c-.1 0-.2-.1-.2-.2 0-.1.1-.2.2-.2h3.9c.1 0 .2.1.2.2"/><path d="m502.1 249.6c0 .1-.1.2-.2.2h-2.3c-.1 0-.2-.1-.2-.2 0-.1.1-.2.2-.2h2.3c.1 0 .2.1.2.2"/><circle cx="497.4" cy="250.6" r=".4"/></g><use xlink:href="#7" fill="#faaf42"/><path fill="#e7e7e7" d="m510.2 268c0-1-.8-1.8-1.8-1.8-.1 0-.2 0-.2 0 0-.1 0-.2 0-.3 0-.9-.8-1.7-1.7-1.7-.4 0-.7.1-1 .3-.1-1.6-1.5-2.8-3.1-2.8-1.6 0-3 1.3-3.1 2.9-.3-.2-.6-.4-1-.4-.9 0-1.7.8-1.7 1.7 0 .1 0 .2 0 .3-.1 0-.1 0-.2 0-1 0-1.8.8-1.8 1.8 0 1 .8 1.8 1.8 1.8h12.3c.8-.2 1.5-.9 1.5-1.8"/><path fill="#fff" d="m507.9 270.5c0-1-.8-1.8-1.8-1.8-.1 0-.2 0-.2 0 0-.1 0-.2 0-.3 0-.9-.8-1.7-1.7-1.7-.4 0-.7.1-1 .3-.1-1.6-1.5-2.8-3.1-2.8-1.6 0-3 1.3-3.1 2.9-.3-.2-.6-.4-1-.4-.9 0-1.7.8-1.7 1.7 0 .1 0 .2 0 .3-.1 0-.1 0-.2 0-1 0-1.8.8-1.8 1.8s.8 1.8 1.8 1.8h12.3c.8-.1 1.5-.9 1.5-1.8"/><circle fill="#79ba51" cx="415" cy="150.7" r="55.5"/><g fill-rule="evenodd"><g fill="#e9ebee"><path d="m451.8 161.9h-73.5c0 0 0 .8 0 1.7v6.1c0 1 .8 1.7 1.7 1.7h70c1 0 1.7-.8 1.7-1.7v-6.1c.1-.9.1-1.7.1-1.7"/><path d="m427.7 179c.4-.1-3.1-.6-3.1-.6-.6 0-1.1-6.8-1.1-6.8l-16.7-.1c-.5 7.1-1 6.8-1 6.8-2.6.3-3.2.6-3.2.6-.2.3 1.3.3 1.3.3h22.5c1.6 0 1.3-.2 1.3-.2"/></g><path fill="#d8dbe1" d="m423.4 171.5h-16.7v1.4h16.8z"/><path fill="#373c47" d="m450 118.6h-70c-1 0-1.7.8-1.7 1.7v42.7c0 1 0 1.7 0 1.7h73.5c0 0 0-.8 0-1.7v-42.7c0-.9-.8-1.7-1.8-1.7"/><path fill="#fbb56b" d="m381.3 121.5h67.3v40.3h-67.3z"/></g><g enable-background="new    "/><path fill="#ef5359" d="m416.2 149.7l-8.8-9.1c0 0-1.4-3.5 1.1-5.7 2.6-2.2 6.6-1 7.7 1.4 0 0 4.5-5.5 8.5-.7 2.2 2.9.1 5.7.1 5.7l-8.6 8.4"/><circle fill="#fbb56b" cx="438.5" cy="418.7" r="32.9"/><circle fill="#ef5359" cx="382.6" cy="545.4" r="62.6"/><g opacity=".1" fill="#000101"><path d="m410.7 532.8h-43.7l-1.4 46.7h46.9z"/><path d="m403.5 535.5c-.4-3.4-2.9-17.9-14.4-17.9-5.4 0-9.8 3.2-12.7 9.4-1.7 3.5-2.4 7-2.6 8.5-.2.2-.4.5-.4.8 0 .6.5 1.1 1.1 1.1s1.1-.5 1.1-1.1c0-.2-.1-.4-.2-.6.5-3.1 3.4-16.5 13.7-16.5 10.2 0 12.5 13.3 12.8 16.5-.1.2-.2.4-.2.6 0 .6.5 1.1 1.1 1.1s1.1-.5 1.1-1.1c0-.3-.2-.6-.4-.8"/><path d="m386.6 568.1c-1-.2-2.1-.6-2.7-.9-1.2-.7-1.5-.8-2.1-1.3-2.4-1.9-3.9-4.4-4.4-7.4-.1-.8-.1-3.6 0-4.3.1-.7.7-2.3.9-2.7.1-.2.3-.6.5-.9.4-.7 1.7-2.3 2.2-2.7.2-.2.6-.5.9-.7.3-.2.5-.4.6-.4 0 0 .2-.1.5-.3.8-.5 1.7-.9 2.3-1.1.3-.1.8-.2.9-.3.5-.2 1.7-.3 2.9-.3 1.6 0 2 .1 4.2.7.3.1 1.4.6 2.2 1.1.2.1.5.3.7.5s.5.5.7.5c.3.2.8.8 1 1 .1.1.3.4.5.7 1.1 1.3 2.1 3.7 2.3 5.6.2 1.7.1 3.6-.3 4.8-.1.4-.3.9-.3 1-.1.6-1.2 2.4-2 3.3-.9 1-2.2 2.2-3.1 2.7-.4.2-.8.4-1 .5-.4.2-2.4.9-2.7.9-.1 0-.3 0-.4.1-.2.1-3.7.1-4.3-.1m2.1-.8c.1-.1.1-4.1 0-4.2-.2-.2-4.7-.1-4.8 0 0 .1.1.4.3.7.7 1.3 1.9 2.6 3 3.2.5.2 1.4.4 1.5.3m1.1-.1h.4c1 0 3-1.6 3.9-3.3.1-.2.3-.5.3-.5s.1-.1.1-.2c0-.2-.1-.2-1.8-.2-1 0-2 0-2.3-.1-.4 0-.5 0-.6.1 0 .1-.1 1 0 2.1v2.1m-4.9-.7c0 0-.3-.4-.6-.9-.4-.5-.8-1.2-1.1-1.7s-.5-.9-.5-.9c-.1-.1-2.2-.1-2.2 0-.2.2 2.1 2.3 3 2.8.2.1.6.3.8.5.3.2.6.3.6.2m10.6-1.2c.6-.5 2.1-1.9 2.1-2.1 0-.1-.2-.1-1-.1-1.1 0-1.1-.1-1.6 1-.2.4-.6 1-.9 1.3s-.6.7-.6.8c-.2.4 1-.1 2-.9m1.7-3.2c1.3 0 1.2 0 1.7-.9.7-1.3 1.2-4 .9-4.2-.1 0-.7-.1-1.4-.1-1 0-1.3 0-1.4.1-.1.1-.1.5-.1.9-.1.9-.5 3.1-.7 3.6-.1.2-.1.4-.1.4 0 .1.4.2 1.1.2m-7.4 0h2.4c1.3 0 2.5 0 2.6-.1.3-.2.8-2.2.9-3.9.1-.9.1-1.1 0-1.1-.1 0-1.4-.1-3.1-.1h-3v2.4c0 1.4 0 2.4.1 2.6l.1.2m-6.4-.1h2.6 2.6l.1-.2c.1-.3 0-4.7-.1-4.8-.1-.1-6-.1-6.1 0-.3.2.3 4.1.8 4.9l.1.1m-2.5 0h1.2v-.2c0-.1-.1-.4-.1-.5-.2-.4-.5-2-.5-3.2-.1-.8-.1-1.1-.2-1.2-.2-.1-2.9-.1-3.1 0-.2.1 0 1.7.4 2.9.3 1 .6 1.6.9 2 .2.2.3.2 1.4.2m17.4-6c1.1 0 1.4 0 1.5-.1.1-.2.1-1.3-.1-1.9-.1-.2-.2-.7-.3-1-.3-.8-.6-1.4-.8-1.7-.1-.1-.3-.2-1.3-.2-1.2 0-1.3 0-1.1.3.2.4.6 2.7.7 3.6 0 .3.1.7.1.7-.1.2.1.2 1.3.3m-8.6-.2h3c2.6 0 3 0 3.1-.1.1-.2-.1-1.9-.3-2.9-.2-1-.4-1.6-.6-1.7 0 0-1.2-.1-2.6-.1-1.9 0-2.5 0-2.6.1 0 .1-.1 1.1 0 2.4v2.3m-1.1 0c0-.1 0-1.1 0-2.4v-2.2h-2.6-2.7l-.2.4c-.4 1.1-.8 4-.6 4.2.1.1 6 .1 6.1 0m-7.2 0c.1-.1.1-.4.2-1 0-.5.1-1.1.1-1.2 0-.2.1-.6.2-1 .1-.4.2-.8.3-1 .1-.2.1-.3 0-.4-.1-.1-2.4-.2-2.5-.1-.4.3-1.2 2.5-1.4 3.8-.1.7-.1.8 0 .9.2.1 2.9.1 3.1 0m16.4-5.7c.1-.2-1.1-1.5-2.1-2.2-.7-.5-2-1.3-2.1-1.2 0 0 .2.4.5.8.3.4.8 1.2 1 1.6.2.5.5.9.6 1 .2.2 2 .2 2.1 0m-3.4 0c.1-.1-.5-1.3-1.1-2.1-.6-.8-1.6-1.6-2.3-2-.7-.3-1-.4-1.2-.3l-.2.1v2.1c0 1.6 0 2.1.1 2.2.1 0 4.6.1 4.7 0m-8.3 0c1.9 0 2.3 0 2.4-.1.1-.1.1-.7 0-2.2-.1-1.9-.1-2.1-.2-2.1-.2-.1-.5 0-1.2.4-.8.4-1.6 1.1-2.2 1.9-.5.7-1.2 1.9-1.1 2 0 .1 1.1.1 2.3.1m-3.6 0c.1 0 .3-.5.6-1 .3-.5.7-1.2 1-1.5.5-.6.8-1.1.7-1.1 0 0-.2.1-.3.1-.1.1-.5.3-.9.5-.6.3-1 .6-1.8 1.3-.6.5-1.6 1.6-1.5 1.7.1 0 2 0 2.2 0"/></g><path fill="#fbb56b" d="m403.7 525.8h-43.7l-1.4 46.7h46.9z"/><path fill="#010101" d="m396.5 528.5c-.4-3.4-2.9-17.9-14.4-17.9-5.4 0-9.8 3.2-12.7 9.4-1.7 3.5-2.4 7-2.6 8.5-.2.2-.4.5-.4.8 0 .6.5 1.1 1.1 1.1s1.1-.5 1.1-1.1c0-.2-.1-.4-.2-.6.5-3.1 3.4-16.5 13.7-16.5 10.2 0 12.5 13.3 12.8 16.5-.1.2-.2.4-.2.6 0 .6.5 1.1 1.1 1.1s1.1-.5 1.1-1.1c0-.3-.2-.6-.4-.8"/><path fill="#fff" d="m379.6 561.1c-1-.2-2.1-.6-2.7-.9-1.2-.7-1.5-.8-2.1-1.3-2.4-1.9-3.9-4.4-4.4-7.4-.1-.8-.1-3.6 0-4.3.1-.7.7-2.3.9-2.7.1-.2.3-.6.5-.9.4-.7 1.7-2.3 2.2-2.7.2-.2.6-.5.9-.7.3-.2.5-.4.6-.4 0 0 .2-.1.5-.3.8-.5 1.7-.9 2.3-1.1.3-.1.8-.2.9-.3.5-.2 1.7-.3 2.9-.3 1.6 0 2 .1 4.2.7.3.1 1.4.6 2.2 1.1.2.1.5.3.7.5s.5.5.7.5c.3.2.8.8 1 1 .1.1.3.4.5.7 1.1 1.3 2.1 3.7 2.3 5.6.2 1.7.1 3.6-.3 4.8-.1.4-.3.9-.3 1-.1.6-1.2 2.4-2 3.3-.9 1-2.2 2.2-3.1 2.7-.4.2-.8.4-1 .5-.4.2-2.4.9-2.7.9-.1 0-.3 0-.4.1-.2.1-3.7.1-4.3-.1m2.1-.8c.1-.1.1-4.1 0-4.2-.2-.2-4.7-.1-4.8 0 0 .1.1.4.3.7.7 1.3 1.9 2.6 3 3.2.5.2 1.4.4 1.5.3m1.1-.1h.4c1 0 3-1.6 3.9-3.3.1-.2.3-.5.3-.5s.1-.1.1-.2c0-.2-.1-.2-1.8-.2-1 0-2 0-2.3-.1-.4 0-.5 0-.6.1 0 .1-.1 1 0 2.1v2.1m-4.9-.7c0 0-.3-.4-.6-.9-.4-.5-.8-1.2-1.1-1.7s-.5-.9-.5-.9c-.1-.1-2.2-.1-2.2 0-.2.2 2.1 2.3 3 2.8.2.1.6.3.8.5.3.2.6.3.6.2m10.6-1.2c.6-.5 2.1-1.9 2.1-2.1 0-.1-.2-.1-1-.1-1.1 0-1.1-.1-1.6 1-.2.4-.6 1-.9 1.3s-.6.7-.6.8c-.2.4 1-.1 2-.9m1.7-3.2c1.3 0 1.2 0 1.7-.9.7-1.3 1.2-4 .9-4.2-.1 0-.7-.1-1.4-.1-1 0-1.3 0-1.4.1-.1.1-.1.5-.1.9-.1.9-.5 3.1-.7 3.6-.1.2-.1.4-.1.4 0 .1.4.2 1.1.2m-7.4 0h2.4c1.3 0 2.5 0 2.6-.1.3-.2.8-2.2.9-3.9.1-.9.1-1.1 0-1.1-.1 0-1.4-.1-3.1-.1h-3v2.4c0 1.4 0 2.4.1 2.6l.1.2m-6.4-.1h2.6 2.6l.1-.2c.1-.3 0-4.7-.1-4.8-.1-.1-6-.1-6.1 0-.3.2.3 4.1.8 4.9l.1.1m-2.5 0h1.2v-.2c0-.1-.1-.4-.1-.5-.2-.4-.5-2-.5-3.2-.1-.8-.1-1.1-.2-1.2-.2-.1-2.9-.1-3.1 0-.2.1 0 1.7.4 2.9.3 1 .6 1.6.9 2 .2.2.3.2 1.4.2m17.4-6c1.1 0 1.4 0 1.5-.1.1-.2.1-1.3-.1-1.9-.1-.2-.2-.7-.3-1-.3-.8-.6-1.4-.8-1.7-.1-.1-.3-.2-1.3-.2-1.2 0-1.3 0-1.1.3.2.4.6 2.7.7 3.6 0 .3.1.7.1.7-.1.2.1.2 1.3.3m-8.6-.2h3c2.6 0 3 0 3.1-.1.1-.2-.1-1.9-.3-2.9-.2-1-.4-1.6-.6-1.7 0 0-1.2-.1-2.6-.1-1.9 0-2.5 0-2.6.1 0 .1-.1 1.1 0 2.4v2.3m-1.1 0c0-.1 0-1.1 0-2.4v-2.2h-2.6-2.7l-.2.4c-.4 1.1-.8 4-.6 4.2.1.1 6 .1 6.1 0m-7.2 0c.1-.1.1-.4.2-1 0-.5.1-1.1.1-1.2 0-.2.1-.6.2-1 .1-.4.2-.8.3-1 .1-.2.1-.3 0-.4-.1-.1-2.4-.2-2.5-.1-.4.3-1.2 2.5-1.4 3.8-.1.7-.1.8 0 .9.2.1 2.9.1 3.1 0m16.4-5.7c.1-.2-1.1-1.5-2.1-2.2-.7-.5-2-1.3-2.1-1.2 0 0 .2.4.5.8.3.4.8 1.2 1 1.6.2.5.5.9.6 1 .2.2 2 .2 2.1 0m-3.4 0c.1-.1-.5-1.3-1.1-2.1-.6-.8-1.6-1.6-2.3-2-.7-.3-1-.4-1.2-.3l-.2.1v2.1c0 1.6 0 2.1.1 2.2.1 0 4.6.1 4.7 0m-8.3 0c1.9 0 2.3 0 2.4-.1.1-.1.1-.7 0-2.2-.1-1.9-.1-2.1-.2-2.1-.2-.1-.5 0-1.2.4-.8.4-1.6 1.1-2.2 1.9-.5.7-1.2 1.9-1.1 2 0 .1 1.1.1 2.3.1m-3.6 0c.1 0 .3-.5.6-1 .3-.5.7-1.2 1-1.5.5-.6.8-1.1.7-1.1 0 0-.2.1-.3.1-.1.1-.5.3-.9.5-.6.3-1 .6-1.8 1.3-.6.5-1.6 1.6-1.5 1.7.1 0 2 0 2.2 0"/><circle fill="#fbb56b" cx="285.8" cy="50.8" r="50.8"/><g opacity=".1" fill="#010101"><path d="m266.4 44.8h47v5.2h-47z"/><path d="m311.7 37.2v24.8h-43.5v-31.6h36.6z"/><path d="m304.8 31.7l-1.4 7.2 6.7-1.7z"/><path d="m304.8 30.4l6.9 6.8h-6.9z"/><path d="m289.9 59.2l-23.5-14.4v28.9z"/><path d="m289.9 59.2l23.5-14.4v28.9z"/><path d="m289.9 59.3l-20.8 14.4h41.8z"/><path d="m267.9 45.7l22 11.8 21-11.1-21 12.9z"/><path d="m289.9 59.3l-23.5 14.4h2.8z"/><path d="m289.9 59.3l23.5 14.4h-2.7z"/></g><path fill="#0f3051" d="m262.3 40.7h47v5.2h-47z"/><path fill="#ededee" d="m307.6 33.1v24.7h-43.6v-31.5h36.7z"/><path fill="#d2d3d3" d="m300.7 27.6l-1.5 7.1 6.8-1.6z"/><g fill="#369ed8"><path d="m300.7 26.3l6.9 6.8h-6.9z"/><path d="m285.8 55.1l-23.5-14.4v28.8z"/></g><path fill="#1e7091" d="m285.8 55.1l23.5-14.4v28.8z"/><path fill="#298dc1" d="m285.8 55.1l-20.8 14.4h41.8z"/><path fill="#d2d3d3" d="m263.7 41.6l22.1 11.8 21-11.1-21 12.8z"/><g fill="#0f3051"><path d="m285.8 55.1l-23.5 14.4h2.8z"/><path d="m285.8 55.1l23.5 14.4h-2.7z"/></g><circle fill="#79ba51" cx="163.2" cy="513.8" r="55.6"/><g opacity=".1" fill="#010101"><circle cx="154.1" cy="499.8" r="7.4"/><circle cx="185.4" cy="499.8" r="7.4"/><circle cx="170.1" cy="525.6" r="7.4"/><path d="m143.1 521.9v-10c0 0 5.1-6.6 8.1-3 3 3.6 3.3 6.8 5.1 5.5 1.8-1.4 1-6.1 5.3-6 4.3.2 5.4 5.4 4.9 6.8-.5 1.3-7.1 5.4-7.1 6.6l-16.3.1"/><path d="m196.3 521.9v-10c0 0-5.1-6.6-8.1-3s-3.3 6.8-5.1 5.5-1-6.1-5.3-6c-4.3.2-5.4 5.4-4.9 6.8.5 1.3 7.1 5.4 7.1 6.6l16.3.1"/><path d="m181.4 538.2c0 0-.6-.8-1.6-1.7-.4-.5-.9-.9-1.5-1.2-1.6-1.1-3.6-1.8-5 0-2 2.5-2.8 4.7-3.7 5.5-.9-.8-1.7-3-3.7-5.5-1.4-1.8-3.4-1.1-5 0-.6.3-1.1.7-1.5 1.2-.9.9-1.6 1.7-1.6 1.7v10l11.7-.1 11.7.1v-10z"/></g><g fill="#d9d8d8"><circle cx="147.6" cy="493.3" r="7.4"/><circle cx="178.9" cy="493.3" r="7.4"/><circle cx="163.7" cy="519.1" r="7.4"/></g><path fill="#fbb56b" d="m136.6 515.5v-10c0 0 5.1-6.6 8.1-3 3 3.6 3.3 6.8 5.1 5.5 1.8-1.4 1-6.1 5.3-6s5.4 5.4 4.9 6.8c-.5 1.3-7.1 5.4-7.1 6.6l-16.3.1"/><path fill="#f04953" d="m189.9 515.5v-10c0 0-5.1-6.6-8.1-3-3 3.6-3.3 6.8-5.1 5.5-1.8-1.4-1-6.1-5.3-6s-5.4 5.4-4.9 6.8c.5 1.3 7.1 5.4 7.1 6.6l16.3.1"/><path fill="#67cdef" d="m175 531.7c0 0-.6-.8-1.6-1.7-.4-.5-.9-.9-1.5-1.2-1.6-1.1-3.6-1.8-5 0-2 2.5-2.8 4.7-3.7 5.5-.9-.8-1.7-3-3.7-5.5-1.4-1.8-3.4-1.1-5 0-.6.3-1.1.7-1.5 1.2-.9.9-1.6 1.7-1.6 1.7v10l11.7-.1 11.7.1v-10z"/><g opacity=".1" fill="#010101"><circle cx="442.3" cy="422.5" r="16.5"/><path d="m442.3 422.5h16.5c0-3.8-1.3-7.3-3.5-10.1l-13 10.1"/><path d="m442.3 422.5l13.1-10.1c-3-3.9-7.7-6.4-13.1-6.4-3.7 0-7.1 1.2-9.8 3.3l9.8 13.2"/></g><circle fill="#f04953" cx="438.5" cy="418.7" r="16.5"/><path fill="#79ba51" d="m438.5 418.7h16.5c0-3.8-1.3-7.3-3.5-10.1l-13 10.1"/><path fill="#79c6e1" d="m438.5 418.7l13.1-10.1c-3-3.9-7.7-6.4-13.1-6.4-3.7 0-7.1 1.2-9.8 3.3l9.8 13.2"/><circle fill="#fbb56b" cx="307" cy="352.8" r="81.2"/><g clip-path="url(#0)"><path fill="none" stroke="#fff" stroke-width="11.22" stroke-miterlimit="10" d="m220.5 382.6l41-41.1 45.2 41.1 56.2-50.6 35 34.7"/><g><path fill="#79ba51" d="m306.7 398.6c-8.8 0-16-7.2-16-16s7.2-16 16-16 16 7.2 16 16-7.2 16-16 16"/><path fill="#fff" d="m306.7 369.3c7.3 0 13.2 5.9 13.2 13.2 0 7.3-5.9 13.2-13.2 13.2-7.3 0-13.2-5.9-13.2-13.2 0-7.2 5.9-13.2 13.2-13.2m0-5.6c-10.4 0-18.9 8.5-18.9 18.9s8.5 18.9 18.9 18.9c10.4 0 18.9-8.5 18.9-18.9s-8.5-18.9-18.9-18.9z"/></g><g><path fill="#ef5359" d="m261.1 357.8c-9 0-16.3-7.3-16.3-16.3s7.3-16.3 16.3-16.3 16.3 7.3 16.3 16.3-7.4 16.3-16.3 16.3"/><path fill="#fff" d="m261.1 328.1c7.4 0 13.4 6 13.4 13.4s-6 13.4-13.4 13.4c-7.4 0-13.4-6-13.4-13.4s5.9-13.4 13.4-13.4m0-5.7c-10.6 0-19.1 8.6-19.1 19.1s8.6 19.1 19.1 19.1c10.6 0 19.1-8.6 19.1-19.1s-8.6-19.1-19.1-19.1z"/></g><g><path fill="#ef5359" d="m362.6 347.5c-8.5 0-15.5-6.9-15.5-15.5s6.9-15.5 15.5-15.5 15.5 6.9 15.5 15.5-6.9 15.5-15.5 15.5"/><path fill="#fff" d="m362.6 319.3c7 0 12.8 5.7 12.8 12.8s-5.7 12.8-12.8 12.8-12.8-5.7-12.8-12.8 5.8-12.8 12.8-12.8m0-5.5c-10 0-18.2 8.2-18.2 18.2s8.2 18.2 18.2 18.2 18.2-8.2 18.2-18.2-8.1-18.2-18.2-18.2z"/></g></g><circle fill="#79c6e1" cx="71.4" cy="318.1" r="71.4"/><g opacity=".1"><g fill="#010101"><circle cx="77.7" cy="328.4" r="43.1"/><circle cx="63.9" cy="323.9" r="6.5"/><circle cx="112.7" cy="302.5" r="6.5"/><circle cx="89.2" cy="355.6" r="6.5"/></g><g fill="none" stroke="#010101" stroke-width="1.334" stroke-miterlimit="10"><circle cx="77.7" cy="328.4" r="30.4"/><circle cx="77.7" cy="328.4" r="14.5"/></g><path fill="#010101" d="m77.7 328.4l12.5-55.5 15.6 5.5z"/></g><circle fill="#f04953" cx="68.4" cy="319.1" r="43.1"/><g fill="#fff"><circle cx="54.6" cy="314.5" r="6.5"/><circle cx="103.4" cy="293.1" r="6.5"/><circle cx="79.9" cy="346.3" r="6.5"/></g><g fill="none" stroke="#fff" stroke-width="1.334" stroke-miterlimit="10"><circle cx="68.4" cy="319.1" r="30.4"/><circle cx="68.4" cy="319.1" r="14.5"/></g><path fill="#fbb56b" d="m68.4 319.1l12.5-55.5 15.6 5.4z"/><g opacity=".1"><g fill="#010101"><path d="m187.8 186.3c0 1.1-.9 2-2 2h-37.8c-1.1 0-2-.9-2-2v-50.7c0-1.1.9-2 2-2h37.8c1.1 0 2 .9 2 2v50.7"/><circle cx="167" cy="136.2" r=".5"/><circle cx="167" cy="185.5" r="1.3"/></g><path fill="none" stroke="#010101" stroke-width=".273" stroke-miterlimit="10" d="m166.7 185.1h.7v.7h-.7z"/><g fill="#010101"><path fill-rule="evenodd" d="m150 137.3h34.5v46h-34.5z"/><path d="m181.3 160.9c0-1.6-1.3-2.9-2.9-2.9-.1 0-.3 0-.4 0 0-.1 0-.3 0-.5 0-1.5-1.2-2.7-2.7-2.7-.6 0-1.1.2-1.5.5-.2-2.5-2.3-4.5-4.9-4.5-2.6 0-4.7 2-4.9 4.6-.5-.3-1-.6-1.6-.6-1.5 0-2.7 1.2-2.7 2.7 0 .2 0 .3 0 .4-.1 0-.2 0-.3 0-1.6 0-2.9 1.3-2.9 2.9s1.3 2.9 2.9 2.9h19.5c1.3-.2 2.4-1.4 2.4-2.8"/><path d="m177.6 164.9c0-1.6-1.3-2.9-2.9-2.9-.1 0-.3 0-.4 0 0-.1 0-.3 0-.5 0-1.5-1.2-2.7-2.7-2.7-.6 0-1.1.2-1.5.5-.2-2.5-2.3-4.5-4.9-4.5-2.6 0-4.7 2-4.9 4.6-.5-.3-1-.6-1.6-.6-1.5 0-2.7 1.2-2.7 2.7 0 .2 0 .3 0 .4-.1 0-.2 0-.3 0-1.6 0-2.9 1.3-2.9 2.9 0 1.6 1.3 2.9 2.9 2.9h19.5c1.3-.2 2.4-1.4 2.4-2.8"/></g></g><path fill="#d8d9d8" d="m180.8 179.3c0 1.1-.9 2-2 2h-37.8c-1.1 0-2-.9-2-2v-50.7c0-1.1.9-2 2-2h37.8c1.1 0 2 .9 2 2v50.7"/><circle fill="#2e2f39" cx="160" cy="129.2" r=".5"/><circle fill="#c8c8c8" cx="160" cy="178.5" r="1.3"/><path fill="none" stroke="#fff" stroke-width=".273" stroke-miterlimit="10" d="m159.7 178.1h.7v.7h-.7z"/><path fill-rule="evenodd" fill="#fbb56b" d="m143 130.3h34.5v46h-34.5z"/><path fill="#e7e7e7" d="m174.3 153.9c0-1.6-1.3-2.9-2.9-2.9-.1 0-.3 0-.4 0 0-.1 0-.3 0-.5 0-1.5-1.2-2.7-2.7-2.7-.6 0-1.1.2-1.5.5-.2-2.5-2.3-4.5-4.9-4.5-2.6 0-4.7 2-4.9 4.6-.5-.3-1-.6-1.6-.6-1.5 0-2.7 1.2-2.7 2.7 0 .2 0 .3 0 .4-.1 0-.2 0-.3 0-1.6 0-2.9 1.3-2.9 2.9s1.3 2.9 2.9 2.9h19.5c1.3-.2 2.4-1.4 2.4-2.8"/><path fill="#fff" d="m170.6 157.9c0-1.6-1.3-2.9-2.9-2.9-.1 0-.3 0-.4 0 0-.1 0-.3 0-.5 0-1.5-1.2-2.7-2.7-2.7-.6 0-1.1.2-1.5.5-.2-2.5-2.3-4.5-4.9-4.5-2.6 0-4.7 2-4.9 4.6-.5-.3-1-.6-1.6-.6-1.5 0-2.7 1.2-2.7 2.7 0 .2 0 .3 0 .4-.1 0-.2 0-.3 0-1.6 0-2.9 1.3-2.9 2.9 0 1.6 1.3 2.9 2.9 2.9h19.5c1.3-.2 2.4-1.4 2.4-2.8"/></svg>