<svg xmlns="http://www.w3.org/2000/svg" viewBox="0 0 615.1 654.9" enable-background="new 0 0 615.1 654.9"><g stroke-dasharray="2 4" fill="none" stroke="#fff" stroke-width="2" stroke-miterlimit="10"><circle cx="307.4" cy="244" r="180.5"/><circle cx="193.6" cy="444.8" r="180.5"/><circle cx="433.6" cy="444.8" r="180.5"/></g><circle fill="#fbb56b" cx="126.9" cy="264.2" r="63.5"/><g opacity=".1" fill="#000101"><path d="m159.3 247.3h-50.3l-1.6 53.6h54z"/><path d="m151 250.3c-.5-4-3.3-20.6-16.6-20.6-13.3 0-16.9 16.6-17.6 20.5-.3.2-.5.6-.5.9 0 .7.6 1.2 1.2 1.2s1.2-.6 1.2-1.2c0-.2-.1-.5-.2-.7.6-3.6 3.9-19 15.8-19 11.8 0 14.3 15.3 14.8 18.9-.1.2-.2.4-.2.7 0 .7.6 1.2 1.2 1.2.7 0 1.2-.6 1.2-1.2.1-.1 0-.5-.3-.7"/><path d="m131.6 287.8c-1.1-.2-2.5-.7-3.1-1.1-1.4-.8-1.7-.9-2.4-1.5-2.8-2.2-4.5-5.1-5.1-8.5-.2-1-.1-4.1 0-5 .2-.8.8-2.7 1-3.1.1-.2.4-.7.6-1.1.4-.8 1.9-2.6 2.5-3.1.2-.2.7-.6 1-.9.3-.3.6-.5.6-.5 0 0 .3-.1.6-.3 1-.6 1.9-1 2.6-1.2.4-.1.9-.3 1.1-.3.6-.2 2-.4 3.4-.4 1.8 0 2.3.1 4.8.8.4.1 1.6.7 2.6 1.3.2.1.6.4.8.6.3.2.6.5.8.6.3.2.9.9 1.2 1.2.1.1.4.5.6.8 1.3 1.5 2.4 4.3 2.7 6.4.2 2 .1 4.1-.4 5.5-.2.5-.3 1-.3 1.2-.1.7-1.4 2.8-2.2 3.8-1 1.2-2.5 2.5-3.6 3.1-.4.2-.9.5-1.1.6-.4.2-2.8 1-3.1 1-.1 0-.3 0-.4.1-.5.3-4.5.2-5.2 0m2.4-.9c.1-.1.1-4.7-.1-4.8-.2-.2-5.5-.2-5.5 0 0 .1.1.4.3.8.8 1.5 2.2 3 3.5 3.6.6.3 1.7.5 1.8.4m1.2-.1h.4c1.2.1 3.5-1.9 4.5-3.8.1-.3.3-.5.3-.5 0 0 .1-.1.1-.2 0-.2-.1-.2-2.1-.2-1.1 0-2.3 0-2.6-.1-.5-.1-.6 0-.7.1 0 .1-.1 1.2 0 2.4l.1 2.3m-5.6-.8c0 0-.3-.5-.7-1s-1-1.4-1.2-1.9c-.3-.5-.5-1-.6-1.1-.1-.1-2.5-.2-2.6 0-.2.3 2.4 2.7 3.4 3.2.3.1.7.4.9.5.5.3.8.5.8.3m12.3-1.4c.7-.5 2.4-2.2 2.4-2.4 0-.1-.2-.1-1.1-.1-1.3 0-1.2-.1-1.8 1.1-.2.4-.7 1.1-1 1.6-.3.4-.6.8-.7.9-.4.4 1-.2 2.2-1.1m1.9-3.7c1.5 0 1.4 0 1.9-1 .8-1.5 1.4-4.6 1-4.9-.1 0-.8-.1-1.7-.1-1.2 0-1.5 0-1.6.1-.1.1-.1.5-.2 1.1-.1 1-.5 3.5-.8 4.2-.1.2-.1.4-.1.5.2 0 .7.1 1.5.1m-8.5 0h2.8c1.5 0 2.9 0 2.9-.1.4-.2.9-2.5 1.1-4.5.1-1 .1-1.2 0-1.3-.1 0-1.7-.1-3.5-.1h-3.4v2.7c0 1.6 0 2.8.1 3v.3m-7.4-.1h3 3l.1-.3c.1-.3 0-5.4-.1-5.5-.1-.1-6.9-.1-7 0-.4.2.4 4.8.9 5.6l.1.2m-2.8 0h1.4v-.3c0-.2-.1-.4-.1-.6-.2-.5-.5-2.3-.6-3.6-.1-.9-.1-1.2-.3-1.3-.2-.1-3.3-.2-3.5 0-.2.1 0 1.9.5 3.3.4 1.2.7 1.9 1.1 2.3.1.2.2.2 1.5.2m20-6.9c1.3 0 1.6 0 1.7-.1.2-.2.1-1.5-.1-2.2-.1-.2-.2-.8-.4-1.2-.3-.9-.6-1.6-.9-1.9-.2-.2-.3-.2-1.5-.2-1.4 0-1.5 0-1.3.4.2.4.7 3.1.8 4.1 0 .4.1.8.1.9 0 .1.2.1 1.6.2m-9.9-.2h3.5c3 0 3.5 0 3.5-.1.1-.2-.1-2.2-.4-3.3-.2-1.1-.5-1.9-.7-2-.1 0-1.4-.1-3-.1-2.2 0-2.9 0-3 .1 0 .1-.1 1.3 0 2.7l.1 2.7m-1.3-.1c0-.1.1-1.3 0-2.7v-2.6h-3.1-3.1l-.2.5c-.5 1.2-.9 4.6-.7 4.8.3.3 7 .2 7.1 0m-8.3 0c.1-.1.2-.5.2-1.2 0-.6.1-1.2.2-1.4.1-.2.2-.7.2-1.1.1-.4.2-.9.3-1.1.1-.3.1-.4.1-.4-.1-.1-2.7-.2-2.9-.1-.5.4-1.4 2.9-1.6 4.4-.1.8-.1.9 0 1 .2.1 3.3.1 3.5-.1m18.8-6.5c.1-.2-1.3-1.7-2.4-2.6-.7-.6-2.3-1.5-2.4-1.4 0 0 .2.5.6 1 .4.5.9 1.3 1.2 1.9.3.5.6 1 .7 1.1.2.2 2.3.2 2.3 0m-3.8 0c.2-.1-.6-1.5-1.3-2.4-.7-1-1.8-1.9-2.7-2.3-.8-.4-1.1-.5-1.4-.4l-.2.1v2.4c0 1.9 0 2.4.1 2.5.2.2 5.3.3 5.5.1m-9.5.1c2.2 0 2.7 0 2.8-.1.1-.1.1-.8 0-2.5-.1-2.2-.1-2.4-.2-2.4-.3-.1-.5 0-1.4.4-.9.4-1.9 1.2-2.6 2.2-.6.8-1.4 2.2-1.3 2.3 0 0 1.2.1 2.7.1m-4.2-.1c.1 0 .4-.5.7-1.1.3-.6.8-1.4 1.1-1.8.6-.7 1-1.3.8-1.3 0 0-.2.1-.4.2s-.6.3-1 .5c-.7.4-1.1.7-2.1 1.5-.7.6-1.8 1.9-1.7 2 .1.1 2.3.1 2.6 0"/></g><path fill="#ef5359" d="m152.3 240.3h-50.3l-1.6 53.6h54z"/><path fill="#010101" d="m144 243.3c-.5-4-3.3-20.6-16.6-20.6-13.3 0-16.9 16.6-17.6 20.5-.3.2-.5.6-.5.9 0 .7.6 1.2 1.2 1.2s1.2-.6 1.2-1.2c0-.2-.1-.5-.2-.7.6-3.6 3.9-19 15.8-19 11.8 0 14.3 15.3 14.8 18.9-.1.2-.2.4-.2.7 0 .7.6 1.2 1.2 1.2.7 0 1.2-.6 1.2-1.2.1-.1 0-.5-.3-.7"/><path fill="#fff" d="m124.6 280.8c-1.1-.2-2.5-.7-3.1-1.1-1.4-.8-1.7-.9-2.4-1.5-2.8-2.2-4.5-5.1-5.1-8.5-.2-1-.1-4.1 0-5 .2-.8.8-2.7 1-3.1.1-.2.4-.7.6-1.1.4-.8 1.9-2.6 2.5-3.1.2-.2.7-.6 1-.9.3-.3.6-.5.6-.5 0 0 .3-.1.6-.3 1-.6 1.9-1 2.6-1.2.4-.1.9-.3 1.1-.3.6-.2 2-.4 3.4-.4 1.8 0 2.3.1 4.8.8.4.1 1.6.7 2.6 1.3.2.1.6.4.8.6.3.2.6.5.8.6.3.2.9.9 1.2 1.2.1.1.4.5.6.8 1.3 1.5 2.4 4.3 2.7 6.4.2 2 .1 4.1-.4 5.5-.2.5-.3 1-.3 1.2-.1.7-1.4 2.8-2.2 3.8-1 1.2-2.5 2.5-3.6 3.1-.4.2-.9.5-1.1.6-.4.2-2.8 1-3.1 1-.1 0-.3 0-.4.1-.5.3-4.5.2-5.2 0m2.4-.9c.1-.1.1-4.7-.1-4.8-.2-.2-5.5-.2-5.5 0 0 .1.1.4.3.8.8 1.5 2.2 3 3.5 3.6.6.3 1.7.5 1.8.4m1.2-.1h.4c1.2.1 3.5-1.9 4.5-3.8.1-.3.3-.5.3-.5 0 0 .1-.1.1-.2 0-.2-.1-.2-2.1-.2-1.1 0-2.3 0-2.6-.1-.5-.1-.6 0-.7.1 0 .1-.1 1.2 0 2.4l.1 2.3m-5.6-.8c0 0-.3-.5-.7-1-.4-.5-1-1.4-1.2-1.9-.3-.5-.5-1-.6-1.1-.1-.1-2.5-.2-2.6 0-.2.3 2.4 2.7 3.4 3.2.3.1.7.4.9.5.5.3.8.5.8.3m12.3-1.4c.7-.5 2.4-2.2 2.4-2.4 0-.1-.2-.1-1.1-.1-1.3 0-1.2-.1-1.8 1.1-.2.4-.7 1.1-1 1.6-.3.4-.6.8-.7.9-.4.4 1-.2 2.2-1.1m1.9-3.7c1.5 0 1.4 0 1.9-1 .8-1.5 1.4-4.6 1-4.9-.1 0-.8-.1-1.7-.1-1.2 0-1.5 0-1.6.1-.1.1-.1.5-.2 1.1-.1 1-.5 3.5-.8 4.2-.1.2-.1.4-.1.5.2 0 .7.1 1.5.1m-8.5 0h2.8c1.5 0 2.9 0 2.9-.1.4-.2.9-2.5 1.1-4.5.1-1 .1-1.2 0-1.3-.1 0-1.7-.1-3.5-.1h-3.4v2.7c0 1.6 0 2.8.1 3v.3m-7.4-.1h3 3l.1-.3c.1-.3 0-5.4-.1-5.5-.1-.1-6.9-.1-7 0-.4.2.4 4.8.9 5.6l.1.2m-2.8 0h1.4v-.3c0-.2-.1-.4-.1-.6-.2-.5-.5-2.3-.6-3.6-.1-.9-.1-1.2-.3-1.3-.2-.1-3.3-.2-3.5 0-.2.1 0 1.9.5 3.3.4 1.2.7 1.9 1.1 2.3.1.2.2.2 1.5.2m20-6.9c1.3 0 1.6 0 1.7-.1.2-.2.1-1.5-.1-2.2-.1-.2-.2-.8-.4-1.2-.3-.9-.6-1.6-.9-1.9-.2-.2-.3-.2-1.5-.2-1.4 0-1.5 0-1.3.4.2.4.7 3.1.8 4.1 0 .4.1.8.1.9 0 .1.2.1 1.6.2m-9.9-.2h3.5c3 0 3.5 0 3.5-.1.1-.2-.1-2.2-.4-3.3-.2-1.1-.5-1.9-.7-2-.1 0-1.4-.1-3-.1-2.2 0-2.9 0-3 .1 0 .1-.1 1.3 0 2.7l.1 2.7m-1.3-.1c0-.1.1-1.3 0-2.7v-2.6h-3.1-3.1l-.2.5c-.5 1.2-.9 4.6-.7 4.8.3.3 7 .2 7.1 0m-8.3 0c.1-.1.2-.5.2-1.2 0-.6.1-1.2.2-1.4.1-.2.2-.7.2-1.1.1-.4.2-.9.3-1.1.1-.3.1-.4.1-.4-.1-.1-2.7-.2-2.9-.1-.5.4-1.4 2.9-1.6 4.4-.1.8-.1.9 0 1 .2.1 3.3.1 3.5-.1m18.8-6.5c.1-.2-1.3-1.7-2.4-2.6-.7-.6-2.3-1.5-2.4-1.4 0 0 .2.5.6 1 .4.5.9 1.3 1.2 1.9.3.5.6 1 .7 1.1.2.2 2.3.2 2.3 0m-3.8 0c.2-.1-.6-1.5-1.3-2.4-.7-1-1.8-1.9-2.7-2.3-.8-.4-1.1-.5-1.4-.4l-.2.1v2.4c0 1.9 0 2.4.1 2.5.2.2 5.3.3 5.5.1m-9.5.1c2.2 0 2.7 0 2.8-.1.1-.1.1-.8 0-2.5-.1-2.2-.1-2.4-.2-2.4-.3-.1-.5 0-1.4.4-.9.4-1.9 1.2-2.6 2.2-.6.8-1.4 2.2-1.3 2.3 0 0 1.2.1 2.7.1m-4.2-.1c.1 0 .4-.5.7-1.1.3-.6.8-1.4 1.1-1.8.6-.7 1-1.3.8-1.3 0 0-.2.1-.4.2s-.6.3-1 .5c-.7.4-1.1.7-2.1 1.5-.7.6-1.8 1.9-1.7 2 .1.1 2.3.1 2.6 0"/><circle fill="#79ba51" cx="306.8" cy="63.5" r="63.5"/><g opacity=".1" fill="#010101"><path d="m302.2 73.1h17.9v16.3h-17.9z"/><path d="m327.5 61.8c0-9-7.3-16.3-16.3-16.3-9 0-16.3 7.3-16.3 16.3 0 3 .9 5.9 2.3 8.3 7.9 13.7 4.9 18 4.9 18v1.3h18.7c-2.9-12.2 3.9-19.3 4.4-19.3 1.4-2.4 2.3-5.3 2.3-8.3"/><path d="m300.6 91.5h21.1v4.6h-21.1z"/><path d="m304.9 98.3h12.6v4.6h-12.6z"/><path d="m309 26.9h3.7v12.4h-3.7z"/><path d="m333.8 60.5h12.4v3.7h-12.4z"/><path d="m275.4 60.5h12.4v3.7h-12.4z"/><path transform="matrix(.7071.7071-.7071.7071 126.55-222.19)" d="m329.6 35.5h3.7v12.4h-3.7z"/><path transform="matrix(.7071.7071-.7071.7071 143.66-180.89)" d="m288.3 76.8h3.7v12.4h-3.7z"/><path transform="matrix(-.7071.7071-.7071-.7071 624.55-92.75)" d="m329.6 76.8h3.7v12.4h-3.7z"/><path transform="matrix(-.7071.7071-.7071-.7071 524.83-134.06)" d="m288.3 35.5h3.7v12.4h-3.7z"/></g><path fill="#d9d8d8" d="m298.2 69.1h17.9v16.3h-17.9z"/><path fill="#fbb56b" d="m323.5 57.8c0-9-7.3-16.3-16.3-16.3-9 0-16.3 7.3-16.3 16.3 0 3 .9 5.9 2.3 8.3 7.9 13.7 4.9 18 4.9 18v1.3h18.7c-2.9-12.2 3.9-19.3 4.4-19.3 1.4-2.4 2.3-5.3 2.3-8.3"/><g fill="#d9d8d8"><path d="m296.6 87.5h21.1v4.6h-21.1z"/><path d="m300.9 94.3h12.6v4.6h-12.6z"/></g><g fill="#fbb56b"><path d="m305 22.9h3.7v12.4h-3.7z"/><path d="m329.8 56.5h12.4v3.7h-12.4z"/><path d="m271.4 56.5h12.4v3.7h-12.4z"/><path transform="matrix(.7071.7071-.7071.7071 122.55-220.54)" d="m325.6 31.5h3.7v12.4h-3.7z"/><path transform="matrix(.7071.7071-.7071.7071 139.66-179.23)" d="m284.3 72.8h3.7v12.4h-3.7z"/><path transform="matrix(-.7071.7071-.7071-.7071 614.89-96.75)" d="m325.6 72.8h3.7v12.4h-3.7z"/><path transform="matrix(-.7071.7071-.7071-.7071 515.17-138.06)" d="m284.3 31.5h3.7v12.4h-3.7z"/></g><circle fill="#79ba51" cx="306.8" cy="591.5" r="63.5"/><circle fill="#ef5359" cx="487.9" cy="254.8" r="63.5"/><g opacity=".1"><path fill="none" stroke="#010101" stroke-width="4" stroke-linecap="round" stroke-linejoin="round" stroke-miterlimit="10" d="m478.7 289.5l17.1-42.4 16.4 42.4"/><g fill="#010101"><path d="m469 231.3h53.6v39.1h-53.6z"/><path d="m499.5 242.8h5.9v20h-5.9z"/><path d="m505.4 247.1h5.9v15.7h-5.9z"/><path d="m511.3 236.7h5.9v26.1h-5.9z"/><circle cx="483.2" cy="252.1" r="10.1"/><path d="m483.2 252.1h10.1c0-2.3-.8-4.5-2.1-6.2l-8 6.2"/><path d="m483.2 252.1l8-6.2c-1.8-2.4-4.7-3.9-8-3.9-2.2 0-4.3.7-6 2l6 8.1"/></g></g><path fill="none" stroke="#cbcbcb" stroke-width="4" stroke-linecap="round" stroke-linejoin="round" stroke-miterlimit="10" d="m471.7 282.5l17.1-42.4 16.4 42.4"/><path fill="#fff" d="m462 224.3h53.6v39.1h-53.6z"/><path fill="#f04953" d="m492.5 235.8h5.9v20h-5.9z"/><path fill="#79ba51" d="m498.4 240.1h5.9v15.7h-5.9z"/><path fill="#79c6e1" d="m504.3 229.7h5.9v26.1h-5.9z"/><circle fill="#fbb56b" cx="476.2" cy="245.1" r="10.1"/><path fill="#79ba51" d="m476.2 245.1h10.1c0-2.3-.8-4.5-2.1-6.2l-8 6.2"/><path fill="#79c6e1" d="m476.2 245.1l8-6.2c-1.8-2.4-4.7-3.9-8-3.9-2.2 0-4.3.7-6 2l6 8.1"/><circle fill="#fbb56b" cx="551.4" cy="570" r="63.5"/><g opacity=".1" fill="#010101"><path d="m526.8 553.5h30.1v26.9h-30.1z"/><path d="m523.9 574.6h-3.7c-3.7 0-3.7-15.2 0-15.2h3.7v15.2"/><path d="m532.7 580.5h20l-3.2 2.9.2 20h-7.8z"/><path d="m549.5 588.2h3.1v6.3h-3.1z"/><path d="m522.4 557.8h4.4v18.3h-4.4z"/><path d="m594.6 591.9l-37.6-13.2v-23.1l37.6-13.3z"/><path d="m542.5 585.7h7.1v2.5h-7.1z"/><path d="m542.5 590.7h7.1v2.5h-7.1z"/><path d="m542.5 596.1h7.1v2.5h-7.1z"/><path d="m583 587.8l8.6 3.1v-47.5l-8.6 3z"/><path d="m591.6 590.9l3 1v-49.6l-3 1.1z"/></g><g fill="#f04953"><path d="m522.2 548.9h30.1v26.9h-30.1z"/><path d="m519.2 570h-3.7c-3.7 0-3.7-15.2 0-15.2h3.7v15.2"/></g><path fill="#fff" d="m528.1 575.8h19.9l-3.2 3 .3 19.9h-7.8z"/><path fill="#f04953" d="m544.9 583.5h3.1v6.3h-3.1z"/><g fill="#fff"><path d="m517.7 553.2h4.4v18.3h-4.4z"/><path d="m590 587.3l-37.7-13.3v-23.1l37.7-13.2z"/></g><g fill="#b3b5b8"><path d="m537.8 581.1h7.1v2.5h-7.1z"/><path d="m537.8 586h7.1v2.5h-7.1z"/><path d="m537.8 591.5h7.1v2.5h-7.1z"/><path d="m578.4 583.2l8.6 3v-47.5l-8.6 3.1z"/></g><path fill="#f04953" d="m587 586.2l3 1.1v-49.6l-3 1z"/><path fill="#ef5359" d="M126.9,570c2.6,34.9-28.4,63.5-63.5,63.5S0,605,0,570c0-35,28.5-60.8,63.5-63.5
			C96.7,504,124,530.9,126.9,570z"/><g opacity=".1" fill="#010101"><path d="m44.9 568.5h52.4v5.8h-52.4z"/><path d="m95.3 560v27.5h-48.5v-35.1h40.8z"/><path d="m87.6 553.8l-1.6 8 7.5-1.8z"/><path d="m87.6 552.4l7.7 7.6h-7.7z"/><path d="m71.1 584.5l-26.2-16v32z"/><path d="m71.1 584.5l26.2-16v32z"/><path d="m71 584.5l-23.1 16h46.5z"/><path d="m46.5 569.4l24.6 13.1 23.3-12.3-23.4 14.3z"/><path d="m71.1 584.5l-26.2 16h3.1z"/><path d="m71.1 584.5l26.2 16h-3.1z"/></g><path fill="#0f3051" d="m37.9 561.5h52.4v5.8h-52.4z"/><path fill="#ededee" d="m88.3 553v27.5h-48.5v-35.1h40.8z"/><path fill="#d2d3d3" d="m80.6 546.8l-1.6 8 7.5-1.8z"/><g fill="#369ed8"><path d="m80.6 545.4l7.7 7.6h-7.7z"/><path d="m64.1 577.5l-26.2-16v32z"/></g><path fill="#1e7091" d="m64.1 577.5l26.2-16v32z"/><path fill="#298dc1" d="m64 577.5l-23.1 16h46.5z"/><path fill="#d2d3d3" d="m39.5 562.4l24.6 13.1 23.3-12.3-23.4 14.3z"/><g fill="#0f3051"><path d="m64.1 577.5l-26.2 16h3.1z"/><path d="m64.1 577.5l26.2 16h-3.1z"/></g><circle fill="#ef5359" cx="313.1" cy="272.9" r="100.2"/><text transform="translate(234.71 285.7)" fill="#fff" font-family="&apos;Gotham-Light&apos;" font-size="41.02">GOALS</text><circle fill="#79c6e1" cx="403.5" cy="415.8" r="100.2"/><text transform="translate(328.14 428.65)" fill="#fff" font-family="&apos;Gotham-Light&apos;" font-size="29.09">INDUSTRY</text><circle fill="#fbb56b" cx="223.7" cy="415.8" r="100.2"/><text transform="translate(155.11 407.02)"><tspan x="0" y="0" fill="#fff" font-family="&apos;Gotham-Light&apos;" font-size="31.725">TARGET</tspan><tspan x="0" y="38.1" fill="#fff" font-family="&apos;Gotham-Light&apos;" font-size="31.725">MARKET</tspan></text><g opacity=".1" fill="#010101"><path d="m341.7 616.6c0 1.1-.9 2-2 2h-57.4c-1.1 0-2-.9-2-2v-42.2c0-1.1.9-2 2-2h57.4c1.1 0 2 .9 2 2v42.2"/><path d="m280.3 580v-5.6c0-1.1.9-2 2-2h57.4c1.1 0 2 .9 2 2v5.6h-61.4"/><circle cx="287.5" cy="576.2" r="2.2"/><circle cx="295.1" cy="576.2" r="2.2"/><circle cx="302.8" cy="576.2" r="2.2"/><path d="m293.9 588.7h35v16.6h-35z"/><path d="m293.9 583.2h7.9v2.7h-7.9z"/><path d="m302.9 583.2h7.9v2.7h-7.9z"/><path d="m312.1 583.2h7.9v2.7h-7.9z"/><path d="m321 583.2h7.9v2.7h-7.9z"/><path d="m293.9 607.9h9.9v6.3h-9.9z"/><path d="m306.5 607.9h9.9v6.3h-9.9z"/><path d="m319.1 607.9h9.9v6.3h-9.9z"/></g><path fill="#fffffb" d="m334.7 609.6c0 1.1-.9 2-2 2h-57.4c-1.1 0-2-.9-2-2v-42.2c0-1.1.9-2 2-2h57.4c1.1 0 2 .9 2 2v42.2"/><path fill="#cbcbcb" d="m273.3 573v-5.6c0-1.1.9-2 2-2h57.4c1.1 0 2 .9 2 2v5.6h-61.4"/><circle fill="#f04953" cx="280.5" cy="569.2" r="2.2"/><circle fill="#fbb56b" cx="288.1" cy="569.2" r="2.2"/><circle fill="#79ba51" cx="295.8" cy="569.2" r="2.2"/><path fill="#f04953" d="m286.9 581.7h35v16.6h-35z"/><g fill="#fbb56b"><path d="m286.9 576.2h7.9v2.7h-7.9z"/><path d="m295.9 576.2h7.9v2.7h-7.9z"/><path d="m305.1 576.2h7.9v2.7h-7.9z"/><path d="m314 576.2h7.9v2.7h-7.9z"/></g><g fill="#79ba51"><path d="m286.9 600.9h9.9v6.3h-9.9z"/><path d="m299.5 600.9h9.9v6.3h-9.9z"/><path d="m312.1 600.9h9.9v6.3h-9.9z"/></g></svg>