<?xml version="1.0" encoding="utf-8"?>
<!-- Generator: Adobe Illustrator 18.0.0, SVG Export Plug-In . SVG Version: 6.00 Build 0)  -->
<!DOCTYPE svg PUBLIC "-//W3C//DTD SVG 1.1//EN" "http://www.w3.org/Graphics/SVG/1.1/DTD/svg11.dtd">
<svg version="1.1" id="Layer_1" xmlns="http://www.w3.org/2000/svg" xmlns:xlink="http://www.w3.org/1999/xlink" x="0px" y="0px"
	 width="612px" height="792px" viewBox="0 0 612 792" style="enable-background:new 0 0 612 792;" xml:space="preserve">
<style type="text/css">
	.st0{fill:none;stroke:#231F20;stroke-width:1.7898;stroke-miterlimit:10;stroke-dasharray:1.7898,3.5797;}
	.st1{fill:#79BBBF;}
	.st2{fill:#6BABB2;}
	.st3{fill:#8DB93F;}
	.st4{fill:#303030;}
	.st5{fill:#808B90;}
	.st6{fill:#00AAEB;}
	.st7{fill:#231F20;}
	.st8{fill:#0E3656;}
	.st9{fill:#0073BA;}
	.st10{fill:none;}
	.st11{clip-path:url(#SVGID_2_);}
	.st12{fill:#BA514C;}
	.st13{fill:#FFFFFF;}
	.st14{fill:#9AD9F6;}
	.st15{fill:#0084AD;}
	.st16{opacity:0.1;}
	.st17{fill:#46C7EB;}
	.st18{fill:#4AB1BA;}
	.st19{fill:#47BAD2;}
	.st20{fill:#009FE0;}
	.st21{fill:#26A6DD;}
	.st22{fill:#5E9AA5;}
	.st23{fill:#C3E5E1;}
	.st24{fill:#06709C;}
	.st25{fill:#9BBEC2;}
	.st26{fill:#F5D112;}
</style>
<g>
	<circle class="st0" cx="170.7" cy="313.8" r="119.6"/>
	<circle class="st0" cx="387.6" cy="531.2" r="119.6"/>
	<circle class="st0" cx="124.9" cy="490.9" r="119.6"/>
	<g>
		<path class="st1" d="M65.9,430.6c0,88.4,71.6,160,160,160v-320C137.6,270.6,65.9,342.2,65.9,430.6z"/>
		<path class="st2" d="M225.9,270.6v320c88.4,0,160-71.6,160-160C385.9,342.2,314.3,270.6,225.9,270.6z"/>
	</g>
	<circle class="st3" cx="225.9" cy="430.6" r="160"/>
	<polygon class="st4" points="182.7,408.2 207.5,500.9 308.5,507 267.1,352.4 	"/>
	<polygon class="st5" points="309.3,324.6 267.1,352.4 308.5,507 359,510 	"/>
	<path class="st6" d="M309.3,324.6l4.1,15.5l12.4,46.4l4.1,15.5l8.3,30.9l4.1,15.5l12.4,46.4L359,510c4.3-1.1,6.8-5.5,5.7-9.8
		l-2.1-7.7l-12.4-46.4l-4.1-15.5l-8.3-30.9l-4.1-15.5l-12.4-46.4l-2.1-7.7C318,325.9,313.6,323.4,309.3,324.6z"/>
	<circle class="st7" cx="116.9" cy="533.5" r="8"/>
	<circle class="st7" cx="178.7" cy="516.9" r="8"/>
	<polygon class="st8" points="64.3,522.7 60.1,507.3 44.7,511.4 	"/>
	
		<rect x="55.7" y="457.8" transform="matrix(0.9659 -0.2588 0.2588 0.9659 -124.5993 33.1888)" class="st4" width="16" height="64"/>
	
		<rect x="42.3" y="493.5" transform="matrix(0.9659 -0.2588 0.2588 0.9659 -128.0892 30.1141)" class="st8" width="16" height="16.1"/>
	
		<rect x="116.8" y="525.1" transform="matrix(-0.9659 0.2588 -0.2588 -0.9659 429.4864 1001.6146)" class="st7" width="64" height="8"/>
	<path class="st8" d="M64.3,522.7C55.8,525,47,520,44.7,511.4c-2.3-8.5,2.8-17.3,11.3-19.6L64.3,522.7z"/>
	<g>
		<path class="st6" d="M182.7,408.2c-1.1-4.2-5.5-6.8-9.8-5.7l-108.2,29c-4.2,1.1-6.8,5.5-5.7,9.8l12.4,46.4l123.6-33.1L182.7,408.2
			z"/>
		<path class="st9" d="M71.5,487.7l12.4,46.4c1.1,4.2,5.5,6.8,9.8,5.7l108.2-29c4.2-1.1,6.8-5.5,5.7-9.8l-12.4-46.4L71.5,487.7z"/>
	</g>
	<path class="st10" d="M128.7,546.9c-0.1,0-0.2,0.1-0.3,0.1l31.6-8.5c-0.1,0-0.3,0.1-0.4,0.1L128.7,546.9z"/>
	<g>
		<defs>
			<path id="SVGID_1_" d="M65.9,430.6c0,88.4,71.6,160,160,160v-320C137.6,270.6,65.9,342.2,65.9,430.6z"/>
		</defs>
		<clipPath id="SVGID_2_">
			<use xlink:href="#SVGID_1_"  style="overflow:visible;"/>
		</clipPath>
		<g class="st11">
			<g>
				
					<rect x="182.5" y="545.6" transform="matrix(-0.2588 -0.9659 0.9659 -0.2588 -297.468 879.0179)" class="st9" width="12" height="16"/>
				<circle class="st9" cx="190.1" cy="559.4" r="8"/>
				<circle class="st9" cx="187" cy="547.8" r="8"/>
			</g>
			<path class="st4" d="M176.9,525.7l-54.1,14.5l-3.9,1l2.4,3.2l0,0l15.9,21.3l2.3,3.1l0,0l28.6,38.2c1.3,1.8,4.1,2.7,6.3,2.2
				l23.2-6.2c2.1-0.6,3.4-2.8,2.8-4.9l-9.3-34.8l-8.3-30.9l-1-3.9l-1-3.9L176.9,525.7z"/>
			<path class="st12" d="M181.9,590.6c-1.1-4.3-5.5-6.8-9.8-5.7l-17,4.6l10.3,13.8l10.8-2.9C180.5,599.3,183,594.9,181.9,590.6z"/>
			<path class="st7" d="M175.7,567.4c-1.1-4.3-5.5-6.8-9.8-5.7l-26.3,7l10.3,13.8l20.1-5.4C174.3,576.1,176.8,571.7,175.7,567.4z"/>
			<path class="st7" d="M159.6,538.6l-30.9,8.3c-0.1,0-0.2,0.1-0.3,0.1l-4.4,1.2l0.8,1.1c0.2-0.3,0.5-0.5,0.8-0.7
				c-0.3,0.2-0.5,0.5-0.8,0.7l9.5,12.7l29.4-7.9c4.3-1.1,6.8-5.5,5.7-9.8C168.3,540,163.9,537.5,159.6,538.6z M126.5,547.9
				C126.5,547.9,126.5,547.9,126.5,547.9C126.5,547.9,126.5,547.9,126.5,547.9z"/>
		</g>
	</g>
	<g>
		<path class="st13" d="M281.8,364.9c-1.3,0-2.6-0.6-3.3-1.8c-1.2-1.8-0.7-4.3,1.1-5.5l17.6-11.6c1.8-1.2,4.3-0.7,5.5,1.1
			c1.2,1.8,0.7,4.3-1.1,5.5L284,364.3C283.3,364.7,282.6,364.9,281.8,364.9z"/>
	</g>
	<g>
		<path class="st13" d="M200.9,418.4c-1.3,0-2.6-0.6-3.3-1.8c-1.2-1.8-0.7-4.3,1.1-5.5l60.4-39.9c1.8-1.2,4.3-0.7,5.5,1.1
			c1.2,1.8,0.7,4.3-1.1,5.5l-60.4,39.9C202.4,418.1,201.7,418.4,200.9,418.4z"/>
	</g>
	<g>
		<path class="st14" d="M347.7,363.9c-1.3,0-2.6-0.6-3.3-1.8c-1.2-1.8-0.7-4.3,1.1-5.5l60.4-39.9c1.8-1.2,4.3-0.7,5.5,1.1
			c1.2,1.8,0.7,4.3-1.1,5.5l-60.4,39.9C349.2,363.7,348.5,363.9,347.7,363.9z"/>
	</g>
	<g>
		<path class="st14" d="M444.1,479.3c-0.2,0-0.3,0-0.5,0l-71.8-9.4c-2.2-0.3-3.7-2.3-3.4-4.5c0.3-2.2,2.3-3.7,4.5-3.4l71.8,9.4
			c2.2,0.3,3.7,2.3,3.4,4.5C447.8,477.8,446,479.3,444.1,479.3z"/>
	</g>
	<g>
		<circle class="st15" cx="368.2" cy="254.6" r="48"/>
		<g>
			<g class="st16">
				<polygon points="360.2,250 395.3,257.2 368.5,280.9 				"/>
			</g>
			<g>
				<polygon class="st3" points="352.5,242.3 387.6,249.4 360.8,273.2 				"/>
			</g>
		</g>
	</g>
	<g>
		<path class="st14" d="M377.9,412.6c-1.8,0-3.5-1.3-3.9-3.1c-0.5-2.2,0.9-4.3,3-4.8l89-20c2.2-0.5,4.3,0.9,4.8,3
			c0.5,2.2-0.9,4.3-3,4.8l-89,20C378.5,412.6,378.2,412.6,377.9,412.6z"/>
	</g>
	<g>
		
			<rect x="384.2" y="153.5" transform="matrix(0.7071 -0.7071 0.7071 0.7071 -0.5213 338.3337)" class="st17" width="48" height="32.7"/>
		<polygon class="st18" points="436.7,164.4 408.2,169.8 402.7,198.3 		"/>
		<polygon class="st19" points="379.6,175.2 411,172.6 413.6,141.3 		"/>
	</g>
	<g>
		<circle class="st20" cx="273.9" cy="280.8" r="32"/>
		<polygon class="st20" points="284.2,303.9 272,326.1 261.6,303 273.9,280.8 		"/>
	</g>
	<g>
		<g>
			
				<rect x="263.6" y="258.2" transform="matrix(0.6756 0.7373 -0.7373 0.6756 286.8604 -107.4939)" class="st13" width="4" height="28"/>
		</g>
		<g>
			
				<rect x="279.8" y="275.9" transform="matrix(0.6756 0.7373 -0.7373 0.6756 305.1677 -113.7061)" class="st13" width="4" height="28"/>
		</g>
		<g>
			
				<rect x="271.7" y="267.1" transform="matrix(0.6755 0.7373 -0.7373 0.6755 296.0213 -110.5993)" class="st13" width="4" height="28"/>
		</g>
	</g>
	<circle class="st21" cx="513.9" cy="445" r="40"/>
	<circle class="st8" cx="401.4" cy="511.4" r="13.9"/>
	<circle class="st22" cx="422.4" cy="366.6" r="18.4"/>
	<circle class="st22" cx="297.5" cy="221.8" r="7.6"/>
	<circle class="st23" cx="240.1" cy="331.3" r="9"/>
	<circle class="st23" cx="521.9" cy="248.8" r="5.4"/>
	<circle class="st23" cx="411.6" cy="437" r="11.8"/>
	<circle class="st23" cx="549.6" cy="503.4" r="5.1"/>
	<circle class="st14" cx="449.9" cy="418.8" r="6.9"/>
	<g>
		<path class="st4" d="M503.6,356.3c-1.1,1.9-0.4,4.4,1.5,5.5l20.8,12c1.9,1.1,4.4,0.4,5.5-1.5l4-6.9c1.1-1.9,0.4-4.4-1.5-5.5
			l-20.8-12c-1.9-1.1-4.4-0.4-5.5,1.5L503.6,356.3z"/>
		<g>
			<polygon class="st8" points="583.5,250 583,258.9 576,254.9 			"/>
			<polygon class="st23" points="583,258.9 581.4,285.7 553.6,269.7 576,254.9 			"/>
		</g>
		<rect x="504.7" y="319.2" transform="matrix(0.5 -0.866 0.866 0.5 -4.7194 640.9821)" class="st6" width="96" height="10.7"/>
		<rect x="495.5" y="313.9" transform="matrix(0.5 -0.866 0.866 0.5 -4.7201 630.3143)" class="st15" width="96" height="10.7"/>
		
			<rect x="528.9" y="265.9" transform="matrix(-0.866 -0.5001 0.5001 -0.866 839.9704 852.92)" class="st6" width="10.7" height="96"/>
	</g>
	<circle class="st22" cx="538.3" cy="542.5" r="14.1"/>
	<circle class="st23" cx="592.7" cy="429.7" r="14"/>
	<circle class="st24" cx="465" cy="295.4" r="40"/>
	<g>
		<polygon class="st23" points="423.4,198.6 435.9,245 446.4,238 434,191.6 		"/>
		<polygon class="st25" points="434,191.6 446.4,238 459,238.7 446.6,192.4 		"/>
		<polygon class="st23" points="446.6,192.4 459,238.7 469.6,231.8 457.2,185.4 		"/>
		<polygon class="st25" points="469.6,231.8 482.2,232.5 469.8,186.2 457.2,185.4 		"/>
	</g>
	<g>
		<path class="st8" d="M591.9,374.1c2.3-8.5-2.7-17.3-11.2-19.7c-8.5-2.3-17.3,2.7-19.7,11.2c-4.2,15.4,2.8,50.5,2.8,50.5
			S587.6,389.5,591.9,374.1z M568.3,368.7c1.2-4.3,5.6-6.8,9.8-5.6c4.3,1.2,6.8,5.6,5.6,9.8c-1.2,4.3-5.6,6.8-9.8,5.6
			C569.6,377.3,567.1,372.9,568.3,368.7z"/>
		<circle class="st13" cx="576" cy="370.8" r="8"/>
	</g>
	<g>
		<g class="st16">
			<polygon points="480.4,291.7 478,292.6 475.3,290.2 472,291.6 470,289.8 467.6,312.9 466.8,312.8 471.2,313.6 475.5,314.4 
				474.8,314.2 			"/>
			<path d="M462.2,306.8c1.1,1.3,1.7,3.8,1.4,5.4l2.5,0.4l2.7-26l3.5,3.1l3.4-1.4l2.7,2.4l4.3-1.7l-6.4,25.4l2.5,0.4
				c0.3-1.7,1.7-3.7,3.2-4.6c0,0,9.6-5.8,10.9-13.1c1.8-10.1-4.9-19.7-15-21.4c-10.1-1.8-19.7,4.9-21.4,15
				C455.1,298.1,462.2,306.8,462.2,306.8z"/>
			<path d="M476.3,314.5L476.3,314.5l-0.8-0.1l-4.4-0.8l-4.4-0.8l-0.8-0.1l0-0.1l-2.5-0.4l-0.6,3.6l-0.3,1.5l-0.2,1l-0.3,1.5l-0.2,1
				l-0.3,1.5l-0.2,1l-0.3,1.5l-0.1,0.5l-0.1,0.3l0,0c-0.1,1.5,1,3,2.5,3.2l1.6,0.3l5.9,1l1.6,0.3c1.6,0.3,3.1-0.7,3.5-2.2l0,0
				l0.1-0.3l0.1-0.5l0.3-1.5l0.2-1l0.3-1.5l0.2-1l0.3-1.5l0.2-1l0.3-1.5l0.6-3.6L476.3,314.5z"/>
			<polygon points="466.8,312.8 467.6,312.9 470,289.8 472,291.6 475.3,290.2 478,292.6 480.4,291.7 474.8,314.2 475.5,314.4 
				476.3,314.5 476.3,314.5 482.7,289.1 478.3,290.8 475.6,288.4 472.3,289.8 468.8,286.6 466.1,312.7 466.1,312.7 			"/>
		</g>
		<g>
			<g>
				<polygon class="st13" points="472.7,283.9 470.3,284.9 467.6,282.5 464.2,283.8 462.3,282.1 459.9,305.2 459.1,305.1 
					463.5,305.9 467.8,306.6 467.1,306.5 				"/>
				<path class="st13" d="M454.5,299.1c1.1,1.3,1.7,3.8,1.4,5.4l2.5,0.4l2.7-26l3.5,3.1l3.4-1.4l2.7,2.4l4.3-1.7l-6.4,25.4l2.5,0.4
					c0.3-1.7,1.7-3.7,3.2-4.6c0,0,9.6-5.8,10.9-13.1c1.8-10.1-4.9-19.7-15-21.4c-10.1-1.8-19.7,4.9-21.4,15
					C447.4,290.4,454.5,299.1,454.5,299.1z"/>
				<path class="st8" d="M468.6,306.8L468.6,306.8l-0.8-0.1l-4.4-0.8l-4.4-0.8l-0.8-0.1l0-0.1l-2.5-0.4l-0.6,3.6l-0.3,1.5l-0.2,1
					l-0.3,1.5l-0.2,1l-0.3,1.5l-0.2,1l-0.3,1.5l-0.1,0.5l-0.1,0.3l0,0c-0.1,1.5,1,3,2.5,3.2l1.6,0.3l5.9,1l1.6,0.3
					c1.6,0.3,3.1-0.7,3.5-2.2l0,0l0.1-0.3l0.1-0.5l0.3-1.5l0.2-1l0.3-1.5l0.2-1l0.3-1.5l0.2-1l0.3-1.5l0.6-3.6L468.6,306.8z"/>
				<polygon class="st26" points="459.1,305.1 459.9,305.2 462.3,282.1 464.2,283.8 467.6,282.5 470.3,284.9 472.7,283.9 
					467.1,306.5 467.8,306.6 468.6,306.8 468.6,306.8 475,281.4 470.6,283.1 467.9,280.7 464.6,282.1 461.1,278.9 458.4,305 
					458.4,305 				"/>
			</g>
		</g>
	</g>
	<g>
		<g class="st16">
			<path d="M519.2,426.4v-1.6c0-0.7-0.6-1.2-1.2-1.2c-0.7,0-1.2,0.6-1.2,1.2v1.6H495v6.4h45.9v-6.4H519.2z M519.2,426.4"/>
			<path d="M498.7,460.3h16.9v8h-6.1v-1.1h-2.3v8.5h2.3v-4.2h17.1v4.2h2.3v-8.5h-2.3v1.1h-6.3v-8h16.9v-25.6h-38.5V460.3z
				 M523.4,442.4h11.1v2.5h-11.1V442.4z M523.4,447.1h11.1v2.5h-11.1V447.1z M523.3,452.1h11.1v2.5h-11.1V452.1z M512.2,438.4
				c4.4,0,8,3.6,8,8h-8V438.4z M509.9,440.6v8h8c0,4.4-3.6,8-8,8c-4.4,0-8-3.6-8-8C501.9,444.2,505.5,440.6,509.9,440.6L509.9,440.6
				z M509.9,440.6"/>
		</g>
		<g>
			<g>
				<path class="st13" d="M516.2,423.4v-1.6c0-0.7-0.6-1.2-1.2-1.2c-0.7,0-1.2,0.6-1.2,1.2v1.6H492v6.4h45.9v-6.4H516.2z
					 M516.2,423.4"/>
				<path class="st13" d="M495.7,457.3h16.9v8h-6.1v-1.1h-2.3v8.5h2.3v-4.2h17.1v4.2h2.3v-8.5h-2.3v1.1h-6.3v-8h16.9v-25.6h-38.5
					V457.3z M520.4,439.4h11.1v2.5h-11.1V439.4z M520.4,444.1h11.1v2.5h-11.1V444.1z M520.3,449.1h11.1v2.5h-11.1V449.1z
					 M509.2,435.4c4.4,0,8,3.6,8,8h-8V435.4z M506.9,437.6v8h8c0,4.4-3.6,8-8,8c-4.4,0-8-3.6-8-8
					C498.9,441.2,502.5,437.6,506.9,437.6L506.9,437.6z M506.9,437.6"/>
			</g>
		</g>
	</g>
</g>
</svg>
