<svg xmlns="http://www.w3.org/2000/svg" xmlns:xlink="http://www.w3.org/1999/xlink" viewBox="0 0 596.8 562.3" enable-background="new 0 0 596.8 562.3"><defs><path id="2" d="m228.4 254.3h138.2v213.3h-138.2z"/><circle id="1" cx="297.5" cy="397.3" r="165"/><clipPath><use xlink:href="#2"/></clipPath><clipPath id="0"><use xlink:href="#1"/></clipPath></defs><g stroke-dasharray="1.7898 3.5797" fill="none" stroke="#231f20" stroke-width="1.79" stroke-miterlimit="10"><circle cx="177.4" cy="273.7" r="119.6"/><circle cx="297.9" cy="156.4" r="119.6"/><circle cx="415.8" cy="266.6" r="119.6"/></g><circle fill="#fff" cx="297.5" cy="397.3" r="165"/><use xlink:href="#1" fill="#79c6e1"/><path clip-path="url(#0)" fill="#f4d9b2" d="m220.7 433.3c-5.8-4.9 26-45.8 4.6-67.4 0 0-16.2-10.7-21.4 2.3 0 0-18.7 50.5-17.2 62.4 1.6 12 27.1 82.7 26.5 101.5v37.5h97.8v-19.8l72.3-55.7-17.2-22.9-145.4-37.9"/><g fill="#eabc81"><path d="m374.3 374.6l30.6-31.5-33.8 18.7z"/><path d="m379.5 424.8l33.6-36.3-42 25.2 2.9 15.9z"/><path d="m372.6 462.2c0 0 .2 11 1.7 12.2s27.1-14.4 27.1-14.4 7.4-11.9 6.6-21.4c-.7-9.5-35.4 23.6-35.4 23.6"/></g><g fill="#212120"><path d="m349.3 222c0 1.4-1.1 2.5-2.5 2.5h-13.2c-1.4 0-2.5-1.1-2.5-2.5 0-1.4 1.1-2.5 2.5-2.5h13.2c1.4 0 2.5 1.1 2.5 2.5"/><path d="m221.5 262.9c-1.4 0-2.5-1.1-2.5-2.5v-8.2c0-1.4 1.1-2.5 2.5-2.5 1.4 0 2.5 1.1 2.5 2.5v8.2c0 1.4-1.1 2.5-2.5 2.5"/><path d="m221.5 279.4c-1.4 0-2.5-1.1-2.5-2.5v-6.4c0-1.4 1.1-2.5 2.5-2.5 1.4 0 2.5 1.1 2.5 2.5v6.4c0 1.4-1.1 2.5-2.5 2.5"/><path d="m221.5 292.6c-1.4 0-2.5-1.1-2.5-2.5v-6.4c0-1.4 1.1-2.5 2.5-2.5 1.4 0 2.5 1.1 2.5 2.5v6.4c0 1.4-1.1 2.5-2.5 2.5"/></g><path fill="#30302f" d="m373.4 489.5c0 8.1-6.5 14.6-14.6 14.6h-122.7c-8.1 0-14.6-6.5-14.6-14.6v-252.9c0-8.1 6.5-14.6 14.6-14.6h122.7c8.1 0 14.6 6.5 14.6 14.6v252.9"/><circle fill="#212120" cx="297.5" cy="484.9" r="10.6"/><path fill="none" stroke="#30302f" stroke-width="1.036" stroke-miterlimit="10" d="m302.3 487.6c0 1.2-1 2.1-2.1 2.1h-5.4c-1.2 0-2.1-1-2.1-2.1v-5.4c0-1.2 1-2.1 2.1-2.1h5.4c1.2 0 2.1 1 2.1 2.1v5.4z"/><g fill="#212120"><path d="m311.2 241.4c0 .8-.6 1.4-1.4 1.4h-24.7c-.8 0-1.4-.6-1.4-1.4 0-.8.6-1.4 1.4-1.4h24.7c.8 0 1.4.6 1.4 1.4"/><path d="m306.1 235.4c0 .8-.6 1.4-1.4 1.4h-14.6c-.8 0-1.4-.6-1.4-1.4 0-.8.6-1.4 1.4-1.4h14.6c.8.1 1.4.7 1.4 1.4"/><path d="m278.8 241.4c0 1.4-1.1 2.5-2.5 2.5-1.4 0-2.5-1.1-2.5-2.5 0-1.4 1.1-2.5 2.5-2.5 1.3-.1 2.5 1.1 2.5 2.5"/></g><use xlink:href="#2" fill="#faaf42"/><path fill="#ef5359" d="m295.6 373.7l-30-31c0 0-4.9-11.9 3.8-19.5 8.7-7.7 22.7-3.5 26.2 4.9 0 0 15.3-18.8 29-2.4 7.7 9.8.3 19.5.3 19.5l-29.3 28.5"/><path fill="#f4d9b2" d="m394.7 456.5c-14.3 9.2-36.4 24.5-39.9 26.7-4.7 3-10 6.4-1.9 19.1 8.1 12.7 16 6.4 16 6.4l41.5-27.6c.8-12.3-4.5-20.5-15.7-24.6"/><path fill="#f4e4cc" d="m359.9 483.5c7.5-4.8 16.3-4.4 19.7.9 3.4 5.3.1 13.5-7.3 18.3-7.5 4.8-13.8 8.2-19.7-.9-5.9-9.2-.2-13.5 7.3-18.3"/><path fill="#f4d9b2" d="m397 407.2c-14.3 9.2-36.3 24.6-39.8 26.9-4.7 3-10 6.4-.3 21.5 9.7 15 17.4 8.6 17.4 8.6l41.5-27.7c-.3-14-6.6-23.7-18.8-29.3"/><path fill="#f4e4cc" d="m362.6 434.8c7.5-4.8 16.8-3.6 20.8 2.7 4.1 6.3 1.3 15.3-6.2 20.1-7.5 4.8-13.9 8.1-20.8-2.7s-1.2-15.3 6.2-20.1"/><path fill="#f4d9b2" d="m397 357.5c-14.3 9.2-36.3 24.6-39.8 26.9-4.7 3-10 6.4-.3 21.5 9.7 15 17.4 8.6 17.4 8.6l41.5-27.7c-.3-14-6.6-23.7-18.8-29.3"/><path fill="#f4e4cc" d="m362.6 385.1c7.5-4.8 16.8-3.6 20.8 2.7 4.1 6.3 1.3 15.3-6.2 20.1s-13.9 8.1-20.8-2.7c-6.9-10.9-1.2-15.3 6.2-20.1"/><path fill="#f4d9b2" d="m387.1 313.2c-14.3 9.2-24.6 17.8-28.1 20.1-4.7 3-10 6.4-.3 21.5 9.7 15 17.4 8.6 17.4 8.6l29.8-20.9c-.3-14-6.6-23.7-18.8-29.3"/><path fill="#f4e4cc" d="m364.4 334c7.5-4.8 16.8-3.6 20.8 2.7 4.1 6.3 1.3 15.3-6.2 20.1-7.5 4.8-13.9 8.1-20.8-2.7-7-10.8-1.3-15.3 6.2-20.1"/><path fill="#f4d9b2" d="m220.7 433.3c-5.8-4.9 26-45.8 4.6-67.4 0 0-16.2-10.7-21.4 2.3 0 0-18.7 50.5-17.2 62.4 1.6 12 27.1 82.7 26.5 101.5l7.5-98.8"/><path fill="#2ba9e0" d="m94.5 156.8c-36.4 0-66 29.5-66 66 0 36.4 29.5 66 66 66 36.4 0 66-29.5 66-66 0-36.4-29.6-66-66-66"/><path fill="#fff" d="m120.7 209.3c0 .6 0 1.2 0 1.7 0 17.9-13.6 38.5-38.5 38.5-7.6 0-14.8-2.2-20.7-6.1 1.1.1 2.1.2 3.2.2 6.3 0 12.2-2.2 16.8-5.8-5.9-.1-10.9-4-12.6-9.4.8.2 1.7.2 2.5.2 1.2 0 2.4-.2 3.6-.5-6.2-1.2-10.9-6.7-10.9-13.3 0-.1 0-.1 0-.2 1.8 1 3.9 1.6 6.1 1.7-3.6-2.4-6-6.6-6-11.3 0-2.5.7-4.8 1.8-6.8 6.7 8.2 16.6 13.6 27.9 14.1-.2-1-.4-2-.4-3.1 0-7.5 6.1-13.5 13.5-13.5 3.9 0 7.4 1.6 9.9 4.3 3.1-.6 6-1.7 8.6-3.3-1 3.2-3.2 5.8-6 7.5 2.7-.3 5.3-1.1 7.8-2.1-1.6 2.9-3.9 5.3-6.6 7.2"/><path fill="#ef5025" d="m554.6 158.4c-22.9 0-41.4 18.5-41.4 41.4 0 22.9 18.5 41.4 41.4 41.4 22.9 0 41.4-18.5 41.4-41.4.1-22.9-18.5-41.4-41.4-41.4"/><g fill="#fff"><path d="m554.6 191.1c-1.2 0-2.2 1-2.2 2.2v13.2c-.1 5.1-4.2 9.1-9.3 9.1-5.1 0-9.3-4.1-9.3-9.3 0-.1 0-5.7 0-5.7h7.1v5.7c0 1.2 1 2.2 2.2 2.2 1.2 0 2.2-1 2.2-2.2v-13.4c.2-5 4.2-8.9 9.2-8.9 5 0 9.1 4 9.2 9v2.9l-4.2 1.3-2.8-1.3v-2.5c.1-1.3-.9-2.3-2.1-2.3"/><path d="m575.3 206.3c0 5.1-4.1 9.3-9.3 9.3-5.1 0-9.2-4.1-9.3-9.2v-5.8l2.8 1.3 4.2-1.3v5.8c0 1.2 1 2.2 2.2 2.2 1.2 0 2.2-1 2.2-2.2v-5.9h7.1c.1.1.1 5.8.1 5.8"/></g><g fill="#79ba51"><path d="m488.9 190.5c-2.6-.1-4.4 2.6-3.9 6 .5 3.5 3 5.9 5.6 5.9 2.6.1 4.1-2.1 3.7-5.6-.5-3.4-2.8-6.2-5.4-6.3"/><path d="m490 209.5c-3.9 0-7.2 2.5-7.2 5.4 0 3 2.8 5.5 6.7 5.5 5.5 0 7.4-2.3 7.4-5.3 0-.4 0-.7-.1-1.1-.4-1.7-2.1-2.6-4.3-4.1-.8-.2-1.6-.4-2.5-.4"/><path d="m495.6 172.4c-18.3 0-33.1 14.8-33.1 33.1 0 18.3 14.8 33.1 33.1 33.1 18.3 0 33.1-14.8 33.1-33.1 0-18.3-14.8-33.1-33.1-33.1m2.5 24.3c0 2.2-1.2 3.9-2.9 5.2-1.6 1.3-2 1.8-2 2.9 0 .9 2 2.3 2.9 3 3.1 2.4 3.8 3.9 3.8 6.8 0 3.7-4 7.4-10.4 7.4-5.7 0-10.5-2.3-10.5-6 0-3.7 4-7.6 9.6-7.6.6 0 1.2 0 1.8 0-.8-.8-1.4-1.4-1.4-2.5 0-.7.2-1.3.5-1.9-.3 0-.6 0-.9 0-4.7 0-7.4-3.3-7.4-7.4 0-4 4.1-7.7 9.1-7.7 2.6 0 9.8 0 9.8 0l-2.2 2.3h-2.6c1.9 1 2.8 3.2 2.8 5.5m14-.6h-4.5v4.5h-2.3v-4.5h-4.5v-2.3h4.5v-4.5h2.3v4.5h4.5v2.3"/></g><path fill="#cb2128" d="m408.1 36.8c-19.7 0-35.6 15.9-35.6 35.6 0 19.7 15.9 35.6 35.6 35.6 19.7 0 35.6-15.9 35.6-35.6 0-19.7-15.9-35.6-35.6-35.6m3.7 43.5c-2.2 0-4.3-1.2-5-2.5 0 0-1.2 4.7-1.4 5.6-.9 3.2-3.5 6.4-3.7 6.7-.1.2-.5.1-.5-.1-.1-.4-.7-4.5.1-7.8.4-1.7 2.6-11.1 2.6-11.1s-.7-1.3-.7-3.2c0-3 1.8-5.3 3.9-5.3 1.9 0 2.8 1.4 2.8 3.1 0 1.9-1.2 4.7-1.8 7.3-.5 2.2 1.1 3.9 3.2 3.9 3.9 0 6.5-5 6.5-10.9 0-4.5-3-7.8-8.5-7.8-6.2 0-10.1 4.6-10.1 9.8 0 1.8.5 3 1.3 4 .4.4.4.6.3 1.1-.1.4-.3 1.3-.4 1.6-.1.5-.6.7-1 .5-2.9-1.2-4.2-4.3-4.2-7.8 0-5.8 4.9-12.8 14.6-12.8 7.8 0 12.9 5.6 12.9 11.7.1 8-4.3 14-10.9 14"/><circle fill="#eb378e" cx="28.6" cy="258.7" r="28.6"/><g fill="#fff"><circle cx="20.6" cy="258.7" r="6.3"/><circle cx="36.5" cy="258.7" r="6.3"/></g><path fill="#37609f" d="m297.5 0c-50 0-90.5 40.5-90.5 90.5 0 50 40.5 90.5 90.5 90.5 50 0 90.5-40.5 90.5-90.5 0-50-40.6-90.5-90.5-90.5m19.4 90.5h-12.7c0 20.3 0 45.2 0 45.2h-18.8c0 0 0-24.7 0-45.2h-8.9v-16h8.9v-10.3c0-7.4 3.5-19 19-19l13.9.1v15.5c0 0-8.5 0-10.1 0-1.6 0-4 .8-4 4.4v9.4h14.3l-1.6 15.9"/><path fill="#c93f27" d="m62.1 271.7c-26.9 0-48.8 21.8-48.8 48.8 0 27 21.8 48.8 48.8 48.8 27 0 48.8-21.8 48.8-48.8 0-27-21.8-48.8-48.8-48.8"/><g fill="#fff"><path d="m47.7 300.9c.5-.8 1.4-1.1 1.4-1.1l9.6-3.6c.4-.1.8-.5 2.3.4.9.6 1.1 2.6 1.1 2.6l.1 16.5c0 0-.2 2-1.6 2.3-1.3.3-2.2-.7-2.2-.7l-10-13.6c.1 0-1.4-1.7-.7-2.8"/><path d="m42.7 329.1c-.4-.7-.3-2.1-.3-2.1l.7-8.3c0-.5.6-1.1 1.1-1.5.7-.4 2.3.2 2.3.2l10.3 5.2c0 0 1.6.8 1.5 2 0 1.7-.9 1.7-1.3 2l-12.1 2.7c0 0-1.7.7-2.2-.2"/><path d="m61.3 344.8c-.7.2-1.7 0-1.7 0l-8.1-2.6c-.6-.3-1-.7-1.2-1.4-.3-.8.8-2.2.8-2.2l8.1-8.9c0 0 1.2-1.1 2.3-.6.9.5 1 1.6 1 1.6l-.2 12c-.2.1 0 1.8-1 2.1"/><path d="m66.2 320l6.5-10.3c0 0 .7-1.3 1.8-1.2 1 .1 1.5.9 1.5.9l5.5 6.5c0 0 .5 1 .3 1.9-.2.9-1.8 1.5-1.8 1.5l-11.6 3.4c0 0-1.6.3-2.2-.7-.6-.9 0-2 0-2"/><path d="m81.4 333.5l-4.9 7c0 0-.9.7-1.8.7-.9 0-1.9-1.4-1.9-1.4l-6.2-10.3c0 0-.7-1.5.1-2.3.8-.8 1.9-.5 1.9-.5l11.6 3.7c0 0 1.7.3 1.6 1.4.1.8-.4 1.7-.4 1.7"/></g><g fill="#086d9b"><path d="m189.3 55.1c-.1 0-.1 0 0 0"/><path d="m186.6 14.4c-24.3 0-43.9 19.7-43.9 43.9 0 24.3 19.7 43.9 43.9 43.9 24.3 0 43.9-19.7 43.9-43.9.1-24.2-19.6-43.9-43.9-43.9"/></g><g fill="#fff"><path d="m165.2 51h9.4v28.3h-9.4z"/><path d="m169.9 47.2c-3.2 0-5.3-2.2-5.3-4.9 0-2.8 2.1-4.9 5.3-4.9 3.2 0 5.2 2.1 5.3 4.9.1 2.7-2 4.9-5.3 4.9"/><path d="m208.6 79.4h-9.4v-15.2c0-3.8-1.4-6.4-4.8-6.4-2.6 0-4.2 1.8-4.8 3.4-.2.6-.3 1.4-.3 2.3v15.8h-9.4c0 0 .1-25.7 0-28.3h9.4v4c1.3-1.9 3.5-4.7 8.5-4.7 6.2 0 10.8 4 10.8 12.7v16.4"/></g><path fill="#ed3638" d="m529.9 223c-37 0-67 30-67 67 0 37 30 67 67 67 37 0 67-30 67-67-.1-37.1-30.1-67-67-67"/><g fill="#fff"><path d="m537.9 263.8h3.8v14.3c0 .4.1.8.2 1 .2.2.4.3.8.3.3 0 .6-.1 1.1-.4.4-.3.8-.6 1.2-1v-14.2h3.8v18.7h-3.8v-2.1c-.7.8-1.4 1.3-2.2 1.7-.8.4-1.5.6-2.2.6-.9 0-1.5-.3-2-.8-.4-.5-.7-1.4-.7-2.5v-15.6"/><path d="m523.8 268.1c0-1.4.5-2.6 1.5-3.4 1-.9 2.4-1.3 4.1-1.3 1.6 0 2.9.4 3.9 1.3 1 .9 1.5 2.1 1.5 3.5v9.6c0 1.6-.5 2.8-1.5 3.8-1 .9-2.4 1.4-4.1 1.4-1.7 0-3-.5-4-1.4-1-.9-1.5-2.2-1.5-3.8v-9.7z"/><path d="m513.4 257.2l2.8 10.1h.3l2.6-10.1h4.4l-5 14.8v10.5h-4.3v-10l-5.1-15.3z"/><path d="m563.3 310.4c0 6.8-5.5 12.2-12.2 12.2h-42.5c-6.8 0-12.2-5.5-12.2-12.2v-9.8c0-6.8 5.5-12.2 12.2-12.2h42.5c6.8 0 12.2 5.5 12.2 12.2v9.8"/></g><g fill="#ed3638"><path d="m547.9 298.3c-1.5 0-2.7.5-3.7 1.4s-1.4 2.1-1.4 3.6v7.6c0 1.6.4 2.9 1.3 3.8.9.9 2.1 1.4 3.6 1.4 1.7 0 3-.4 3.8-1.3.9-.9 1.3-2.2 1.3-3.9v-.9h-3.5v.8c0 1-.1 1.6-.3 1.9-.2.3-.6.4-1.2.4-.5 0-.9-.2-1.1-.5-.2-.4-.3-1-.3-1.9v-3.2h6.5v-4.3c0-1.6-.4-2.8-1.3-3.7-.9-.8-2.1-1.2-3.7-1.2m1.4 6.7h-3v-1.7c0-.7.1-1.2.4-1.5.2-.3.6-.5 1.2-.5.5 0 .9.2 1.1.5.2.3.4.8.4 1.5v1.7z"/><path d="m529.3 279.7c.5 0 .9-.1 1.2-.4.3-.3.5-.7.5-1.2v-10.2c0-.4-.2-.7-.5-1-.3-.3-.7-.4-1.2-.4-.5 0-.8.1-1.1.4-.3.3-.4.6-.4 1v10.2c0 .5.1.9.4 1.2.2.3.6.4 1.1.4"/><path d="m537.7 298.5c-.5 0-1 .1-1.6.4-.5.3-1 .7-1.5 1.2v-7.4h-3.4v23h3.4v-1.3c.4.5.9.9 1.5 1.1.5.3 1.1.4 1.8.4 1 0 1.8-.3 2.3-1 .5-.6.8-1.6.8-2.8v-9.4c0-1.4-.3-2.4-.8-3.2-.6-.6-1.4-1-2.5-1m-.2 13.2c0 .5-.1.9-.3 1.2-.2.2-.5.4-.9.4-.3 0-.6-.1-.8-.2-.3-.1-.5-.3-.8-.6v-10.6c.2-.2.5-.4.7-.5.2-.1.5-.2.7-.2.5 0 .8.1 1.1.4.2.3.4.7.4 1.3v8.8z"/><path d="m505.8 296h4v19.7h3.8v-19.7h3.9v-3.3h-11.7z"/><path d="m525.3 311.6c-.3.4-.7.7-1.1.9-.4.2-.7.4-.9.4-.3 0-.5-.1-.7-.3-.1-.2-.2-.5-.2-.9v-13h-3.4v14.2c0 1 .2 1.8.6 2.3.4.5 1 .8 1.8.8.6 0 1.3-.2 2-.5.7-.4 1.3-.9 2-1.6v1.9h3.4v-17h-3.4v12.8z"/></g></svg>