<?xml version="1.0" encoding="utf-8"?>
<!-- Generator: Adobe Illustrator 18.0.0, SVG Export Plug-In . SVG Version: 6.00 Build 0)  -->
<!DOCTYPE svg PUBLIC "-//W3C//DTD SVG 1.1//EN" "http://www.w3.org/Graphics/SVG/1.1/DTD/svg11.dtd">
<svg version="1.1" id="Layer_1" xmlns="http://www.w3.org/2000/svg" xmlns:xlink="http://www.w3.org/1999/xlink" x="0px" y="0px"
	 width="754px" height="792px" viewBox="-71 0 754 792" style="enable-background:new -71 0 754 792;" xml:space="preserve">
<style type="text/css">
	.st0{opacity:0.3;}
	.st1{fill:none;stroke:#FFFFFF;stroke-width:2;stroke-miterlimit:10;stroke-dasharray:2.0061,4.0122;}
	.st2{fill:none;stroke:#FFFFFF;stroke-width:2;stroke-miterlimit:10;stroke-dasharray:2,4;}
	.st3{fill:#FBCA61;}
	.st4{fill:#EDEDED;}
	.st5{fill:#DBDBDB;}
	.st6{fill:#404040;}
	.st7{fill:#FFFFFF;}
	.st8{fill:#63698A;}
	.st9{fill:#8891BF;}
	.st10{fill:#5DD0DC;}
	.st11{fill:#DA6E27;}
	.st12{opacity:0.1;}
	.st13{fill:#F0553A;}
	.st14{fill:#C2C2C2;}
	.st15{fill:#EAD57D;}
	.st16{fill:#8DB93F;}
	.st17{fill:#545454;}
</style>
<g>
	<g class="st0">
		
			<image style="overflow:visible;" width="410" height="92" xlink:href="636FBC4C0456E02B.png"  transform="matrix(1 0 0 1 129 535)">
		</image>
	</g>
	<g>
		<circle class="st1" cx="472.6" cy="283.1" r="131.2"/>
	</g>
	<g>
		<circle class="st1" cx="133.9" cy="479.4" r="131.2"/>
	</g>
	<rect x="76.4" y="167.1" class="st2" width="320.7" height="224.4"/>
	<rect x="301.5" y="395.6" class="st2" width="320.7" height="224.4"/>
	<g>
		<g>
			<g>
				<path class="st3" d="M133.9,459.5v45.1c0,8.3,6.8,15,15,15H510c8.3,0,15-6.8,15-15v-45.1H133.9z"/>
			</g>
			<g>
				<polygon class="st4" points="389.7,579.8 269.3,579.8 284.4,489.5 374.6,489.5 				"/>
			</g>
			<g>
				<rect x="254.3" y="572.3" class="st5" width="150.4" height="7.5"/>
			</g>
			<g>
				<g>
					<path class="st6" d="M510,233.8H149c-8.3,0-15,6.8-15,15v210.6h391.1V248.8C525.1,240.6,518.3,233.8,510,233.8L510,233.8z"/>
				</g>
				<g>
					<polygon class="st7" points="510,248.8 510,444.4 149,444.4 149,248.8 510,248.8 					"/>
				</g>
				<g>
					<path class="st5" d="M133.9,459.5v45.1c0,8.3,6.8,15,15,15H510c8.3,0,15-6.8,15-15v-45.1H133.9z"/>
				</g>
			</g>
			<g>
				<path class="st6" d="M337,489.5c0,4.2-3.4,7.5-7.5,7.5c-4.2,0-7.5-3.4-7.5-7.5c0-4.2,3.4-7.5,7.5-7.5
					C333.6,482,337,485.4,337,489.5z"/>
			</g>
		</g>
		<g>
			<g>
				<polygon class="st7" points="510,248.8 510,444.4 149,444.4 149,248.8 510,248.8 				"/>
			</g>
		</g>
		<g>
			<g>
				<rect x="156.5" y="256.4" class="st8" width="168.3" height="97.8"/>
			</g>
			<g>
				<rect x="334.2" y="256.4" class="st9" width="168.3" height="97.8"/>
			</g>
			<g>
				<rect x="149" y="369.2" class="st4" width="361.1" height="75.2"/>
			</g>
			<g>
				<g>
					<g>
						<rect x="156.5" y="359.8" class="st6" width="15" height="3.8"/>
					</g>
				</g>
				<g>
					<g>
						<rect x="179" y="359.8" class="st6" width="15" height="3.8"/>
					</g>
				</g>
				<g>
					<g>
						<rect x="201.6" y="359.8" class="st6" width="15" height="3.8"/>
					</g>
				</g>
				<g>
					<g>
						<rect x="246.7" y="359.8" class="st6" width="15" height="3.8"/>
					</g>
				</g>
				<g>
					<g>
						<rect x="306.9" y="359.8" class="st6" width="17.9" height="3.8"/>
					</g>
				</g>
				<g>
					<g>
						<rect x="334.2" y="359.8" class="st6" width="17.9" height="3.8"/>
					</g>
				</g>
				<g>
					<g>
						<rect x="359.6" y="359.8" class="st6" width="15" height="3.8"/>
					</g>
				</g>
				<g>
					<g>
						<rect x="382.1" y="359.8" class="st6" width="15" height="3.8"/>
					</g>
				</g>
				<g>
					<g>
						<rect x="457.4" y="359.8" class="st6" width="15" height="3.8"/>
					</g>
				</g>
				<g>
					<g>
						<rect x="487.4" y="359.8" class="st6" width="15" height="3.8"/>
					</g>
				</g>
			</g>
			<g>
				<g>
					<g>
						<rect x="156.5" y="376.7" class="st8" width="105.3" height="15"/>
					</g>
				</g>
				<g>
					<g>
						<rect x="261.8" y="391.8" class="st9" width="45.1" height="15"/>
					</g>
				</g>
				<g>
					<g>
						<rect x="306.9" y="406.8" class="st8" width="90.3" height="15"/>
					</g>
				</g>
				<g>
					<g>
						<rect x="397.2" y="421.8" class="st9" width="105.3" height="15"/>
					</g>
				</g>
			</g>
		</g>
	</g>
	<g>
		<path class="st10" d="M676.4,573.6c0,55.3-44.8,100-100,100c-55.3,0-100-44.8-100-100c0-55.3,44.8-100,100-100
			C631.6,473.6,676.4,518.4,676.4,573.6z"/>
	</g>
	<g>
		<path class="st11" d="M84.1,479.4c0,41-33.2,74.3-74.3,74.3c-41,0-74.3-33.2-74.3-74.3c0-41,33.3-74.3,74.3-74.3
			C50.9,405.1,84.1,438.3,84.1,479.4z"/>
	</g>
	<g>
		<g class="st12">
			<rect x="528.5" y="526.8" width="118.6" height="106"/>
			<rect x="533.6" y="582.3" width="15.1" height="2.5"/>
			<rect x="533.6" y="531.8" width="15.1" height="2.5"/>
			<rect x="568.9" y="531.8" width="15.1" height="2.5"/>
			<rect x="604.2" y="531.8" width="15.1" height="2.5"/>
			<rect x="568.9" y="582.3" width="15.1" height="2.5"/>
			<rect x="604.2" y="582.3" width="15.1" height="2.5"/>
			<path d="M563.2,537.5v24h-29v-24H563.2L563.2,537.5z M563.9,536.9h-30.3v25.2h30.3V536.9L563.9,536.9z"/>
			<path d="M598.6,537.5v24h-29v-24H598.6L598.6,537.5z M599.2,536.9h-30.3v25.2h30.3V536.9L599.2,536.9z"/>
			<path d="M633.9,537.5v24h-29v-24H633.9L633.9,537.5z M634.5,536.9h-30.3v25.2h30.3V536.9L634.5,536.9z"/>
			<path d="M563.2,588v24h-29v-24H563.2L563.2,588z M563.9,587.4h-30.3v25.2h30.3V587.4L563.9,587.4z"/>
			<path d="M598.6,588v24h-29v-24H598.6L598.6,588z M599.2,587.4h-30.3v25.2h30.3V587.4L599.2,587.4z"/>
			<path d="M633.9,588v24h-29v-24H633.9L633.9,588z M634.5,587.4h-30.3v25.2h30.3V587.4L634.5,587.4z"/>
			<rect x="533.6" y="571.9" width="30.3" height="0.6"/>
			<rect x="533.6" y="566.9" width="30.3" height="0.6"/>
			<rect x="533.6" y="569.4" width="30.3" height="0.6"/>
			<rect x="568.9" y="571.9" width="30.3" height="0.6"/>
			<rect x="568.9" y="566.9" width="30.3" height="0.6"/>
			<rect x="568.9" y="569.4" width="30.3" height="0.6"/>
			<rect x="604.2" y="571.9" width="30.3" height="0.6"/>
			<rect x="604.2" y="566.9" width="30.3" height="0.6"/>
			<rect x="604.2" y="569.4" width="30.3" height="0.6"/>
			<rect x="533.6" y="622.4" width="30.3" height="0.6"/>
			<rect x="533.6" y="617.3" width="30.3" height="0.6"/>
			<rect x="533.6" y="619.8" width="30.3" height="0.6"/>
			<rect x="568.9" y="622.4" width="30.3" height="0.6"/>
			<rect x="568.9" y="617.3" width="30.3" height="0.6"/>
			<rect x="568.9" y="619.8" width="30.3" height="0.6"/>
			<rect x="604.2" y="622.4" width="30.3" height="0.6"/>
			<rect x="604.2" y="617.3" width="30.3" height="0.6"/>
			<rect x="604.2" y="619.8" width="30.3" height="0.6"/>
			<rect x="533.6" y="624.9" width="30.3" height="0.6"/>
			<rect x="568.9" y="624.9" width="30.3" height="0.6"/>
			<rect x="604.2" y="624.9" width="30.3" height="0.6"/>
			<rect x="533.6" y="574.4" width="30.3" height="0.6"/>
			<rect x="568.9" y="574.4" width="30.3" height="0.6"/>
			<rect x="604.2" y="574.4" width="30.3" height="0.6"/>
			<path d="M592.1,586.3c-8.9,1-20.1,3-24.3,12.1c-3.7,7.9,2.8,15.5,10.9,16c9.5,0.5,23.1-5.3,23.6-16.4c0.4-9-10.1-11.2-17.1-8
				c-0.7,0.3-0.1,1.3,0.6,1c3.3-1.5,6.7-1.4,10.2-0.6c6.7,1.6,5.7,8.9,3.3,13.5c-4.4,8.3-18,11.2-25.9,7.7
				c-7.8-3.5-6.1-12.4-1.4-17.1c5-5.1,13.5-6.3,20.2-7.1C592.8,587.4,592.8,586.2,592.1,586.3L592.1,586.3z"/>
			<path d="M608.1,564.7c8.1-10,15.3-20.7,24.3-30c0.5-0.5-0.3-1.3-0.8-0.8c-9,9.3-16.2,20-24.3,30
				C606.9,564.5,607.6,565.3,608.1,564.7L608.1,564.7z"/>
			<path d="M610.2,536.2c6.1,9.6,11.5,19.7,18.1,29c0.4,0.6,1.4,0,1-0.6c-6.7-9.3-12-19.4-18.1-29
				C610.8,535,609.8,535.6,610.2,536.2L610.2,536.2z"/>
			<path d="M552.4,569.2c2.8-0.1,5.4-0.8,8.2-0.3c1.9,0.4,3.6,0.3,5.5,0c0.7-0.1,0.4-1.2-0.3-1.1c-2.4,0.4-4.6,0-7-0.3
				c-2.1-0.2-4.4,0.5-6.4,0.6C551.6,568,551.6,569.2,552.4,569.2L552.4,569.2z"/>
			<path d="M557,532.8c0.7,3.8-0.3,7.6-0.3,11.4c0,0.7,1.1,0.7,1.1,0c0.1-3.9,1-7.8,0.3-11.7C558,531.8,556.9,532.1,557,532.8
				L557,532.8z"/>
			<path d="M556.5,547.8c0.1,0.3,0.2,0.6,0.1,1c0,0.7,1.1,0.7,1.1,0c0-0.4,0-0.8-0.2-1.3C557.4,546.8,556.3,547.1,556.5,547.8
				L556.5,547.8z"/>
			<path d="M532.5,619.6c3.7-0.1,7.5,0.1,11.2-0.5c0.7-0.1,0.4-1.2-0.3-1.1c-3.6,0.6-7.3,0.3-10.9,0.5
				C531.8,618.5,531.8,619.6,532.5,619.6L532.5,619.6z"/>
			<path d="M546.7,627.3c6.1-0.1,12.5-1.3,18.5,0.6c0.7,0.2,1-0.9,0.3-1.1c-6-2-12.6-0.7-18.8-0.7
				C545.9,626.2,545.9,627.4,546.7,627.3L546.7,627.3z"/>
			<rect x="521" y="519.2" width="7.6" height="106"/>
			<path d="M528.5,511.5c-4.3,0-7.7,3.5-7.7,7.7c0,4.3,3.5,7.7,7.7,7.7V511.5z"/>
			<path d="M528.5,617.6c-4.2,0-7.6,3.4-7.6,7.6c0,4.2,3.4,7.6,7.6,7.6V617.6z"/>
		</g>
		<g>
			<g>
				<g>
					<g>
						<rect x="520.8" y="519.1" class="st7" width="118.6" height="106"/>
					</g>
					<g>
						<g>
							<rect x="525.9" y="574.6" class="st6" width="15.1" height="2.5"/>
						</g>
					</g>
					<g>
						<g>
							<rect x="525.9" y="524.1" class="st6" width="15.1" height="2.5"/>
						</g>
					</g>
					<g>
						<g>
							<rect x="561.2" y="524.1" class="st6" width="15.1" height="2.5"/>
						</g>
					</g>
					<g>
						<g>
							<rect x="596.5" y="524.1" class="st6" width="15.1" height="2.5"/>
						</g>
					</g>
					<g>
						<rect x="561.2" y="574.6" class="st6" width="15.1" height="2.5"/>
					</g>
					<g>
						<rect x="596.5" y="574.6" class="st6" width="15.1" height="2.5"/>
					</g>
					<g>
						<g>
							<path class="st6" d="M555.5,529.8v24h-29v-24H555.5L555.5,529.8z M556.2,529.2h-30.3v25.2h30.3V529.2L556.2,529.2z"/>
						</g>
						<g>
							<path class="st6" d="M590.8,529.8v24h-29v-24H590.8L590.8,529.8z M591.5,529.2h-30.3v25.2h30.3V529.2L591.5,529.2z"/>
						</g>
						<g>
							<path class="st6" d="M626.2,529.8v24h-29v-24H626.2L626.2,529.8z M626.8,529.2h-30.3v25.2h30.3V529.2L626.8,529.2z"/>
						</g>
						<g>
							<path class="st6" d="M555.5,580.3v24h-29v-24H555.5L555.5,580.3z M556.2,579.6h-30.3v25.2h30.3V579.6L556.2,579.6z"/>
						</g>
						<g>
							<path class="st6" d="M590.8,580.3v24h-29v-24H590.8L590.8,580.3z M591.5,579.6h-30.3v25.2h30.3V579.6L591.5,579.6z"/>
						</g>
						<g>
							<path class="st6" d="M626.2,580.3v24h-29v-24H626.2L626.2,580.3z M626.8,579.6h-30.3v25.2h30.3V579.6L626.8,579.6z"/>
						</g>
						<g>
							<rect x="525.9" y="564.2" class="st6" width="30.3" height="0.6"/>
						</g>
						<g>
							<rect x="525.9" y="559.1" class="st6" width="30.3" height="0.6"/>
						</g>
						<g>
							<rect x="525.9" y="561.7" class="st6" width="30.3" height="0.6"/>
						</g>
						<g>
							<rect x="561.2" y="564.2" class="st6" width="30.3" height="0.6"/>
						</g>
						<g>
							<rect x="561.2" y="559.1" class="st6" width="30.3" height="0.6"/>
						</g>
						<g>
							<rect x="561.2" y="561.7" class="st6" width="30.3" height="0.6"/>
						</g>
						<g>
							<rect x="596.5" y="564.2" class="st6" width="30.3" height="0.6"/>
						</g>
						<g>
							<rect x="596.5" y="559.1" class="st6" width="30.3" height="0.6"/>
						</g>
						<g>
							<rect x="596.5" y="561.7" class="st6" width="30.3" height="0.6"/>
						</g>
						<g>
							<rect x="525.9" y="614.6" class="st6" width="30.3" height="0.6"/>
						</g>
						<g>
							<rect x="525.9" y="609.6" class="st6" width="30.3" height="0.6"/>
						</g>
						<g>
							<rect x="525.9" y="612.1" class="st6" width="30.3" height="0.6"/>
						</g>
						<g>
							<rect x="561.2" y="614.6" class="st6" width="30.3" height="0.6"/>
						</g>
						<g>
							<rect x="561.2" y="609.6" class="st6" width="30.3" height="0.6"/>
						</g>
						<g>
							<rect x="561.2" y="612.1" class="st6" width="30.3" height="0.6"/>
						</g>
						<g>
							<rect x="596.5" y="614.6" class="st6" width="30.3" height="0.6"/>
						</g>
						<g>
							<rect x="596.5" y="609.6" class="st6" width="30.3" height="0.6"/>
						</g>
						<g>
							<rect x="596.5" y="612.1" class="st6" width="30.3" height="0.6"/>
						</g>
						<g>
							<rect x="525.9" y="617.2" class="st6" width="30.3" height="0.6"/>
						</g>
						<g>
							<rect x="561.2" y="617.2" class="st6" width="30.3" height="0.6"/>
						</g>
						<g>
							<rect x="596.5" y="617.2" class="st6" width="30.3" height="0.6"/>
						</g>
						<g>
							<rect x="525.9" y="566.7" class="st6" width="30.3" height="0.6"/>
						</g>
						<g>
							<rect x="561.2" y="566.7" class="st6" width="30.3" height="0.6"/>
						</g>
						<g>
							<rect x="596.5" y="566.7" class="st6" width="30.3" height="0.6"/>
						</g>
					</g>
					<g>
						<g>
							<g>
								<path class="st13" d="M584.4,578.6c-8.9,1-20.1,3-24.3,12.1c-3.7,7.9,2.8,15.5,10.9,16c9.5,0.5,23.1-5.3,23.6-16.4
									c0.4-9-10.1-11.2-17.1-8c-0.7,0.3-0.1,1.3,0.6,1c3.3-1.5,6.7-1.4,10.2-0.6c6.7,1.6,5.7,8.9,3.3,13.5
									c-4.4,8.3-18,11.2-25.9,7.7c-7.8-3.5-6.1-12.4-1.4-17.1c5-5.1,13.5-6.3,20.2-7.1C585.1,579.7,585.1,578.5,584.4,578.6
									L584.4,578.6z"/>
							</g>
						</g>
						<g>
							<g>
								<path class="st13" d="M600.4,557c8.1-10,15.3-20.7,24.3-30c0.5-0.5-0.3-1.3-0.8-0.8c-9,9.3-16.2,20-24.3,30
									C599.1,556.8,599.9,557.6,600.4,557L600.4,557z"/>
							</g>
						</g>
						<g>
							<g>
								<path class="st13" d="M602.5,528.5c6.1,9.6,11.5,19.7,18.1,29c0.4,0.6,1.4,0,1-0.6c-6.7-9.3-12-19.4-18.1-29
									C603.1,527.3,602.1,527.9,602.5,528.5L602.5,528.5z"/>
							</g>
						</g>
						<g>
							<g>
								<path class="st13" d="M544.6,561.4c2.8-0.1,5.4-0.8,8.2-0.3c1.9,0.4,3.6,0.3,5.5,0c0.7-0.1,0.4-1.2-0.3-1.1
									c-2.4,0.4-4.6,0-7-0.3c-2.1-0.2-4.4,0.5-6.4,0.6C543.9,560.3,543.9,561.5,544.6,561.4L544.6,561.4z"/>
							</g>
						</g>
						<g>
							<g>
								<path class="st13" d="M549.3,525.1c0.7,3.8-0.3,7.6-0.3,11.4c0,0.7,1.1,0.7,1.1,0c0.1-3.9,1-7.8,0.3-11.7
									C550.3,524,549.2,524.4,549.3,525.1L549.3,525.1z"/>
							</g>
						</g>
						<g>
							<g>
								<path class="st13" d="M548.8,540c0.1,0.3,0.2,0.6,0.1,1c0,0.7,1.1,0.7,1.1,0c0-0.4,0-0.8-0.2-1.3
									C549.7,539,548.6,539.3,548.8,540L548.8,540z"/>
							</g>
						</g>
						<g>
							<g>
								<path class="st13" d="M524.8,611.9c3.7-0.1,7.5,0.1,11.2-0.5c0.7-0.1,0.4-1.2-0.3-1.1c-3.6,0.6-7.3,0.3-10.9,0.5
									C524,610.8,524,611.9,524.8,611.9L524.8,611.9z"/>
							</g>
						</g>
						<g>
							<g>
								<path class="st13" d="M539,619.6c6.1-0.1,12.5-1.3,18.5,0.6c0.7,0.2,1-0.9,0.3-1.1c-6-2-12.6-0.7-18.8-0.7
									C538.2,618.5,538.2,619.6,539,619.6L539,619.6z"/>
							</g>
						</g>
					</g>
				</g>
				<g>
					<rect x="513.3" y="511.5" class="st14" width="7.6" height="106"/>
				</g>
				<g>
					<path class="st14" d="M520.8,503.8c-4.3,0-7.7,3.5-7.7,7.7c0,4.3,3.5,7.7,7.7,7.7V503.8z"/>
				</g>
				<g>
					<path class="st7" d="M520.8,609.9c-4.2,0-7.6,3.4-7.6,7.6c0,4.2,3.4,7.6,7.6,7.6V609.9z"/>
				</g>
			</g>
		</g>
	</g>
	<g>
		<g class="st12">
			<circle cx="15.5" cy="485.7" r="36.6"/>
			<rect x="40.5" y="496" transform="matrix(-0.8601 -0.5101 0.5101 -0.8601 -174.9591 956.9389)" width="6.5" height="12.9"/>
			<polygon points="25.2,533.7 38.8,510.8 -10.2,481.7 			"/>
			<polygon points="-14,456.9 -35.6,455.4 -23.9,473.6 -10.2,481.7 38.8,510.8 48.7,494.1 -0.3,465.1 			"/>
			<path d="M66.6,516c0,0-13.4-0.4-16.5-2.3c-3.1-1.8-4.1-5.8-2.3-8.9c1.8-3.1,5.8-4.1,8.9-2.3C59.8,504.5,66.6,516,66.6,516z"/>
			<polygon points="-0.3,465.1 48.7,494.1 62.3,471.2 			"/>
			<rect x="22.7" y="471.9" transform="matrix(0.8601 0.5101 -0.5101 0.8601 247.2475 45.6807)" width="35.2" height="3.6"/>
			<rect x="-0.8" y="511.5" transform="matrix(0.8601 0.5101 -0.5101 0.8601 264.166 63.202)" width="35.2" height="3.6"/>
			<circle cx="-19" cy="465.3" r="3"/>
		</g>
		<g>
			<g>
				<circle class="st9" cx="7.8" cy="478" r="36.6"/>
				<g>
					
						<rect x="32.8" y="488.3" transform="matrix(-0.8601 -0.5101 0.5101 -0.8601 -185.3724 938.657)" class="st14" width="6.5" height="12.9"/>
					<polygon class="st14" points="17.5,526 31.1,503.1 -17.9,474 					"/>
					<polygon class="st7" points="-21.7,449.2 -43.4,447.7 -31.6,465.9 -17.9,474 31.1,503.1 41,486.4 -8,457.3 					"/>
					<path class="st15" d="M58.9,508.3c0,0-13.4-0.4-16.5-2.3c-3.1-1.8-4.1-5.8-2.3-8.9c1.8-3.1,5.8-4.1,8.9-2.3
						C52.1,496.8,58.9,508.3,58.9,508.3z"/>
					<polygon class="st14" points="-8,457.3 41,486.4 54.6,463.5 					"/>
					
						<rect x="15" y="464.1" transform="matrix(0.8601 0.5101 -0.5101 0.8601 242.2344 48.5361)" class="st7" width="35.2" height="3.6"/>
					
						<rect x="-8.5" y="503.8" transform="matrix(0.8601 0.5101 -0.5101 0.8601 259.1529 66.0574)" class="st7" width="35.2" height="3.6"/>
					<circle class="st14" cx="-26.7" cy="457.5" r="3"/>
				</g>
			</g>
		</g>
	</g>
	<g>
		
			<rect x="10.2" y="148.9" transform="matrix(0.7071 0.7071 -0.7071 0.7071 182.1925 5.7688)" class="st16" width="147.8" height="147.8"/>
		<g>
			<g class="st12">
				<rect x="86.8" y="199.4" width="6.6" height="105.5"/>
				<rect x="83.5" y="248.8" width="13.2" height="13.2"/>
				<path d="M116.5,197.7v-1.6c0-4.9-3.6-8.9-8.2-9.7v6.4H105v-6.6h-3.3v6.6h-3.3v-6.6h-3.3v6.6h-3.3v-6.6h-3.3v6.6h-3.3v-6.6h-3.3
					v6.6h-3.3v-6.6h-3.3v6.6H72v-6.4c-4.7,0.8-8.2,4.9-8.2,9.7v1.6h23.1v3.3H63.8v3.3h23.1v3.3H63.8v3.3h23.1v3.3H63.8v3.3h23.1v3.3
					H63.8v3.3h23.1v3.3H63.8v3.3h23.1v3.3H63.8v3.3h23.1v3.3H63.8v1.6c0,4.9,3.6,8.9,8.2,9.7v-6.4h3.3v6.6h3.3v-6.6h3.3v6.6h3.3
					v-6.6h3.3v6.6h3.3v-6.6h3.3v6.6h3.3v-6.6h3.3v6.6h3.3v-6.6h3.3v6.4c4.7-0.8,8.2-4.9,8.2-9.7v-1.6H93.4v-3.3h23.1V234H93.4v-3.3
					h23.1v-3.3H93.4v-3.3h23.1v-3.3H93.4v-3.3h23.1v-3.3H93.4v-3.3h23.1v-3.3H93.4v-3.3h23.1V201H93.4v-3.3H116.5z"/>
				<rect x="86.8" y="257.1" width="6.6" height="6.6"/>
				<rect x="105" y="189.5" width="3.3" height="3.3"/>
				<rect x="98.4" y="189.5" width="3.3" height="3.3"/>
				<rect x="91.8" y="189.5" width="3.3" height="3.3"/>
				<rect x="85.2" y="189.5" width="3.3" height="3.3"/>
				<rect x="78.6" y="189.5" width="3.3" height="3.3"/>
				<rect x="72" y="189.5" width="3.3" height="3.3"/>
				<rect x="105" y="245.5" width="3.3" height="3.3"/>
				<rect x="98.4" y="245.5" width="3.3" height="3.3"/>
				<rect x="91.8" y="245.5" width="3.3" height="3.3"/>
				<rect x="85.2" y="245.5" width="3.3" height="3.3"/>
				<rect x="78.6" y="245.5" width="3.3" height="3.3"/>
				<rect x="72" y="245.5" width="3.3" height="3.3"/>
				<rect x="67.1" y="237.3" width="19.8" height="3.3"/>
				<rect x="67.1" y="230.7" width="19.8" height="3.3"/>
				<rect x="67.1" y="224.1" width="19.8" height="3.3"/>
				<rect x="67.1" y="217.5" width="19.8" height="3.3"/>
				<rect x="67.1" y="210.9" width="19.8" height="3.3"/>
				<rect x="67.1" y="204.3" width="19.8" height="3.3"/>
				<rect x="67.1" y="197.7" width="19.8" height="3.3"/>
				<rect x="93.4" y="237.3" width="19.8" height="3.3"/>
				<rect x="93.4" y="230.7" width="19.8" height="3.3"/>
				<rect x="93.4" y="224.1" width="19.8" height="3.3"/>
				<rect x="93.4" y="217.5" width="19.8" height="3.3"/>
				<rect x="93.4" y="210.9" width="19.8" height="3.3"/>
				<rect x="93.4" y="204.3" width="19.8" height="3.3"/>
				<rect x="93.4" y="197.7" width="19.8" height="3.3"/>
			</g>
			<g>
				<g>
					<g>
						<g>
							<rect x="79.1" y="191.7" class="st7" width="6.6" height="105.5"/>
						</g>
					</g>
					<g>
						<g>
							<rect x="75.8" y="241.1" class="st5" width="13.2" height="13.2"/>
						</g>
					</g>
					<g>
						<path class="st7" d="M108.8,190v-1.6c0-4.9-3.6-8.9-8.2-9.7v6.4h-3.3v-6.6H94v6.6h-3.3v-6.6h-3.3v6.6h-3.3v-6.6h-3.3v6.6h-3.3
							v-6.6h-3.3v6.6h-3.3v-6.6h-3.3v6.6h-3.3v-6.4c-4.7,0.8-8.2,4.9-8.2,9.7v1.6h23.1v3.3H56.1v3.3h23.1v3.3H56.1v3.3h23.1v3.3
							H56.1v3.3h23.1v3.3H56.1v3.3h23.1v3.3H56.1v3.3h23.1v3.3H56.1v3.3h23.1v3.3H56.1v1.6c0,4.9,3.6,8.9,8.2,9.7v-6.4h3.3v6.6h3.3
							v-6.6h3.3v6.6h3.3v-6.6h3.3v6.6h3.3v-6.6h3.3v6.6h3.3v-6.6H94v6.6h3.3v-6.6h3.3v6.4c4.7-0.8,8.2-4.9,8.2-9.7v-1.6H85.7v-3.3
							h23.1v-3.3H85.7V223h23.1v-3.3H85.7v-3.3h23.1v-3.3H85.7v-3.3h23.1v-3.3H85.7v-3.3h23.1v-3.3H85.7v-3.3h23.1v-3.3H85.7V190
							H108.8z"/>
					</g>
					<g>
						<g>
							<rect x="79.1" y="249.4" class="st14" width="6.6" height="6.6"/>
						</g>
					</g>
					<g>
						<g>
							<g>
								<g>
									<rect x="97.3" y="181.8" class="st17" width="3.3" height="3.3"/>
								</g>
							</g>
						</g>
						<g>
							<g>
								<g>
									<rect x="90.7" y="181.8" class="st17" width="3.3" height="3.3"/>
								</g>
							</g>
						</g>
						<g>
							<g>
								<g>
									<rect x="84.1" y="181.8" class="st17" width="3.3" height="3.3"/>
								</g>
							</g>
						</g>
						<g>
							<g>
								<g>
									<rect x="77.5" y="181.8" class="st17" width="3.3" height="3.3"/>
								</g>
							</g>
						</g>
						<g>
							<g>
								<g>
									<rect x="70.9" y="181.8" class="st17" width="3.3" height="3.3"/>
								</g>
							</g>
						</g>
						<g>
							<g>
								<g>
									<rect x="64.3" y="181.8" class="st17" width="3.3" height="3.3"/>
								</g>
							</g>
						</g>
					</g>
					<g>
						<g>
							<g>
								<g>
									<rect x="97.3" y="237.8" class="st17" width="3.3" height="3.3"/>
								</g>
							</g>
						</g>
						<g>
							<g>
								<g>
									<rect x="90.7" y="237.8" class="st17" width="3.3" height="3.3"/>
								</g>
							</g>
						</g>
						<g>
							<g>
								<g>
									<rect x="84.1" y="237.8" class="st17" width="3.3" height="3.3"/>
								</g>
							</g>
						</g>
						<g>
							<g>
								<g>
									<rect x="77.5" y="237.8" class="st17" width="3.3" height="3.3"/>
								</g>
							</g>
						</g>
						<g>
							<g>
								<g>
									<rect x="70.9" y="237.8" class="st17" width="3.3" height="3.3"/>
								</g>
							</g>
						</g>
						<g>
							<g>
								<g>
									<rect x="64.3" y="237.8" class="st17" width="3.3" height="3.3"/>
								</g>
							</g>
						</g>
					</g>
					<g>
						<g>
							<g>
								<g>
									<g>
										<rect x="59.4" y="229.6" class="st17" width="19.8" height="3.3"/>
									</g>
								</g>
							</g>
							<g>
								<g>
									<g>
										<rect x="59.4" y="223" class="st17" width="19.8" height="3.3"/>
									</g>
								</g>
							</g>
							<g>
								<g>
									<g>
										<rect x="59.4" y="216.4" class="st17" width="19.8" height="3.3"/>
									</g>
								</g>
							</g>
							<g>
								<g>
									<g>
										<rect x="59.4" y="209.8" class="st17" width="19.8" height="3.3"/>
									</g>
								</g>
							</g>
							<g>
								<g>
									<g>
										<rect x="59.4" y="203.2" class="st17" width="19.8" height="3.3"/>
									</g>
								</g>
							</g>
							<g>
								<g>
									<g>
										<rect x="59.4" y="196.6" class="st17" width="19.8" height="3.3"/>
									</g>
								</g>
							</g>
							<g>
								<g>
									<g>
										<rect x="59.4" y="190" class="st17" width="19.8" height="3.3"/>
									</g>
								</g>
							</g>
						</g>
						<g>
							<g>
								<g>
									<g>
										<rect x="85.7" y="229.6" class="st17" width="19.8" height="3.3"/>
									</g>
								</g>
							</g>
							<g>
								<g>
									<g>
										<rect x="85.7" y="223" class="st17" width="19.8" height="3.3"/>
									</g>
								</g>
							</g>
							<g>
								<g>
									<g>
										<rect x="85.7" y="216.4" class="st17" width="19.8" height="3.3"/>
									</g>
								</g>
							</g>
							<g>
								<g>
									<g>
										<rect x="85.7" y="209.8" class="st17" width="19.8" height="3.3"/>
									</g>
								</g>
							</g>
							<g>
								<g>
									<g>
										<rect x="85.7" y="203.2" class="st17" width="19.8" height="3.3"/>
									</g>
								</g>
							</g>
							<g>
								<g>
									<g>
										<rect x="85.7" y="196.6" class="st17" width="19.8" height="3.3"/>
									</g>
								</g>
							</g>
							<g>
								<g>
									<g>
										<rect x="85.7" y="190" class="st17" width="19.8" height="3.3"/>
									</g>
								</g>
							</g>
						</g>
					</g>
				</g>
			</g>
		</g>
	</g>
	<g>
		<g>
			
				<rect x="428.3" y="208.7" transform="matrix(0.9397 -0.3419 0.3419 0.9397 -56.0476 194.2937)" class="st6" width="189.7" height="94.9"/>
		</g>
		<g>
			<g>
				<polygon class="st7" points="565.7,165 409.7,221.7 417.8,244 596.1,179.1 				"/>
			</g>
			<g>
				<polygon class="st6" points="440.1,235.9 462.4,227.8 432,213.6 409.7,221.7 				"/>
			</g>
			<g>
				<polygon class="st6" points="484.7,219.7 506.9,211.6 476.5,197.4 454.3,205.5 				"/>
			</g>
			<g>
				<polygon class="st6" points="529.2,203.5 551.5,195.4 521.1,181.2 498.8,189.3 				"/>
			</g>
			<g>
				<polygon class="st6" points="573.8,187.2 596.1,179.1 565.7,165 543.4,173.1 				"/>
			</g>
			<g>
				<polygon class="st7" points="588,156.9 565.7,165 596.1,179.1 				"/>
			</g>
		</g>
		<g>
			<g>
				<polygon class="st7" points="563.8,159.9 409.7,221.7 400.8,199.7 576.9,129.1 				"/>
			</g>
			<g>
				<polygon class="st6" points="422.9,190.9 444.9,182 431.7,212.9 409.7,221.7 				"/>
			</g>
			<g>
				<polygon class="st6" points="466.9,173.2 488.9,164.4 475.7,195.2 453.7,204.1 				"/>
			</g>
			<g>
				<polygon class="st6" points="510.9,155.5 532.9,146.7 519.7,177.6 497.7,186.4 				"/>
			</g>
			<g>
				<polygon class="st6" points="554.9,137.9 576.9,129.1 563.8,159.9 541.8,168.7 				"/>
			</g>
			<g>
				<polygon class="st7" points="585.8,151.1 563.8,159.9 576.9,129.1 				"/>
			</g>
		</g>
		<g>
			<path class="st7" d="M580.8,212l14.9,40.9l-130.1,47.3l-14.9-40.9L580.8,212L580.8,212z M581.9,209.5l-133.7,48.7l16.2,44.6
				l133.7-48.7L581.9,209.5L581.9,209.5z"/>
		</g>
		<g>
			
				<rect x="450" y="249.6" transform="matrix(0.9397 -0.3419 0.3419 0.9397 -54.2652 193.2652)" class="st7" width="142.3" height="2"/>
		</g>
		<g>
			
				<rect x="525.2" y="249.7" transform="matrix(0.9397 -0.3419 0.3419 0.9397 -58.7221 195.837)" class="st7" width="2" height="29.6"/>
		</g>
		<g>
			
				<rect x="444" y="297.9" transform="matrix(0.9397 -0.3419 0.3419 0.9397 -69.8651 202.2671)" class="st17" width="189.7" height="3"/>
		</g>
		<g>
			
				<rect x="403.8" y="206.9" transform="matrix(-0.9397 0.3419 -0.3419 -0.9397 870.482 290.0116)" class="st17" width="11.9" height="29.6"/>
		</g>
		<g>
			<path class="st6" d="M412.5,220.7c0.6,1.5-0.2,3.2-1.8,3.8c-1.5,0.6-3.2-0.2-3.8-1.8c-0.6-1.5,0.2-3.2,1.8-3.8
				C410.2,218.4,411.9,219.2,412.5,220.7z"/>
		</g>
		<g>
			
				<rect x="443" y="234.7" transform="matrix(0.9397 -0.3419 0.3419 0.9397 -52.4196 177.9303)" class="st7" width="71.1" height="5.9"/>
		</g>
	</g>
	<g>
		<g>
			<g>
				<polygon class="st6" points="172.6,451.4 166.9,428.8 189.6,428.8 200.9,428.8 195.2,451.4 217.9,632.5 189.6,632.5 
					149.9,632.5 				"/>
			</g>
			<g>
				<path class="st6" d="M152.2,497.4l14.7,1.8l-3.7,29.4l-14.7-1.8L152.2,497.4L152.2,497.4z M147.3,491.1l-0.7,5.6l-3.7,29.4
					l-0.7,5.6l5.6,0.7l14.7,1.8l5.6,0.7l0.7-5.6l3.7-29.4l0.7-5.6l-5.6-0.7l-14.7-1.8L147.3,491.1L147.3,491.1z"/>
			</g>
		</g>
		<g>
			<g>
				<polygon class="st17" points="171.9,451.4 149.2,632.5 177.5,632.5 177.5,451.4 				"/>
			</g>
			<g>
				<polygon class="st17" points="177.5,428.8 166.2,428.8 171.9,451.4 177.5,451.4 				"/>
			</g>
		</g>
	</g>
</g>
</svg>
