<?xml version="1.0" encoding="utf-8"?>
<!-- Generator: Adobe Illustrator 16.0.0, SVG Export Plug-In . SVG Version: 6.00 Build 0)  -->
<!DOCTYPE svg PUBLIC "-//W3C//DTD SVG 1.1//EN" "http://www.w3.org/Graphics/SVG/1.1/DTD/svg11.dtd">
<svg version="1.1" id="Layer_1" xmlns="http://www.w3.org/2000/svg" xmlns:xlink="http://www.w3.org/1999/xlink" x="0px" y="0px"
	 width="1100px" height="545px" viewBox="0 0 1100 545" enable-background="new 0 0 1100 545" xml:space="preserve">
<g>
	<g>
		<g>
			
				<circle fill="none" stroke="#FFFFFF" stroke-width="1.5215" stroke-miterlimit="10" stroke-dasharray="1.5201,3.0402" cx="184.845" cy="127.69" r="44.285"/>
		</g>
		<g>
			
				<circle fill="none" stroke="#FFFFFF" stroke-width="1.5215" stroke-miterlimit="10" stroke-dasharray="1.5187,3.0374" cx="128.432" cy="305.408" r="87.735"/>
		</g>
		<g>
			
				<circle fill="none" stroke="#FFFFFF" stroke-width="1.5215" stroke-miterlimit="10" stroke-dasharray="1.5169,3.0337" cx="476.376" cy="358.381" r="66.635"/>
		</g>
		<circle fill="#FBB56B" cx="520.398" cy="219.118" r="55.671"/>
		<text transform="matrix(1 0 0 1 478.0239 227.6392)" fill="#FFFFFF" font-family="'Gotham-Light'" font-size="22.0877">HTML5</text>
		<g>
			
				<circle fill="none" stroke="#FFFFFF" stroke-width="1.5215" stroke-miterlimit="10" stroke-dasharray="1.5284,3.0567" cx="530.029" cy="283.728" r="45.986"/>
		</g>
		<g opacity="0.54">
			
				<image overflow="visible" width="2361" height="536" xlink:href="D2A73AA515EE6C83.png"  transform="matrix(0.24 0 0 0.24 43.9209 429.6982)">
			</image>
		</g>
		<circle fill="#EF5359" cx="122.988" cy="207.856" r="89.714"/>
		<rect x="186.332" y="115.233" fill="#4B566B" width="287.06" height="25.061"/>
		<rect x="186.332" y="140.294" fill="#222D41" width="287.06" height="353.699"/>
		<rect x="211.096" y="147.886" fill="#EF5359" width="24.609" height="7.646"/>
		<rect x="234.63" y="196.149" fill="#ED987A" width="24.609" height="7.646"/>
		<rect x="270.11" y="196.149" fill="#A0A29F" width="49.937" height="7.646"/>
		<rect x="353.854" y="207.856" fill="#EF5359" width="49.937" height="7.646"/>
		<rect x="342.267" y="220.28" fill="#A0A29F" width="108.474" height="7.646"/>
		<rect x="211.096" y="160.31" fill="#ED987A" width="35.839" height="7.646"/>
		<rect x="216.591" y="255.403" fill="#A0A29F" width="54.953" height="7.646"/>
		<rect x="211.096" y="279.057" fill="#EF5359" width="35.839" height="7.646"/>
		<rect x="211.096" y="350.735" fill="#ED987A" width="24.849" height="7.646"/>
		<rect x="221.13" y="363.159" fill="#EF5359" width="50.414" height="7.646"/>
		<rect x="282.296" y="469.644" fill="#A0A29F" width="50.414" height="7.646"/>
		<rect x="211.096" y="456.699" fill="#EF5359" width="70.483" height="7.646"/>
		<rect x="282.415" y="363.159" fill="#A0A29F" width="142.999" height="7.646"/>
		<rect x="247.412" y="422.652" fill="#656975" width="58.776" height="7.646"/>
		<rect x="317.786" y="422.652" fill="#A0A29F" width="29.389" height="7.646"/>
		<rect x="353.915" y="422.652" fill="#ED987A" width="95.391" height="7.646"/>
		<rect x="258.881" y="279.057" fill="#656975" width="82.132" height="7.646"/>
		<rect x="231.165" y="303.188" fill="#A0A29F" width="40.379" height="7.646"/>
		<rect x="281.817" y="303.188" fill="#ED987A" width="51.37" height="7.646"/>
		<rect x="244.067" y="315.135" fill="#EF5359" width="14.574" height="7.646"/>
		<rect x="258.881" y="326.364" fill="#A0A29F" width="85.298" height="7.646"/>
		<rect x="216.591" y="290.048" fill="#656975" width="91.031" height="7.646"/>
		<g>
			<rect x="246.935" y="207.856" fill="#656975" width="59.732" height="7.646"/>
			<rect x="258.164" y="220.28" fill="#656975" width="74.067" height="7.646"/>
			<rect x="316.94" y="207.856" fill="#656975" width="24.072" height="7.646"/>
			<rect x="211.096" y="244.412" fill="#656975" width="49.936" height="7.646"/>
			<rect x="221.13" y="469.644" fill="#656975" width="50.414" height="7.646"/>
			<rect x="246.337" y="386.813" fill="#656975" width="95.93" height="7.646"/>
			<rect x="234.511" y="410.945" fill="#656975" width="119.583" height="7.646"/>
			<rect x="235.944" y="375.106" fill="#656975" width="70.244" height="7.646"/>
			<rect x="247.412" y="436.16" fill="#656975" width="72.396" height="7.646"/>
			<rect x="327.171" y="436.16" fill="#656975" width="38.774" height="7.646"/>
			<rect x="377.116" y="436.16" fill="#656975" width="24.913" height="7.646"/>
			<rect x="316.721" y="375.106" fill="#656975" width="60.907" height="7.646"/>
			<rect x="270.35" y="315.135" fill="#656975" width="49.458" height="7.646"/>
			<rect x="329.862" y="315.135" fill="#656975" width="72.167" height="7.646"/>
			<rect x="342.267" y="303.188" fill="#656975" width="35.361" height="7.646"/>
			<rect x="223.4" y="183.008" fill="#656975" width="71.319" height="7.646"/>
		</g>
		<rect x="305.353" y="183.008" fill="#A0A29F" width="71.32" height="7.646"/>
		<text transform="matrix(1 0 0 1 60.4429 222.582)" fill="#FFFFFF" font-family="'Gotham-Light'" font-size="43.7229">SASS</text>
		<circle fill="#79BA51" cx="476.376" cy="318.958" r="72.585"/>
		<text transform="matrix(1 0 0 1 426.3872 332.1025)" fill="#FFFFFF" font-family="'Gotham-Light'" font-size="35.3751">CSS3</text>
		<circle fill="#79C6E1" cx="149.957" cy="326.365" r="55.671"/>
		<text transform="matrix(1 0 0 1 128.4312 337.5869)" fill="#FFFFFF" font-family="'Gotham-Light'" font-size="59.9974">js</text>
	</g>
	<g>
		
			<line fill="none" stroke="#FFFFFF" stroke-width="1.5866" stroke-miterlimit="10" stroke-dasharray="1.5866,3.1733" x1="870.335" y1="43.816" x2="749.952" y2="43.816"/>
		<circle fill="#FBB56B" cx="870.335" cy="43.816" r="17.15"/>
		
			<line fill="none" stroke="#FFFFFF" stroke-width="1.5866" stroke-miterlimit="10" stroke-dasharray="1.5866,3.1733" x1="660.612" y1="99.349" x2="660.612" y2="296.748"/>
		<circle fill="#FBB56B" cx="660.612" cy="99.349" r="26.787"/>
		<circle fill="#79C6E1" cx="660.613" cy="297.125" r="13.939"/>
		<g>
			<g>
				<polyline fill="none" stroke="#FFFFFF" stroke-width="7.8605" stroke-miterlimit="10" points="600.22,257.415 660.612,220.594 
					750.763,146.882 841.334,133.742 931.907,94.805 984.623,35.465 				"/>
				<g>
					<path fill="#FFFFFF" d="M1016.13,0c-8.634,22.189-16.463,52.281-16.674,75.057L980.488,40.12l-36.923-14.714
						C966.158,22.512,995.118,11.192,1016.13,0z"/>
				</g>
			</g>
		</g>
		<circle fill="#F04953" cx="931.458" cy="96.156" r="15.39"/>
		<circle fill="#79BA51" cx="660.612" cy="220.594" r="15.391"/>
		<g>
			<g opacity="0.1">
				<rect x="654.158" y="298.711" fill="#010101" width="3.768" height="6.154"/>
				<rect x="657.926" y="295.321" fill="#010101" width="3.768" height="9.545"/>
				<rect x="661.693" y="292.18" fill="#010101" width="3.768" height="12.686"/>
				<rect x="665.461" y="296.2" fill="#010101" width="3.769" height="8.666"/>
			</g>
			<g>
				<g>
					<rect x="652.571" y="297.125" fill="#FBB56B" width="3.768" height="6.154"/>
					<rect x="656.339" y="293.734" fill="#79BA51" width="3.768" height="9.545"/>
					<rect x="660.106" y="290.594" fill="#F04953" width="3.768" height="12.686"/>
					<rect x="663.874" y="294.613" fill="#FFFFFF" width="3.769" height="8.666"/>
				</g>
			</g>
		</g>
		<g>
			<g opacity="0.1">
				<circle fill="#010101" cx="664.58" cy="103.315" r="17.15"/>
				<path fill="#010101" d="M664.579,103.315h17.15c0-3.954-1.352-7.586-3.601-10.486L664.579,103.315z"/>
				<path fill="#010101" d="M664.579,103.315l13.55-10.486c-3.138-4.048-8.032-6.663-13.55-6.663c-3.833,0-7.36,1.272-10.217,3.398
					L664.579,103.315z"/>
			</g>
			<g>
				<g>
					<circle fill="#F04953" cx="660.613" cy="99.349" r="17.15"/>
					<path fill="#79BA51" d="M660.612,99.349h17.15c0-3.954-1.352-7.586-3.601-10.486L660.612,99.349z"/>
					<path fill="#79C6E1" d="M660.612,99.349l13.55-10.486c-3.138-4.048-8.032-6.663-13.55-6.663c-3.833,0-7.36,1.272-10.217,3.398
						L660.612,99.349z"/>
				</g>
			</g>
		</g>
		<path fill="#F04953" d="M870.335,34.003c-5.402,0-9.797,4.395-9.797,9.797c0,5.401,4.395,9.796,9.797,9.796
			s9.796-4.395,9.796-9.796C880.131,38.397,875.737,34.003,870.335,34.003z M870.839,40.66c1.547-0.031,2.942-0.166,4.117-0.335
			c0.281,0.999,0.425,2.019,0.428,3.056h-4.545V40.66z M870.839,39.776v-4.37c0.587,0.035,1.156,0.131,1.705,0.28
			c0.951,1.224,1.664,2.487,2.139,3.785C873.573,39.624,872.271,39.745,870.839,39.776z M869.972,39.783
			c-1.186-0.005-2.447-0.079-3.748-0.25c0.483-1.348,1.225-2.658,2.223-3.927c0.494-0.113,1.003-0.185,1.525-0.207V39.783z
			 M869.972,40.665v2.716h-4.428c0.002-1.019,0.141-2.021,0.412-3.003C867.356,40.573,868.706,40.656,869.972,40.665z
			 M864.692,43.381h-2.756c0.063-1.295,0.422-2.516,1.009-3.593c0.729,0.186,1.452,0.337,2.165,0.459
			C864.819,41.343,864.697,42.395,864.692,43.381z M864.716,44.248c0.065,1.047,0.253,2.005,0.49,2.842
			c0.031,0.109,0.062,0.217,0.096,0.322c-0.759,0.124-1.531,0.281-2.31,0.479c-0.609-1.088-0.985-2.325-1.054-3.643H864.716z
			 M866.04,46.853c-0.25-0.879-0.404-1.747-0.465-2.604h4.396v2.778c-1.199,0.008-2.479,0.083-3.801,0.258
			C866.126,47.143,866.081,47,866.04,46.853z M869.972,47.908v4.291c-0.455-0.019-0.9-0.073-1.334-0.163l0.045-0.038
			c-0.017-0.018-1.296-1.515-2.213-3.871C867.685,47.979,868.86,47.914,869.972,47.908z M870.839,47.915
			c1.326,0.029,2.542,0.136,3.596,0.272c-0.871,2.205-2.054,3.648-2.178,3.797c-0.459,0.107-0.933,0.179-1.418,0.208V47.915z
			 M870.839,47.032v-2.784h4.514c-0.061,0.848-0.213,1.706-0.457,2.574c-0.049,0.175-0.102,0.346-0.156,0.515
			C873.61,47.183,872.291,47.062,870.839,47.032z M875.722,47.09c0.237-0.837,0.425-1.795,0.49-2.842h2.52
			c-0.069,1.312-0.441,2.545-1.047,3.631c-0.528-0.125-1.232-0.273-2.076-0.412C875.646,47.343,875.685,47.218,875.722,47.09z
			 M876.235,43.381c-0.005-1.003-0.131-2.073-0.434-3.188c0.784-0.133,1.438-0.273,1.93-0.391c0.582,1.074,0.938,2.288,1.002,3.579
			H876.235z M877.245,39.017c-0.46,0.102-1.035,0.217-1.704,0.326c-0.351-1.013-0.853-2.056-1.546-3.113
			C875.304,36.865,876.423,37.83,877.245,39.017z M867.042,36.062c-0.766,1.137-1.309,2.258-1.678,3.344
			c-0.639-0.104-1.287-0.234-1.939-0.393C864.324,37.721,865.575,36.688,867.042,36.062z M863.481,48.664
			c0.709-0.17,1.412-0.308,2.105-0.414c0.555,1.488,1.253,2.663,1.76,3.408C865.781,51.062,864.438,50.009,863.481,48.664z
			 M873.677,51.515c0.49-0.737,1.123-1.836,1.64-3.201c0.737,0.114,1.368,0.239,1.872,0.349
			C876.304,49.905,875.091,50.899,873.677,51.515z"/>
		
			<line fill="none" stroke="#FFFFFF" stroke-width="1.5866" stroke-miterlimit="10" stroke-dasharray="1.5866,3.1733" x1="751.435" y1="43.816" x2="842.135" y2="134.28"/>
		<circle fill="#79C6E1" cx="751.434" cy="43.816" r="38.726"/>
		<g>
			<g opacity="0.1">
				<circle fill="#010101" cx="762.314" cy="33.4" r="7.872"/>
				<circle fill="#010101" cx="762.314" cy="60.866" r="7.872"/>
				<circle fill="#010101" cx="740.71" cy="47.248" r="7.871"/>
				<polygon fill="#010101" points="760.747,64.431 735.729,47.163 760.825,31.078 763.804,35.723 745.69,47.333 763.882,59.89 				
					"/>
			</g>
			<g>
				<g>
					<circle fill="#FFFFFF" cx="758.865" cy="29.951" r="7.872"/>
					<circle fill="#FFFFFF" cx="758.865" cy="57.417" r="7.872"/>
					<circle fill="#FFFFFF" cx="737.261" cy="43.799" r="7.871"/>
					<g>
						<polygon fill="#FFFFFF" points="757.298,60.981 732.28,43.714 757.376,27.629 760.354,32.273 742.241,43.884 760.433,56.44 
													"/>
					</g>
				</g>
			</g>
		</g>
		<circle fill="#79BA51" cx="842.134" cy="134.28" r="15.39"/>
	</g>
	<g>
		<g>
			
				<circle fill="none" stroke="#FFFFFF" stroke-width="1.2423" stroke-miterlimit="10" stroke-dasharray="1.2411,2.4823" cx="1004.618" cy="161.702" r="36.159"/>
		</g>
		<g>
			
				<circle fill="none" stroke="#FFFFFF" stroke-width="1.2423" stroke-miterlimit="10" stroke-dasharray="1.2383,2.4765" cx="984.281" cy="295.787" r="54.407"/>
		</g>
		<g>
			
				<circle fill="none" stroke="#FFFFFF" stroke-width="1.2423" stroke-miterlimit="10" stroke-dasharray="1.2479,2.4958" cx="928.015" cy="189.764" r="37.547"/>
		</g>
		<circle fill="#79C6E1" cx="1018.597" cy="173.097" r="34.316"/>
		<circle fill="#FBB56B" cx="969.58" cy="215.172" r="41.565"/>
		<text transform="matrix(1 0 0 1 989.5547 178.8496)" fill="#FFFFFF" font-family="'Gotham-Light'" font-size="19.804">Cloud</text>
		<text transform="matrix(1 0 0 1 953.0098 228.8047)" fill="#FFFFFF" font-family="'Gotham-Light'" font-size="50.1125">js</text>
		<circle fill="#79BA51" cx="1011.146" cy="284.944" r="53.389"/>
		<text transform="matrix(1 0 0 1 965.5039 299.168)" fill="#FFFFFF" font-family="'Gotham-Light'" font-size="40.3755">PHP</text>
		<circle fill="#F04953" cx="933.818" cy="165.097" r="28.933"/>
		<text transform="matrix(1 0 0 1 914.8242 169.7012)" fill="#FFFFFF" font-family="'Gotham-Light'" font-size="16.2265">XML</text>
		<circle fill="#F04953" cx="1047.033" cy="238.053" r="14.152"/>
		<g>
			
				<circle fill="none" stroke="#FFFFFF" stroke-width="1.2423" stroke-miterlimit="10" stroke-dasharray="1.2545,2.5091" cx="874.812" cy="240.805" r="28.16"/>
		</g>
		<g>
			
				<circle fill="none" stroke="#FFFFFF" stroke-width="1.2423" stroke-miterlimit="10" stroke-dasharray="1.24,2.48" cx="806.871" cy="261.399" r="71.636"/>
		</g>
		<g>
			
				<circle fill="none" stroke="#FFFFFF" stroke-width="0.4266" stroke-miterlimit="10" stroke-dasharray="1.2479,2.4958" cx="794.958" cy="268.965" r="37.546"/>
		</g>
		<circle fill="#76BD4F" cx="902.971" cy="254.337" r="11.913"/>
		<circle fill="#79C6E1" cx="843.43" cy="232.406" r="36.559"/>
		<circle fill="#FBB56B" cx="783.651" cy="286.412" r="52.131"/>
		<text transform="matrix(1 0 0 1 812.7324 238.4902)" fill="#FFFFFF" font-family="'Gotham-Light'" font-size="23.3426">www</text>
		<text transform="matrix(1 0 0 1 741.9717 296.7666)" fill="#FFFFFF" font-family="'Gotham-Light'" font-size="31.0581">CSS3</text>
		<circle fill="#F04953" cx="806.871" cy="207.413" r="14.2"/>
		<rect x="781.264" y="320.912" fill="none" width="248.835" height="154.294"/>
		<g>
			<g>
				<path fill="#111111" d="M783.879,494.439c-5.333,0-9.671-4.339-9.671-9.672V319.062c0-5.333,4.338-9.672,9.671-9.672h242.013
					c5.333,0,9.672,4.339,9.672,9.672v165.706c0,5.333-4.339,9.672-9.672,9.672H783.879z"/>
				<path fill="#E2DFDC" d="M1025.892,310.632c4.655,0,8.43,3.774,8.43,8.43v165.706c0,4.655-3.774,8.43-8.43,8.43H783.879
					c-4.655,0-8.429-3.774-8.429-8.43V319.062c0-4.655,3.773-8.43,8.429-8.43H1025.892 M1025.892,308.147H783.879
					c-6.018,0-10.913,4.896-10.913,10.915v165.706c0,6.019,4.896,10.914,10.913,10.914h242.013c6.019,0,10.914-4.896,10.914-10.914
					V319.062C1036.806,313.043,1031.91,308.147,1025.892,308.147L1025.892,308.147z"/>
			</g>
			<rect x="781.001" y="320.066" fill="#202020" width="247.77" height="154.46"/>
			<rect x="743.045" y="486.388" fill="#C6C7CA" width="323.681" height="5.535"/>
			<path fill="#989798" d="M1066.726,491.923v1.588c0,1.514-7.438,2.74-8.951,2.74H751.996c-1.513,0-8.951-1.227-8.951-2.74v-1.588
				H1066.726z"/>
			<path fill="#989798" d="M928.306,486.388L928.306,486.388c0,1.792-1.453,3.244-3.244,3.244H884.71
				c-1.792,0-3.244-1.452-3.244-3.244l0,0"/>
		</g>
		<circle fill="#F04953" cx="882.158" cy="304.041" r="49.705"/>
		<text transform="matrix(1 0 0 1 842.5146 311.9502)" fill="#FFFFFF" font-family="'Gotham-Light'" font-size="21.7407">MySQL</text>
		<g>
			<text transform="matrix(1 0 0 1 807.4053 424.7979)" fill="#FFFFFF" font-family="'Gotham-Light'" font-size="56.1088">HTML5</text>
		</g>
	</g>
</g>
</svg>
