<?xml version="1.0" encoding="utf-8"?>
<!-- Generator: Adobe Illustrator 16.0.0, SVG Export Plug-In . SVG Version: 6.00 Build 0)  -->
<!DOCTYPE svg PUBLIC "-//W3C//DTD SVG 1.1//EN" "http://www.w3.org/Graphics/SVG/1.1/DTD/svg11.dtd">
<svg version="1.1" id="Layer_1" xmlns="http://www.w3.org/2000/svg" xmlns:xlink="http://www.w3.org/1999/xlink" x="0px" y="0px"
	 width="751px" height="232px" viewBox="0 0 751 232" enable-background="new 0 0 751 232" xml:space="preserve">
<g>
	<g>
		
			<path fill="none" stroke="#FFFFFF" stroke-width="8.5701" stroke-linecap="round" stroke-linejoin="round" stroke-miterlimit="10" d="
			M190.007,201.605V59.909l-20.854-10.862l-0.127,0.19l-38.932,25.991l-23.693-58.864L83.787,4.586
			C63.648,16.251,23.506,26.762,8.514,86.713c-15.302,61.192,15.519,107.801,22.365,113.838c-0.071-0.186-0.103-0.365-0.167-0.551
			c4.248,7.116,13.34,13.67,25.289,18.775c28.681,12.401,64.637,11.76,102.602-3.93c14.881-6.154,31.789-13.062,31.789-13.062
			L190.007,201.605z M58.251,163.922c5.369-2.812,10.641-5.135,15.001-6.898C68.959,159.003,63.676,161.435,58.251,163.922z"/>
		<g>
			<polygon fill="#231F20" points="105.852,91.414 169.101,49.188 169.101,86.299 105.852,109.279 			"/>
			<path fill="#0A67B2" d="M181.917,106.567l-9.951-25.619l-16.113,12.598l-16.906,10.333l-19.815-28.671L83.787,57.551v96.975
				l17.938,6.963c-4.729,2.455-18.04,12.348-25.115,15.587c-21.052,9.61-14.23,21.917,2.622,29.122
				c16.17,6.991,36.7,8.512,58.093-0.326c7.467-3.088,27.883-9.266,32.324-10.794l12.27,2.572V106.567z"/>
			<polygon fill="#005493" points="91.618,35.576 142.344,101.961 139.519,136.565 91.618,144.846 			"/>
			<path fill="#1D99D6" d="M171.804,89.673l-32.157,46.837l-3.735-1.771l-32.464-79.679v107.222l-19.661-8.982V4.586l22.615,11.778
				l31.803,79.009l30.949-46.326l20.854,10.862v141.903l-18.203-8.312V89.673z"/>
			<path fill="#1888C9" d="M171.835,193.197c-4.465,1.534-27.002,8.648-34.468,11.723c-21.392,8.844-41.967,8.269-58.137,1.277
				c-16.853-7.205-23.674-19.512-2.622-29.122c8.073-3.699,25.58-13.933,27.033-14.693l-20.631-9.864
				c0,0-16.764,7.761-31.664,14.562C13.985,184.158,26.092,205.994,56,218.775c28.682,12.401,64.638,11.76,102.603-3.93
				c14.881-6.154,31.789-13.062,31.789-13.062L171.835,193.197z"/>
			<path fill="#231F20" d="M83.787,4.586v148.557c0,0-63.374,20.035-52.907,47.408c-6.847-6.037-37.667-52.645-22.365-113.838
				C23.506,26.762,63.648,16.251,83.787,4.586z"/>
		</g>
	</g>
	<g>
		<path fill="#FFFFFF" d="M236.373,112.691v-0.182c0-17.982,13.441-32.877,31.787-32.877c11.352,0,18.164,4.178,24.702,10.172
			l-3.36,3.451c-5.539-5.358-11.896-9.354-21.434-9.354c-15.258,0-26.791,12.442-26.791,28.427v0.182
			c0,16.075,11.715,28.608,26.883,28.608c9.172,0,15.439-3.541,21.887-9.898l3.18,3.088c-6.721,6.629-13.986,11.08-25.248,11.08
			C249.814,145.387,236.373,130.945,236.373,112.691z"/>
		<path fill="#FFFFFF" d="M301.582,97.978h4.449v13.169c3.633-8.265,11.354-14.259,20.525-13.896v4.904h-0.453
			c-10.717,0-20.072,8.083-20.072,23.159v18.982h-4.449V97.978z"/>
		<path fill="#FFFFFF" d="M328.826,121.229v-0.182c0-13.442,9.446-24.159,21.979-24.159c12.988,0,21.252,10.535,21.252,24.249
			c0,0.818,0,1.09-0.09,1.816h-38.418c0.818,11.535,9.082,18.256,18.164,18.256c7.176,0,12.08-3.18,15.895-7.266l3.088,2.725
			c-4.723,5.086-10.264,8.719-19.164,8.719C339.361,145.387,328.826,135.668,328.826,121.229z M367.244,118.957
			c-0.637-9.354-5.994-17.982-16.621-17.982c-9.172,0-16.256,7.72-17.074,17.982H367.244z"/>
		<path fill="#FFFFFF" d="M377.598,130.855v-0.182c0-9.627,8.264-15.077,20.254-15.077c6.447,0,10.898,0.817,15.348,1.999v-1.999
			c0-9.354-5.721-14.168-15.258-14.168c-5.631,0-10.262,1.544-14.531,3.724l-1.635-3.905c5.086-2.361,10.082-3.996,16.439-3.996
			c6.266,0,11.262,1.726,14.621,5.086c3.088,3.088,4.723,7.356,4.723,13.078v28.881h-4.359v-7.721
			c-3.178,4.451-8.9,8.811-17.709,8.811C386.861,145.387,377.598,140.482,377.598,130.855z M413.291,126.949v-5.268
			c-3.906-0.998-9.082-2.088-15.713-2.088c-9.809,0-15.258,4.359-15.258,10.807v0.182c0,6.721,6.357,10.627,13.441,10.627
			C405.207,141.209,413.291,135.396,413.291,126.949z"/>
		<path fill="#FFFFFF" d="M431.908,132.398v-30.333h-6.721v-4.087h6.721V83.174h4.449v14.804h16.258v4.087h-16.258v29.88
			c0,6.629,3.906,8.99,9.264,8.99c2.271,0,4.178-0.453,6.812-1.635v4.178c-2.361,1.09-4.633,1.635-7.539,1.635
			C437.721,145.113,431.908,141.209,431.908,132.398z"/>
		<path fill="#FFFFFF" d="M464.059,79.814h5.539v6.085h-5.539V79.814z M464.604,97.978h4.449v46.319h-4.449V97.978z"/>
		<path fill="#FFFFFF" d="M474.594,97.978h5.176l17.529,41.323l17.709-41.323h4.996l-20.799,46.682h-3.814L474.594,97.978z"/>
		<path fill="#FFFFFF" d="M522.637,121.229v-0.182c0-13.442,9.445-24.159,21.979-24.159c12.986,0,21.252,10.535,21.252,24.249
			c0,0.818,0,1.09-0.092,1.816h-38.416c0.816,11.535,9.082,18.256,18.164,18.256c7.174,0,12.078-3.18,15.893-7.266l3.088,2.725
			c-4.723,5.086-10.262,8.719-19.162,8.719C533.172,145.387,522.637,135.668,522.637,121.229z M561.053,118.957
			c-0.635-9.354-5.994-17.982-16.619-17.982c-9.174,0-16.258,7.72-17.074,17.982H561.053z"/>
		<path fill="#1D99D6" d="M576.221,80.722h15.074l16.713,26.883l16.711-26.883h15.076v63.575h-13.896v-41.505l-17.891,27.156h-0.363
			l-17.711-26.883v41.233h-13.713V80.722z"/>
		<path fill="#1D99D6" d="M642.156,120.229v-0.182c0-13.986,11.262-25.338,26.428-25.338c15.076,0,26.248,11.171,26.248,25.157
			v0.182c0,13.986-11.262,25.34-26.43,25.34C653.326,145.387,642.156,134.215,642.156,120.229z M681.209,120.229v-0.182
			c0-7.174-5.178-13.441-12.807-13.441c-7.9,0-12.625,6.085-12.625,13.259v0.182c0,7.176,5.178,13.441,12.807,13.441
			C676.486,133.488,681.209,127.404,681.209,120.229z"/>
		<path fill="#1D99D6" d="M711.359,137.939v6.357h-13.805V77.998h13.805v24.612c3.361-4.541,7.992-7.901,15.168-7.901
			c11.352,0,22.16,8.9,22.16,25.157v0.182c0,16.258-10.627,25.158-22.16,25.158C719.17,145.205,714.629,141.844,711.359,137.939z
			 M734.883,120.047v-0.182c0-8.083-5.449-13.441-11.898-13.441c-6.447,0-11.807,5.358-11.807,13.441v0.182
			c0,8.084,5.359,13.441,11.807,13.441C729.434,133.488,734.883,128.221,734.883,120.047z"/>
	</g>
	<g>
		<path fill="#FFFFFF" d="M353.457,166.75h4.291c5.287,0,8.113,3.062,8.113,8.504c0,5.471-2.826,8.662-8.008,8.662h-4.396V166.75z
			 M357.591,182.137c4.029,0,6.02-2.538,6.02-6.883c0-4.316-1.99-6.725-6.02-6.725h-1.938v13.607H357.591z"/>
		<path fill="#FFFFFF" d="M374.106,170.885c3.246,0,5.078,2.328,5.078,5.967c0,0.444-0.027,0.863-0.078,1.177h-8.584
			c0.156,2.748,1.805,4.476,4.238,4.476c1.205,0,2.225-0.393,3.168-0.995l0.758,1.413c-1.1,0.707-2.459,1.309-4.188,1.309
			c-3.401,0-6.096-2.486-6.096-6.646C368.402,173.423,371.201,170.885,374.106,170.885z M377.299,176.615
			c0-2.59-1.151-4.029-3.141-4.029c-1.779,0-3.402,1.465-3.664,4.029H377.299z"/>
		<path fill="#FFFFFF" d="M381.984,181.038c1.098,0.89,2.225,1.518,3.742,1.518c1.674,0,2.512-0.89,2.512-1.989
			c0-1.309-1.518-1.884-2.904-2.407c-1.807-0.653-3.795-1.518-3.795-3.663c0-2.041,1.623-3.611,4.371-3.611
			c1.596,0,2.982,0.654,3.951,1.439l-1.021,1.36c-0.863-0.654-1.779-1.126-2.904-1.126c-1.596,0-2.33,0.864-2.33,1.832
			c0,1.178,1.389,1.648,2.826,2.199c1.832,0.68,3.873,1.438,3.873,3.846c0,2.068-1.648,3.795-4.656,3.795
			c-1.807,0-3.533-0.759-4.738-1.754L381.984,181.038z"/>
		<path fill="#FFFFFF" d="M392.898,167.195c0-0.838,0.654-1.388,1.492-1.388c0.836,0,1.49,0.55,1.49,1.388
			c0,0.811-0.654,1.387-1.49,1.387C393.553,168.582,392.898,168.006,392.898,167.195z M393.291,171.198h2.146v12.718h-2.146V171.198
			z"/>
		<path fill="#FFFFFF" d="M400.617,183.472v-0.104c-0.627-0.393-1.125-1.073-1.125-2.067c0-1.073,0.732-1.911,1.387-2.355v-0.104
			c-0.836-0.681-1.648-1.91-1.648-3.428c0-2.774,2.197-4.527,4.789-4.527c0.707,0,1.336,0.131,1.807,0.313h4.422v1.649h-2.617
			c0.602,0.575,1.047,1.543,1.047,2.616c0,2.722-2.066,4.423-4.658,4.423c-0.627,0-1.334-0.157-1.91-0.445
			c-0.445,0.393-0.811,0.812-0.811,1.518c0,0.812,0.523,1.387,2.25,1.387h2.461c2.957,0,4.447,0.916,4.447,3.036
			c0,2.355-2.486,4.396-6.438,4.396c-3.113,0-5.26-1.229-5.26-3.429C398.76,185.277,399.467,184.257,400.617,183.472z
			 M404.334,188.287c2.434,0,4.029-1.256,4.029-2.592c0-1.177-0.916-1.569-2.564-1.569h-2.197c-0.498,0-1.1-0.052-1.648-0.21
			c-0.916,0.654-1.309,1.414-1.309,2.146C400.645,187.424,402.031,188.287,404.334,188.287z M406.715,175.412
			c0-1.858-1.203-2.957-2.695-2.957c-1.49,0-2.695,1.099-2.695,2.957c0,1.857,1.23,3.035,2.695,3.035
			C405.486,178.447,406.715,177.27,406.715,175.412z"/>
		<path fill="#FFFFFF" d="M412.918,171.198h1.781l0.182,1.832h0.078c1.203-1.204,2.514-2.146,4.266-2.146
			c2.67,0,3.873,1.727,3.873,4.972v8.06h-2.145v-7.771c0-2.381-0.732-3.402-2.408-3.402c-1.309,0-2.197,0.681-3.48,1.963v9.211
			h-2.146V171.198z"/>
		<path fill="#FFFFFF" d="M432.129,167.195c0-0.838,0.654-1.388,1.492-1.388s1.492,0.55,1.492,1.388
			c0,0.811-0.654,1.387-1.492,1.387S432.129,168.006,432.129,167.195z M432.521,171.198h2.146v12.718h-2.146V171.198z"/>
		<path fill="#FFFFFF" d="M438.959,171.198h1.781l0.182,1.832H441c1.205-1.204,2.512-2.146,4.266-2.146
			c2.67,0,3.873,1.727,3.873,4.972v8.06h-2.145v-7.771c0-2.381-0.732-3.402-2.408-3.402c-1.309,0-2.197,0.681-3.48,1.963v9.211
			h-2.146V171.198z"/>
		<path fill="#FFFFFF" d="M458.928,172.951h-1.883v-1.622l1.988-0.131l0.262-3.559h1.807v3.559h3.428v1.753h-3.428v7.066
			c0,1.57,0.496,2.459,1.961,2.459c0.445,0,1.021-0.183,1.439-0.34l0.42,1.623c-0.707,0.235-1.57,0.471-2.355,0.471
			c-2.723,0-3.639-1.727-3.639-4.239V172.951z"/>
		<path fill="#FFFFFF" d="M467.408,165.284h2.146v5.077l-0.078,2.617c1.203-1.152,2.486-2.094,4.238-2.094
			c2.67,0,3.873,1.727,3.873,4.972v8.06h-2.145v-7.771c0-2.381-0.732-3.402-2.408-3.402c-1.309,0-2.197,0.681-3.48,1.963v9.211
			h-2.146V165.284z"/>
		<path fill="#FFFFFF" d="M486.408,170.885c3.246,0,5.078,2.328,5.078,5.967c0,0.444-0.027,0.863-0.078,1.177h-8.584
			c0.156,2.748,1.805,4.476,4.238,4.476c1.205,0,2.225-0.393,3.168-0.995l0.758,1.413c-1.1,0.707-2.459,1.309-4.188,1.309
			c-3.4,0-6.096-2.486-6.096-6.646C480.705,173.423,483.504,170.885,486.408,170.885z M489.602,176.615
			c0-2.59-1.15-4.029-3.141-4.029c-1.779,0-3.402,1.465-3.664,4.029H489.602z"/>
		<path fill="#FFFFFF" d="M500.045,166.75h9.918v1.832h-7.721v5.809h6.543v1.832h-6.543v7.693h-2.197V166.75z"/>
		<path fill="#FFFFFF" d="M512.189,171.198h1.779l0.184,2.304h0.078c0.863-1.598,2.172-2.617,3.611-2.617
			c0.549,0,0.941,0.078,1.361,0.262l-0.42,1.884c-0.418-0.131-0.705-0.21-1.229-0.21c-1.074,0-2.355,0.785-3.219,2.932v8.164h-2.146
			V171.198z"/>
		<path fill="#FFFFFF" d="M525.955,170.885c3.113,0,5.887,2.434,5.887,6.699c0,4.213-2.773,6.646-5.887,6.646
			c-3.115,0-5.889-2.434-5.889-6.646C520.066,173.318,522.84,170.885,525.955,170.885z M525.955,182.451
			c2.197,0,3.664-1.963,3.664-4.867c0-2.932-1.467-4.92-3.664-4.92c-2.172,0-3.664,1.988-3.664,4.92
			C522.291,180.488,523.783,182.451,525.955,182.451z"/>
		<path fill="#FFFFFF" d="M535.193,171.198h1.781l0.182,1.832h0.078c1.205-1.204,2.514-2.146,4.266-2.146
			c2.67,0,3.873,1.727,3.873,4.972v8.06h-2.145v-7.771c0-2.381-0.734-3.402-2.408-3.402c-1.309,0-2.197,0.681-3.48,1.963v9.211
			h-2.146V171.198z"/>
		<path fill="#FFFFFF" d="M549.877,172.951h-1.885v-1.622l1.99-0.131l0.262-3.559h1.805v3.559h3.428v1.753h-3.428v7.066
			c0,1.57,0.498,2.459,1.963,2.459c0.445,0,1.02-0.183,1.439-0.34l0.418,1.623c-0.707,0.235-1.57,0.471-2.355,0.471
			c-2.721,0-3.637-1.727-3.637-4.239V172.951z"/>
		<path fill="#FFFFFF" d="M559.848,180.934c0.838,0,1.545,0.68,1.545,1.674c0,0.943-0.707,1.623-1.545,1.623
			c-0.863,0-1.57-0.68-1.57-1.623C558.277,181.613,558.984,180.934,559.848,180.934z"/>
		<path fill="#FFFFFF" d="M570.656,166.75h4.293c5.285,0,8.111,3.062,8.111,8.504c0,5.471-2.826,8.662-8.008,8.662h-4.396V166.75z
			 M574.791,182.137c4.031,0,6.02-2.538,6.02-6.883c0-4.316-1.988-6.725-6.02-6.725h-1.936v13.607H574.791z"/>
		<path fill="#FFFFFF" d="M593.738,175.856c0-1.622-0.549-3.192-2.615-3.192c-1.492,0-2.801,0.68-3.795,1.361l-0.863-1.492
			c1.178-0.76,2.957-1.648,4.998-1.648c3.113,0,4.422,2.066,4.422,5.233v7.798h-1.779l-0.184-1.518h-0.053
			c-1.229,0.994-2.643,1.832-4.213,1.832c-2.145,0-3.742-1.334-3.742-3.611C585.914,177.846,588.322,176.459,593.738,175.856z
			 M590.258,182.504c1.23,0,2.252-0.603,3.48-1.701v-3.533c-4.264,0.523-5.703,1.57-5.703,3.193
			C588.035,181.901,589.002,182.504,590.258,182.504z"/>
		<path fill="#FFFFFF" d="M600.309,172.951h-1.883v-1.622l1.988-0.131l0.262-3.559h1.807v3.559h3.428v1.753h-3.428v7.066
			c0,1.57,0.496,2.459,1.961,2.459c0.445,0,1.021-0.183,1.439-0.34l0.42,1.623c-0.707,0.235-1.57,0.471-2.357,0.471
			c-2.721,0-3.637-1.727-3.637-4.239V172.951z"/>
		<path fill="#FFFFFF" d="M615.514,175.856c0-1.622-0.549-3.192-2.615-3.192c-1.492,0-2.801,0.68-3.795,1.361l-0.863-1.492
			c1.178-0.76,2.957-1.648,4.998-1.648c3.113,0,4.422,2.066,4.422,5.233v7.798h-1.779l-0.184-1.518h-0.053
			c-1.229,0.994-2.643,1.832-4.213,1.832c-2.145,0-3.742-1.334-3.742-3.611C607.689,177.846,610.098,176.459,615.514,175.856z
			 M612.033,182.504c1.23,0,2.252-0.603,3.48-1.701v-3.533c-4.264,0.523-5.703,1.57-5.703,3.193
			C609.811,181.901,610.777,182.504,612.033,182.504z"/>
		<path fill="#FFFFFF" d="M626.613,167.195c0-0.838,0.654-1.388,1.492-1.388c0.836,0,1.49,0.55,1.49,1.388
			c0,0.811-0.654,1.387-1.49,1.387C627.268,168.582,626.613,168.006,626.613,167.195z M627.006,171.198h2.146v12.718h-2.146V171.198
			z"/>
		<path fill="#FFFFFF" d="M633.443,171.198h1.779l0.184,1.832h0.078c1.203-1.204,2.512-2.146,4.266-2.146
			c2.67,0,3.873,1.727,3.873,4.972v8.06h-2.146v-7.771c0-2.381-0.732-3.402-2.406-3.402c-1.309,0-2.199,0.681-3.48,1.963v9.211
			h-2.146V171.198z"/>
		<path fill="#FFFFFF" d="M653.412,172.951h-1.885v-1.622l1.99-0.131l0.26-3.559h1.807v3.559h3.428v1.753h-3.428v7.066
			c0,1.57,0.498,2.459,1.963,2.459c0.445,0,1.02-0.183,1.439-0.34l0.418,1.623c-0.707,0.235-1.57,0.471-2.355,0.471
			c-2.721,0-3.637-1.727-3.637-4.239V172.951z"/>
		<path fill="#FFFFFF" d="M661.893,165.284h2.146v5.077l-0.08,2.617c1.203-1.152,2.486-2.094,4.24-2.094
			c2.67,0,3.873,1.727,3.873,4.972v8.06h-2.146v-7.771c0-2.381-0.732-3.402-2.406-3.402c-1.309,0-2.199,0.681-3.48,1.963v9.211
			h-2.146V165.284z"/>
		<path fill="#FFFFFF" d="M680.893,170.885c3.244,0,5.076,2.328,5.076,5.967c0,0.444-0.025,0.863-0.078,1.177h-8.584
			c0.158,2.748,1.807,4.476,4.24,4.476c1.203,0,2.225-0.393,3.166-0.995l0.76,1.413c-1.1,0.707-2.461,1.309-4.188,1.309
			c-3.402,0-6.098-2.486-6.098-6.646C675.188,173.423,677.988,170.885,680.893,170.885z M684.086,176.615
			c0-2.59-1.152-4.029-3.141-4.029c-1.779,0-3.402,1.465-3.664,4.029H684.086z"/>
		<path fill="#FFFFFF" d="M694.527,166.75h5.104c3.48,0,5.914,1.178,5.914,4.188c0,1.7-0.969,3.219-3.01,3.741v0.104
			c2.514,0.393,3.977,1.754,3.977,4.109c0,3.375-2.668,5.023-6.488,5.023h-5.496V166.75z M699.266,174.077
			c2.904,0,4.133-1.047,4.133-2.957c0-1.858-1.387-2.644-4.029-2.644h-2.643v5.601H699.266z M699.709,182.189
			c2.932,0,4.658-1.073,4.658-3.402c0-2.119-1.648-3.088-4.658-3.088h-2.982v6.49H699.709z"/>
		<path fill="#FFFFFF" d="M716.852,175.856c0-1.622-0.549-3.192-2.617-3.192c-1.492,0-2.799,0.68-3.795,1.361l-0.863-1.492
			c1.178-0.76,2.957-1.648,4.998-1.648c3.115,0,4.424,2.066,4.424,5.233v7.798h-1.779l-0.184-1.518h-0.053
			c-1.23,0.994-2.643,1.832-4.213,1.832c-2.146,0-3.742-1.334-3.742-3.611C709.027,177.846,711.436,176.459,716.852,175.856z
			 M713.371,182.504c1.23,0,2.25-0.603,3.48-1.701v-3.533c-4.266,0.523-5.705,1.57-5.705,3.193
			C711.146,181.901,712.115,182.504,713.371,182.504z"/>
		<path fill="#FFFFFF" d="M728.236,170.885c1.676,0,2.854,0.706,3.717,1.518l-1.074,1.387c-0.758-0.654-1.543-1.125-2.562-1.125
			c-2.305,0-3.979,1.988-3.979,4.92c0,2.904,1.596,4.867,3.926,4.867c1.203,0,2.225-0.602,2.982-1.282l0.969,1.413
			c-1.152,1.021-2.617,1.648-4.137,1.648c-3.373,0-5.965-2.434-5.965-6.646C722.113,173.318,724.967,170.885,728.236,170.885z"/>
		<path fill="#FFFFFF" d="M734.99,165.284h2.119v12.613h0.078l5.418-6.699h2.381l-4.266,5.103l4.842,7.615h-2.355l-3.717-6.123
			l-2.381,2.773v3.35h-2.119V165.284z"/>
		<path fill="#FFFFFF" d="M749.438,180.934c0.836,0,1.543,0.68,1.543,1.674c0,0.943-0.707,1.623-1.543,1.623
			c-0.865,0-1.57-0.68-1.57-1.623C747.867,181.613,748.572,180.934,749.438,180.934z"/>
	</g>
</g>
</svg>
