<?xml version="1.0" encoding="utf-8"?>
<!-- Generator: Adobe Illustrator 16.0.0, SVG Export Plug-In . SVG Version: 6.00 Build 0)  -->
<!DOCTYPE svg PUBLIC "-//W3C//DTD SVG 1.1//EN" "http://www.w3.org/Graphics/SVG/1.1/DTD/svg11.dtd">
<svg version="1.1" id="Layer_1" xmlns="http://www.w3.org/2000/svg" xmlns:xlink="http://www.w3.org/1999/xlink" x="0px" y="0px"
	 width="1100px" height="545px" viewBox="0 0 1100 545" enable-background="new 0 0 1100 545" xml:space="preserve">
<g>
	<g>
		<g opacity="0.54">
			
				<image overflow="visible" width="2728" height="578" xlink:href="C355E655B70C6B92.png"  transform="matrix(0.24 0 0 0.24 443.2783 412.0254)">
			</image>
		</g>
		<g>
			<g>
				<path fill="#FBB56B" d="M714.02,140.195c0,40.167-32.561,72.728-72.727,72.728c-40.168,0-72.729-32.561-72.729-72.728
					c0-40.166,32.561-72.728,72.729-72.728C681.459,67.467,714.02,100.029,714.02,140.195z M641.293,131.032
					c-5.293,0-9.582,4.29-9.582,9.582c0,5.291,4.289,9.581,9.582,9.581c5.291,0,9.58-4.29,9.58-9.581
					C650.873,135.322,646.584,131.032,641.293,131.032z"/>
				<path fill="#D8D9D8" d="M668.4,140.195c0,14.972-12.137,27.108-27.107,27.108c-14.973,0-27.109-12.137-27.109-27.108
					c0-14.971,12.137-27.107,27.109-27.107C656.264,113.087,668.4,125.224,668.4,140.195z M641.293,131.032
					c-5.293,0-9.582,4.29-9.582,9.582c0,5.291,4.289,9.581,9.582,9.581c5.291,0,9.58-4.29,9.58-9.581
					C650.873,135.322,646.584,131.032,641.293,131.032z"/>
				<path fill="#252B3B" d="M659.053,140.564c0,9.809-7.951,17.761-17.76,17.761c-9.811,0-17.762-7.952-17.762-17.761
					s7.951-17.761,17.762-17.761C651.102,122.803,659.053,130.755,659.053,140.564z M641.293,131.032
					c-5.293,0-9.582,4.29-9.582,9.582c0,5.291,4.289,9.581,9.582,9.581c5.291,0,9.58-4.29,9.58-9.581
					C650.873,135.322,646.584,131.032,641.293,131.032z"/>
			</g>
			<g>
				<rect x="565.004" y="380.925" fill="#D8DDE0" width="109.234" height="96.047"/>
				<rect x="565.004" y="380.925" fill="#FFFFFF" width="95.914" height="96.047"/>
				<g>
					<rect x="576.789" y="401.172" fill="#252B3B" width="72.91" height="6.145"/>
					<rect x="576.789" y="414.326" fill="#252B3B" width="72.91" height="6.145"/>
					<rect x="576.789" y="427.48" fill="#252B3B" width="72.91" height="6.145"/>
					<rect x="576.789" y="440.635" fill="#252B3B" width="72.91" height="6.145"/>
					<rect x="576.789" y="453.789" fill="#252B3B" width="48.373" height="6.145"/>
				</g>
				<path fill="none" stroke="#252B3B" stroke-width="4.2065" stroke-miterlimit="10" d="M591.793,388.092
					c-3.713-0.101-6.691-3.078-6.691-6.737c0-3.722,3.084-6.739,6.885-6.739c3.713,0,6.889,2.775,6.879,6.475"/>
				<path fill="none" stroke="#252B3B" stroke-width="4.2065" stroke-miterlimit="10" d="M614.221,388.092
					c-3.713-0.101-6.691-3.078-6.691-6.737c0-3.722,3.084-6.739,6.885-6.739c3.713,0,6.889,2.775,6.881,6.475"/>
				<path fill="none" stroke="#252B3B" stroke-width="4.2065" stroke-miterlimit="10" d="M636.193,388.092
					c-3.713-0.101-6.691-3.078-6.691-6.737c0-3.722,3.084-6.739,6.885-6.739c3.713,0,6.889,2.775,6.879,6.475"/>
			</g>
			<g>
				<rect x="735.834" y="107.691" fill="#FFFFFF" width="241.17" height="337.452"/>
				<g>
					<g>
						<polyline fill="#179EDA" points="766.555,122.048 782.418,137.912 766.555,153.775 						"/>
						<polyline fill="#201E33" points="766.555,153.775 750.691,137.912 766.555,122.048 						"/>
					</g>
					<rect x="750.691" y="166.115" fill="#201E33" width="192.195" height="14.956"/>
					<rect x="750.48" y="191.821" fill="#179EDA" width="192.406" height="7.478"/>
					<rect x="750.48" y="204.44" fill="#179EDA" width="113.771" height="7.479"/>
				</g>
			</g>
			<g>
				<rect x="566.174" y="235.542" fill="#79BA51" width="241.17" height="118.716"/>
				<polygon fill="#201E33" points="566.174,235.542 686.76,302.655 807.344,235.542 				"/>
			</g>
			<g>
				<rect x="699.193" y="380.872" fill="#201E33" width="107.867" height="71.042"/>
				<g>
					<polyline fill="#179EDA" points="753.127,400.529 768.99,416.393 753.127,432.256 					"/>
					<polyline fill="#FFFFFF" points="753.127,432.256 737.264,416.393 753.127,400.529 					"/>
				</g>
			</g>
			<g>
				<path fill="#231F20" d="M860.971,260.196c0,1.872-2.355,3.389-5.258,3.389h-13.555c-2.904,0-5.258-1.517-5.258-3.389l0,0
					c0-1.871,2.354-3.388,5.258-3.388h13.555C858.615,256.808,860.971,258.325,860.971,260.196L860.971,260.196z"/>
				<path fill="#231F20" d="M860.971,284.967c0,1.872-2.355,3.389-5.258,3.389h-13.555c-2.904,0-5.258-1.517-5.258-3.389l0,0
					c0-1.871,2.354-3.388,5.258-3.388h13.555C858.615,281.58,860.971,283.096,860.971,284.967L860.971,284.967z"/>
				<path fill="#231F20" d="M860.971,309.739c0,1.872-2.355,3.389-5.258,3.389h-13.555c-2.904,0-5.258-1.517-5.258-3.389l0,0
					c0-1.871,2.354-3.389,5.258-3.389h13.555C858.615,306.35,860.971,307.868,860.971,309.739L860.971,309.739z"/>
				<path fill="#231F20" d="M860.971,334.51c0,1.871-2.355,3.389-5.258,3.389h-13.555c-2.904,0-5.258-1.518-5.258-3.389l0,0
					c0-1.871,2.354-3.389,5.258-3.389h13.555C858.615,331.122,860.971,332.639,860.971,334.51L860.971,334.51z"/>
				<path fill="#231F20" d="M860.971,359.282c0,1.871-2.355,3.389-5.258,3.389h-13.555c-2.904,0-5.258-1.518-5.258-3.389l0,0
					c0-1.871,2.354-3.389,5.258-3.389h13.555C858.615,355.893,860.971,357.411,860.971,359.282L860.971,359.282z"/>
				<path fill="#231F20" d="M860.971,384.053c0,1.871-2.355,3.389-5.258,3.389h-13.555c-2.904,0-5.258-1.518-5.258-3.389l0,0
					c0-1.871,2.354-3.389,5.258-3.389h13.555C858.615,380.665,860.971,382.182,860.971,384.053L860.971,384.053z"/>
				<path fill="#231F20" d="M860.971,408.824c0,1.871-2.355,3.389-5.258,3.389h-13.555c-2.904,0-5.258-1.518-5.258-3.389l0,0
					c0-1.871,2.354-3.389,5.258-3.389h13.555C858.615,405.436,860.971,406.953,860.971,408.824L860.971,408.824z"/>
				<path fill="#F04953" d="M846.48,235.542v19.396h9.23c2.904,0,5.26,2.354,5.26,5.258c0,2.904-2.355,5.259-5.26,5.259h-9.23
					v14.255h9.23c2.904,0,5.26,2.354,5.26,5.258c0,2.904-2.355,5.259-5.26,5.259h-9.23v14.255h9.23c2.904,0,5.26,2.354,5.26,5.258
					c0,2.904-2.355,5.259-5.26,5.259h-9.23v14.255h9.23c2.904,0,5.26,2.354,5.26,5.258s-2.355,5.258-5.26,5.258h-9.23v14.256h9.23
					c2.904,0,5.26,2.354,5.26,5.258s-2.355,5.258-5.26,5.258h-9.23v14.256h9.23c2.904,0,5.26,2.354,5.26,5.258
					s-2.355,5.258-5.26,5.258h-9.23v14.255h9.23c2.904,0,5.26,2.354,5.26,5.258s-2.355,5.258-5.26,5.258h-9.23v14.256h9.23
					c2.904,0,5.26,2.354,5.26,5.258s-2.355,5.258-5.26,5.258h-9.23v12.619h154.939V235.542H846.48z"/>
				<path fill="#231F20" d="M860.971,433.596c0,1.871-2.355,3.389-5.258,3.389h-13.555c-2.904,0-5.258-1.518-5.258-3.389l0,0
					c0-1.871,2.354-3.389,5.258-3.389h13.555C858.615,430.207,860.971,431.725,860.971,433.596L860.971,433.596z"/>
			</g>
		</g>
	</g>
	<g>
		<g opacity="0.27">
			
				<image overflow="visible" width="1701" height="461" xlink:href="C355E655B70C6B96.png"  transform="matrix(0.24 0 0 0.24 55.6641 398.4219)">
			</image>
		</g>
		<g>
			<g id="camera_18_">
				<g>
					<circle fill-rule="evenodd" clip-rule="evenodd" fill="#A5A4A4" cx="148.866" cy="32.397" r="1.283"/>
				</g>
			</g>
			<g opacity="0.54">
				
					<image overflow="visible" width="1211" height="453" xlink:href="C355E655B70C6B91.png"  transform="matrix(0.24 0 0 0.24 2.001 133.6743)">
				</image>
			</g>
			<g id="device_18_">
				<g>
					<path fill-rule="evenodd" clip-rule="evenodd" fill="#E9EBEE" d="M245.292,142.096H52.71c0,0,0,2.052,0,4.582v16.038
						c0,2.53,2.052,4.582,4.583,4.582h183.423c2.531,0,4.583-2.052,4.583-4.582v-16.038
						C245.299,144.148,245.292,142.096,245.292,142.096z"/>
				</g>
			</g>
			<g id="stand_12_">
				<g>
					<path fill-rule="evenodd" clip-rule="evenodd" fill="#E9EBEE" d="M173.979,185.212c-1.604,0.092-2.888-17.779-2.888-17.779
						l-43.721-0.135c-1.421,18.599-2.702,17.918-2.702,17.918c-6.829,0.733-8.347,1.6-8.347,1.6c-0.55,0.87,3.301,0.733,3.301,0.733
						h1.42h2.613h6.92h47.895c4.584-0.092,3.713-0.642,3.713-0.642C183.191,186.541,173.979,185.212,173.979,185.212z"/>
				</g>
			</g>
			<g id="shadow_12_">
				<g>
					<polygon fill-rule="evenodd" clip-rule="evenodd" fill="#D8DBE1" points="171.098,167.298 127.371,167.298 127.188,171.016 
						171.371,171.016 					"/>
				</g>
			</g>
			<g id="display_12_">
				<g>
					<path fill-rule="evenodd" clip-rule="evenodd" fill="#373C47" d="M240.716,28.643H57.293c-2.531,0-4.583,2.051-4.583,4.582
						v111.712c0,2.531,0,4.582,0,4.582h192.582c0,0,0.007-2.051,0.007-4.582V33.225C245.299,30.694,243.247,28.643,240.716,28.643z"
						/>
				</g>
			</g>
			<g id="overlay_18_">
				<g>
					<rect x="60.776" y="36.341" fill-rule="evenodd" clip-rule="evenodd" fill="#FFFFFF" width="176.272" height="105.571"/>
				</g>
			</g>
			<g id="gloss_overlay__x2B__gloss_19_" enable-background="new    ">
				<defs>
					<path id="SVGID_1_" enable-background="new    " d="M240.716,28.643H57.293c-2.531,0-4.583,2.051-4.583,4.582v111.712
						c0,2.531,0,4.582,0,4.582h192.582c0,0,0.007-2.051,0.007-4.582V33.225C245.299,30.694,243.247,28.643,240.716,28.643z"/>
				</defs>
				<clipPath id="SVGID_2_">
					<use xlink:href="#SVGID_1_"  overflow="visible"/>
				</clipPath>
				<g clip-path="url(#SVGID_2_)">
					
						<image overflow="visible" width="1133" height="712" id="gloss_overlay__x2B__gloss_1_" xlink:href="C355E655B70C6B93.png"  transform="matrix(-0.1702 0 0 0.1702 245.3496 28.5864)">
					</image>
				</g>
			</g>
			<g id="apple_logo_6_">
				<g id="Shape_1_12_">
					<g>
						<path fill-rule="evenodd" clip-rule="evenodd" fill="#4C5463" d="M148.221,153.571c-0.68-0.787-1.488-0.758-1.488-0.758
							c-0.045,0.876,0.424,1.418,0.424,1.418c0.659,0.877,1.541,0.803,1.541,0.803C148.803,154.179,148.221,153.571,148.221,153.571
							z"/>
					</g>
				</g>
				<g id="Shape_2_12_">
					<g>
						<path fill-rule="evenodd" clip-rule="evenodd" fill="#4C5463" d="M152.592,157.291c-0.152-1.144-1.077-1.72-1.077-1.72
							c-0.678-0.511-1.485-0.406-1.485-0.406c-0.127-0.021-0.753,0.23-0.753,0.23c-0.373,0.152-0.649,0.2-0.649,0.2
							c-0.314-0.043-0.615-0.175-0.615-0.175c-0.158-0.077-0.69-0.227-0.69-0.227c-1.663-0.232-2.304,0.947-2.304,0.947
							c0.541,0.324,0.717,0.727,0.717,0.727c0.553,0.826,0.268,1.644,0.268,1.644c-0.201,1.012-1.215,1.439-1.215,1.439
							c0.162,0.619,0.783,1.549,0.783,1.549c0.183,0.343,0.771,0.832,0.771,0.832c0.609,0.398,1.271,0.034,1.271,0.034
							c0.581-0.312,1.083-0.256,1.083-0.256c0.359,0.005,0.923,0.269,0.923,0.269c0.48,0.191,0.846,0.068,0.846,0.068
							c0.486-0.057,1.136-1.094,1.136-1.094c0.717-1.091,0.896-1.982,0.896-1.982C152.824,158.253,152.592,157.291,152.592,157.291z
							"/>
					</g>
				</g>
			</g>
			<rect x="52.559" y="28.586" fill="none" width="192.792" height="159.1"/>
			<rect x="136.348" y="152.813" fill-rule="evenodd" clip-rule="evenodd" fill="#E9EBEE" width="25.2" height="9.705"/>
		</g>
		<rect x="60.776" y="36.341" fill="#F04953" width="176.679" height="14.863"/>
		<rect x="87.621" y="71.339" fill="#FBB56B" width="38.12" height="22.147"/>
		<rect x="87.621" y="57.533" fill="#183647" width="19.769" height="4.099"/>
		<rect x="113.733" y="57.533" fill="#183647" width="19.769" height="4.099"/>
		<rect x="139.846" y="57.533" fill="#183647" width="19.769" height="4.099"/>
		<rect x="165.958" y="57.533" fill="#183647" width="19.769" height="4.099"/>
		<rect x="192.07" y="57.533" fill="#183647" width="19.769" height="4.099"/>
		<rect x="132.765" y="71.339" fill="#FBB56B" width="38.12" height="22.147"/>
		<rect x="178.001" y="71.339" fill="#FBB56B" width="33.838" height="22.147"/>
		
			<line fill="none" stroke="#231F20" stroke-width="1.8818" stroke-miterlimit="10" x1="87.621" y1="98.664" x2="125.741" y2="98.664"/>
		
			<line fill="none" stroke="#231F20" stroke-width="1.8818" stroke-miterlimit="10" x1="87.621" y1="103.841" x2="125.741" y2="103.841"/>
		
			<line fill="none" stroke="#231F20" stroke-width="1.8818" stroke-miterlimit="10" x1="87.621" y1="109.019" x2="125.741" y2="109.019"/>
		
			<line fill="none" stroke="#231F20" stroke-width="1.8818" stroke-miterlimit="10" x1="87.621" y1="114.196" x2="125.741" y2="114.196"/>
		
			<line fill="none" stroke="#231F20" stroke-width="1.8818" stroke-miterlimit="10" x1="87.621" y1="119.374" x2="125.741" y2="119.374"/>
		
			<line fill="none" stroke="#231F20" stroke-width="1.8818" stroke-miterlimit="10" x1="133.502" y1="98.664" x2="171.622" y2="98.664"/>
		
			<line fill="none" stroke="#231F20" stroke-width="1.8818" stroke-miterlimit="10" x1="133.502" y1="103.841" x2="171.622" y2="103.841"/>
		
			<line fill="none" stroke="#231F20" stroke-width="1.8818" stroke-miterlimit="10" x1="133.502" y1="109.019" x2="171.622" y2="109.019"/>
		
			<line fill="none" stroke="#231F20" stroke-width="1.8818" stroke-miterlimit="10" x1="133.502" y1="114.196" x2="171.622" y2="114.196"/>
		
			<line fill="none" stroke="#231F20" stroke-width="1.8818" stroke-miterlimit="10" x1="133.502" y1="119.374" x2="171.622" y2="119.374"/>
		
			<line fill="none" stroke="#231F20" stroke-width="1.8818" stroke-miterlimit="10" x1="87.621" y1="129.009" x2="211.839" y2="129.009"/>
		
			<line fill="none" stroke="#231F20" stroke-width="1.7364" stroke-miterlimit="10" x1="179.383" y1="98.664" x2="211.839" y2="98.664"/>
		
			<line fill="none" stroke="#231F20" stroke-width="1.7364" stroke-miterlimit="10" x1="179.383" y1="103.841" x2="211.839" y2="103.841"/>
		
			<line fill="none" stroke="#231F20" stroke-width="1.7364" stroke-miterlimit="10" x1="179.383" y1="109.019" x2="211.839" y2="109.019"/>
		
			<line fill="none" stroke="#231F20" stroke-width="1.7364" stroke-miterlimit="10" x1="179.383" y1="114.196" x2="211.839" y2="114.196"/>
		
			<line fill="none" stroke="#231F20" stroke-width="1.7364" stroke-miterlimit="10" x1="179.383" y1="119.374" x2="211.839" y2="119.374"/>
		<rect x="60.776" y="137.207" fill="#F04953" width="176.679" height="4.89"/>
		<g>
			
				<circle fill="none" stroke="#FFFFFF" stroke-width="1.7296" stroke-miterlimit="10" stroke-dasharray="1.728,3.4559" cx="394.343" cy="51.205" r="50.34"/>
		</g>
		<g>
			
				<circle fill="none" stroke="#FFFFFF" stroke-width="1.7296" stroke-miterlimit="10" stroke-dasharray="1.7263,3.4527" cx="125.904" cy="300.063" r="99.731"/>
		</g>
		<g>
			
				<circle fill="none" stroke="#FFFFFF" stroke-width="1.7296" stroke-miterlimit="10" stroke-dasharray="1.7373,3.4747" cx="467.716" cy="352.336" r="52.273"/>
		</g>
		<g>
			<rect x="94.245" y="218.767" fill="#FBB56B" width="326.721" height="32.911"/>
			<rect x="94.245" y="251.678" fill="#E9ECF0" width="326.721" height="201.25"/>
			<polyline fill="none" stroke="#808081" stroke-width="3.8212" stroke-miterlimit="10" points="386.7,320.459 401.985,334.471 
				386.7,350.824 			"/>
			<polyline fill="none" stroke="#808081" stroke-width="3.8212" stroke-miterlimit="10" points="125.904,350.824 110.619,336.813 
				125.904,320.459 			"/>
			<g>
				<rect x="141.947" y="287.342" fill="#9BD9F6" width="231.317" height="95.53"/>
				<rect x="141.947" y="400.863" fill="#FBB56B" width="70.986" height="31.047"/>
				<rect x="141.947" y="265.689" fill="#183647" width="36.812" height="9.075"/>
				<rect x="190.573" y="265.689" fill="#183647" width="36.812" height="9.075"/>
				<rect x="239.199" y="265.689" fill="#183647" width="36.812" height="9.075"/>
				<rect x="287.825" y="265.689" fill="#183647" width="36.813" height="9.075"/>
				<rect x="336.451" y="265.689" fill="#183647" width="36.813" height="9.075"/>
				<rect x="226.014" y="400.863" fill="#FBB56B" width="70.986" height="31.047"/>
				<rect x="310.251" y="400.863" fill="#FBB56B" width="63.014" height="31.047"/>
			</g>
		</g>
		<rect x="210.621" y="202.958" opacity="0.27" fill="#434343" width="265.132" height="181.236"/>
		<g>
			<rect x="224.4" y="182.719" fill="#F04953" width="260" height="26.19"/>
			<rect x="224.4" y="208.91" fill="#E9ECF0" width="260" height="160.151"/>
			<rect x="262.36" y="237.291" fill="#9BD9F6" width="56.491" height="77.035"/>
			<rect x="262.36" y="327.629" fill="#F04953" width="56.491" height="24.707"/>
			<rect x="262.36" y="220.059" fill="#183647" width="29.296" height="7.223"/>
			<rect x="301.057" y="220.059" fill="#183647" width="29.295" height="7.223"/>
			<rect x="339.753" y="220.059" fill="#183647" width="29.295" height="7.223"/>
			<rect x="378.449" y="220.059" fill="#183647" width="29.295" height="7.223"/>
			<rect x="417.146" y="220.059" fill="#183647" width="29.295" height="7.223"/>
			<rect x="329.26" y="327.629" fill="#F04953" width="56.49" height="24.707"/>
			<rect x="396.295" y="327.629" fill="#F04953" width="50.146" height="24.707"/>
			
				<line fill="none" stroke="#231F20" stroke-width="3.0408" stroke-miterlimit="10" x1="329.26" y1="244.386" x2="446.44" y2="244.386"/>
			
				<line fill="none" stroke="#231F20" stroke-width="3.0408" stroke-miterlimit="10" x1="329.26" y1="253.508" x2="446.44" y2="253.508"/>
			
				<line fill="none" stroke="#231F20" stroke-width="3.0408" stroke-miterlimit="10" x1="329.26" y1="262.631" x2="446.44" y2="262.631"/>
			
				<line fill="none" stroke="#231F20" stroke-width="3.0408" stroke-miterlimit="10" x1="329.26" y1="271.753" x2="446.44" y2="271.753"/>
			
				<line fill="none" stroke="#231F20" stroke-width="3.0408" stroke-miterlimit="10" x1="329.26" y1="280.876" x2="446.44" y2="280.876"/>
		</g>
		<rect x="256.682" y="77.016" opacity="0.27" fill="#434343" width="265.132" height="181.236"/>
		<g>
			<rect x="272.29" y="54.863" fill="#79BA51" width="263.618" height="26.555"/>
			<rect x="272.29" y="81.417" fill="#E9ECF0" width="263.618" height="162.38"/>
			<rect x="310.778" y="117.388" fill="#9BD9F6" width="57.276" height="39.567"/>
			<rect x="310.778" y="92.723" fill="#183647" width="29.703" height="7.322"/>
			<rect x="350.014" y="92.723" fill="#183647" width="29.702" height="7.322"/>
			<rect x="389.247" y="92.723" fill="#183647" width="29.703" height="7.322"/>
			<rect x="428.482" y="92.723" fill="#183647" width="29.702" height="7.322"/>
			<rect x="467.717" y="92.723" fill="#183647" width="29.702" height="7.322"/>
			<rect x="378.608" y="117.388" fill="#9BD9F6" width="57.276" height="39.567"/>
			<rect x="446.576" y="117.388" fill="#9BD9F6" width="50.843" height="39.567"/>
			
				<line fill="none" stroke="#231F20" stroke-width="3.0832" stroke-miterlimit="10" x1="310.778" y1="166.205" x2="368.055" y2="166.205"/>
			
				<line fill="none" stroke="#231F20" stroke-width="3.0832" stroke-miterlimit="10" x1="310.778" y1="175.455" x2="368.055" y2="175.455"/>
			
				<line fill="none" stroke="#231F20" stroke-width="3.0832" stroke-miterlimit="10" x1="310.778" y1="184.704" x2="368.055" y2="184.704"/>
			
				<line fill="none" stroke="#231F20" stroke-width="3.0832" stroke-miterlimit="10" x1="310.778" y1="193.954" x2="368.055" y2="193.954"/>
			
				<line fill="none" stroke="#231F20" stroke-width="3.0832" stroke-miterlimit="10" x1="310.778" y1="203.203" x2="368.055" y2="203.203"/>
			
				<line fill="none" stroke="#231F20" stroke-width="3.0832" stroke-miterlimit="10" x1="379.716" y1="166.205" x2="436.992" y2="166.205"/>
			
				<line fill="none" stroke="#231F20" stroke-width="3.0832" stroke-miterlimit="10" x1="379.716" y1="175.455" x2="436.992" y2="175.455"/>
			
				<line fill="none" stroke="#231F20" stroke-width="3.0832" stroke-miterlimit="10" x1="379.716" y1="184.704" x2="436.992" y2="184.704"/>
			
				<line fill="none" stroke="#231F20" stroke-width="3.0832" stroke-miterlimit="10" x1="379.716" y1="193.954" x2="436.992" y2="193.954"/>
			
				<line fill="none" stroke="#231F20" stroke-width="3.0832" stroke-miterlimit="10" x1="379.716" y1="203.203" x2="436.992" y2="203.203"/>
			
				<line fill="none" stroke="#231F20" stroke-width="3.0832" stroke-miterlimit="10" x1="310.778" y1="220.417" x2="497.419" y2="220.417"/>
			
				<line fill="none" stroke="#231F20" stroke-width="2.8449" stroke-miterlimit="10" x1="448.653" y1="166.205" x2="497.419" y2="166.205"/>
			
				<line fill="none" stroke="#231F20" stroke-width="2.8449" stroke-miterlimit="10" x1="448.653" y1="175.455" x2="497.419" y2="175.455"/>
			
				<line fill="none" stroke="#231F20" stroke-width="2.8449" stroke-miterlimit="10" x1="448.653" y1="184.704" x2="497.419" y2="184.704"/>
			
				<line fill="none" stroke="#231F20" stroke-width="2.8449" stroke-miterlimit="10" x1="448.653" y1="193.954" x2="497.419" y2="193.954"/>
			
				<line fill="none" stroke="#231F20" stroke-width="2.8449" stroke-miterlimit="10" x1="448.653" y1="203.203" x2="497.419" y2="203.203"/>
			<rect x="272.29" y="235.062" fill="#79BA51" width="263.618" height="8.735"/>
		</g>
	</g>
</g>
</svg>
