<?xml version="1.0" encoding="utf-8"?>
<!-- Generator: Adobe Illustrator 16.0.0, SVG Export Plug-In . SVG Version: 6.00 Build 0)  -->
<!DOCTYPE svg PUBLIC "-//W3C//DTD SVG 1.1//EN" "http://www.w3.org/Graphics/SVG/1.1/DTD/svg11.dtd">
<svg version="1.1" id="Layer_1" xmlns="http://www.w3.org/2000/svg" xmlns:xlink="http://www.w3.org/1999/xlink" x="0px" y="0px"
	 width="80px" height="80px" viewBox="0 0 80 80" enable-background="new 0 0 80 80" xml:space="preserve">
<path fill="#FFFFFF" d="M40,0.869C18.387,0.869,0.869,18.391,0.869,40c0,21.614,17.518,39.131,39.131,39.131
	c21.609,0,39.131-17.517,39.131-39.131C79.131,18.391,61.609,0.869,40,0.869z M19.406,25.535c0.092-0.025,0.164-0.069,0.236-0.069
	h40.695c0.139,0,0.279,0.069,0.424,0.093L40.01,43.877L19.406,25.535z M63.236,51.634c0,0.495-0.141,0.943-0.377,1.367
	L48.408,40.342l14.639-12.943c0.117,0.304,0.189,0.637,0.189,0.988V51.634z M31.617,40.292L17.023,52.814
	c-0.164-0.355-0.26-0.757-0.26-1.181V28.387c0-0.4,0.072-0.777,0.213-1.131L31.617,40.292z M60.217,54.535H19.643
	c-0.023,0-0.098-0.049-0.145-0.049l14.312-12.234l6.178,5.515l6.201-5.492L60.217,54.535z"/>
</svg>
