<?xml version="1.0" encoding="utf-8"?>
<!-- Generator: Adobe Illustrator 16.0.0, SVG Export Plug-In . SVG Version: 6.00 Build 0)  -->
<!DOCTYPE svg PUBLIC "-//W3C//DTD SVG 1.1//EN" "http://www.w3.org/Graphics/SVG/1.1/DTD/svg11.dtd">
<svg version="1.1" id="Layer_1" xmlns="http://www.w3.org/2000/svg" xmlns:xlink="http://www.w3.org/1999/xlink" x="0px" y="0px"
	 width="80px" height="80px" viewBox="0 0 80 80" enable-background="new 0 0 80 80" xml:space="preserve">
<g>
	<path fill="#FFFFFF" d="M42.346,37.125v-0.082c-0.016,0.029-0.037,0.057-0.055,0.082H42.346z"/>
	<path fill="#FFFFFF" d="M40,0.869C18.387,0.869,0.869,18.391,0.869,40c0,21.614,17.518,39.131,39.131,39.131
		c21.609,0,39.131-17.517,39.131-39.131C79.131,18.391,61.609,0.869,40,0.869z M29.318,58.701h-8.391v-25.23h8.391V58.701z
		 M25.123,30.021h-0.055c-2.814,0-4.635-1.939-4.635-4.361c0-2.475,1.879-4.361,4.744-4.361c2.871,0,4.639,1.887,4.691,4.361
		C29.869,28.082,28.049,30.021,25.123,30.021z M59.564,58.701h-8.387v-13.5c0-3.391-1.213-5.707-4.252-5.707
		c-2.314,0-3.697,1.565-4.303,3.072c-0.223,0.539-0.277,1.283-0.277,2.043v14.092h-8.387c0,0,0.107-22.867,0-25.23h8.387v3.572
		c1.117-1.725,3.109-4.165,7.561-4.165c5.518,0,9.658,3.601,9.658,11.354V58.701z"/>
</g>
</svg>
