<svg xmlns="http://www.w3.org/2000/svg" viewBox="0 0 80 40" enable-background="new 0 0 80 40"><g fill="#010101"><path d="m73.8 0h-27.6c-3.4 0-6.2 2.8-6.2 6.2v27.5c0 3.5 2.8 6.2 6.2 6.2h27.5c3.5 0 6.2-2.8 6.2-6.2v-27.5c.1-3.4-2.7-6.2-6.1-6.2m-19.3 29.6h-4.3v-12.9h4.3v12.9m-2.1-14.7c-1.5 0-2.4-1-2.4-2.2 0-1.3 1-2.2 2.4-2.2 1.5 0 2.4 1 2.4 2.2 0 1.2-.9 2.2-2.4 2.2m17.6 14.7h-4.3v-6.9c0-1.7-.6-2.9-2.2-2.9-1.2 0-1.9.8-2.2 1.6-.1.3-.1.7-.1 1v7.2h-4.3c0 0 .1-11.7 0-12.9h4.3v1.8c.6-.9 1.6-2.1 3.9-2.1 2.8 0 4.9 1.8 4.9 5.8v7.4"/><path d="m33.8 0h-27.6c-3.4 0-6.2 2.8-6.2 6.3v27.5c0 3.4 2.8 6.2 6.2 6.2h27.5c3.5 0 6.2-2.8 6.2-6.2v-27.5c.1-3.5-2.7-6.3-6.1-6.3m-26.7 11c.1 0 .1 0 .1 0h25.4c.1 0 .2 0 .3.1l-12.9 11.3-12.9-11.4m27.4 16.3c0 .3-.1.6-.2.9l-9-7.9 9.2-8.1c.1.2.1.4.1.6v14.5zm-19.7-7.1l-9.2 7.8c-.1-.2-.2-.5-.2-.7v-14.6c0-.3 0-.5.1-.7l9.3 8.2m17.8 8.9h-25.3c0 0-.1 0-.1 0l8.9-7.6 3.9 3.4 3.9-3.4 8.7 7.6"/></g></svg>