<?xml version="1.0" encoding="utf-8"?>
<!-- Generator: Adobe Illustrator 16.0.0, SVG Export Plug-In . SVG Version: 6.00 Build 0)  -->
<!DOCTYPE svg PUBLIC "-//W3C//DTD SVG 1.1//EN" "http://www.w3.org/Graphics/SVG/1.1/DTD/svg11.dtd">
<svg version="1.1" id="Layer_1" xmlns="http://www.w3.org/2000/svg" xmlns:xlink="http://www.w3.org/1999/xlink" x="0px" y="0px"
	 width="1110px" height="160px" viewBox="0 0 1110 160" enable-background="new 0 0 1110 160" xml:space="preserve">
<g>
	<g>
		<g>
			<line fill="none" stroke="#FFFFFF" stroke-width="3.3561" stroke-miterlimit="10" x1="213.95" y1="80" x2="218.984" y2="80"/>
			
				<line fill="none" stroke="#FFFFFF" stroke-width="3.3561" stroke-miterlimit="10" stroke-dasharray="10.0753,10.0753" x1="229.059" y1="80" x2="465.828" y2="80"/>
			<line fill="none" stroke="#FFFFFF" stroke-width="3.3561" stroke-miterlimit="10" x1="470.865" y1="80" x2="475.899" y2="80"/>
		</g>
	</g>
	<g>
		<g>
			<line fill="none" stroke="#FFFFFF" stroke-width="3.3561" stroke-miterlimit="10" x1="649.512" y1="80" x2="654.546" y2="80"/>
			
				<line fill="none" stroke="#FFFFFF" stroke-width="3.3561" stroke-miterlimit="10" stroke-dasharray="10.2813,10.2813" x1="664.827" y1="80" x2="885.876" y2="80"/>
			<line fill="none" stroke="#FFFFFF" stroke-width="3.3561" stroke-miterlimit="10" x1="891.017" y1="80" x2="896.051" y2="80"/>
		</g>
	</g>
	<g>
		<circle fill="none" stroke="#FFFFFF" stroke-width="3.3561" stroke-miterlimit="10" cx="135.641" cy="80" r="78.308"/>
		<g>
			<g opacity="0.1">
				<rect x="130.172" y="94.385" fill="#010101" width="21.026" height="19.152"/>
				<path fill="#010101" d="M159.907,81.078c0-10.587-8.583-19.169-19.17-19.169s-19.17,8.582-19.17,19.169
					c0,3.583,1,6.924,2.712,9.793h-0.008c9.238,16.108,5.792,21.142,5.792,21.142v1.525h22c-3.394-14.351,4.597-22.664,5.139-22.667
					h-0.006C158.907,88.001,159.907,84.661,159.907,81.078z"/>
				<rect x="128.351" y="116.036" fill="#010101" width="24.773" height="5.413"/>
				<rect x="133.347" y="123.947" fill="#010101" width="14.781" height="5.413"/>
				<rect x="138.159" y="40.049" fill="#010101" width="4.374" height="14.573"/>
				<rect x="167.409" y="79.499" fill="#010101" width="14.572" height="4.375"/>
				<rect x="98.71" y="79.499" fill="#010101" width="14.573" height="4.375"/>
				
					<rect x="162.447" y="50.11" transform="matrix(0.707 0.7072 -0.7072 0.707 88.83 -99.6147)" fill="#010101" width="4.373" height="14.572"/>
				
					<rect x="113.87" y="98.689" transform="matrix(0.707 0.7072 -0.7072 0.707 108.9527 -51.0266)" fill="#010101" width="4.374" height="14.571"/>
				
					<rect x="162.447" y="98.689" transform="matrix(-0.7071 0.7072 -0.7072 -0.7071 355.9794 64.4808)" fill="#010101" width="4.373" height="14.572"/>
				
					<rect x="113.871" y="50.109" transform="matrix(-0.7071 0.7072 -0.7072 -0.7071 238.705 15.9061)" fill="#010101" width="4.373" height="14.573"/>
			</g>
			<g>
				<g>
					<g>
						<rect x="125.468" y="89.681" fill="#D9D8D8" width="21.026" height="19.152"/>
						<path fill="#FBB56B" d="M155.203,76.374c0-10.587-8.583-19.169-19.17-19.169s-19.17,8.582-19.17,19.169
							c0,3.583,1,6.924,2.712,9.793h-0.008c9.238,16.108,5.792,21.142,5.792,21.142v1.525h22
							c-3.394-14.351,4.597-22.664,5.139-22.667h-0.006C154.203,83.297,155.203,79.957,155.203,76.374z"/>
						<rect x="123.646" y="111.332" fill="#D9D8D8" width="24.773" height="5.413"/>
						<rect x="128.643" y="119.243" fill="#D9D8D8" width="14.781" height="5.413"/>
					</g>
					<rect x="133.455" y="35.345" fill="#FBB56B" width="4.374" height="14.573"/>
					<g>
						<rect x="162.705" y="74.794" fill="#FBB56B" width="14.572" height="4.375"/>
						<rect x="94.006" y="74.794" fill="#FBB56B" width="14.573" height="4.375"/>
					</g>
					<g>
						
							<rect x="157.743" y="45.406" transform="matrix(0.707 0.7072 -0.7072 0.707 84.1249 -97.6662)" fill="#FBB56B" width="4.373" height="14.572"/>
						
							<rect x="109.166" y="93.985" transform="matrix(0.707 0.7072 -0.7072 0.707 104.2475 -49.0781)" fill="#FBB56B" width="4.374" height="14.571"/>
					</g>
					<g>
						
							<rect x="157.743" y="93.984" transform="matrix(-0.7071 0.7072 -0.7072 -0.7071 344.6227 59.7772)" fill="#FBB56B" width="4.373" height="14.572"/>
						
							<rect x="109.167" y="45.405" transform="matrix(-0.7071 0.7072 -0.7072 -0.7071 227.3483 11.2025)" fill="#FBB56B" width="4.373" height="14.573"/>
					</g>
				</g>
			</g>
		</g>
	</g>
	<g>
		<circle fill="none" stroke="#FFFFFF" stroke-width="3.3561" stroke-miterlimit="10" cx="554.208" cy="80" r="78.308"/>
		<g>
			<g opacity="0.1">
				<path fill="none" stroke="#010101" stroke-width="2.914" stroke-linecap="round" stroke-miterlimit="10" d="M508.309,37.161
					c0,0,4.987,20.355,22.095,9.24c22.837-14.836,33.824-10.116,33.824,9.251"/>
				<path fill="#010101" d="M587.142,110.086c0,11.226-9.102,20.327-20.328,20.327h-6.536c-11.226,0-20.326-9.101-20.326-20.327
					V65.359c0-11.227,9.1-20.327,20.326-20.327h6.536c11.227,0,20.328,9.101,20.328,20.327V110.086z"/>
				<circle fill="#010101" cx="564.229" cy="77.203" r="4.638"/>
			</g>
			<g>
				<g>
					<path fill="none" stroke="#FFFFFF" stroke-width="2.914" stroke-linecap="round" stroke-miterlimit="10" d="M503.605,32.457
						c0,0,4.987,20.355,22.095,9.24c22.837-14.836,33.824-10.116,33.824,9.251"/>
					<path fill="#FFFFFF" d="M582.438,105.382c0,11.226-9.102,20.327-20.328,20.327h-6.536c-11.226,0-20.326-9.101-20.326-20.327
						V60.655c0-11.227,9.1-20.327,20.326-20.327h6.536c11.227,0,20.328,9.101,20.328,20.327V105.382z"/>
					<circle fill="#30302F" cx="559.524" cy="72.499" r="4.638"/>
				</g>
			</g>
		</g>
	</g>
	<g>
		<circle fill="none" stroke="#FFFFFF" stroke-width="3.3561" stroke-miterlimit="10" cx="974.359" cy="80" r="78.309"/>
		<g>
			<g opacity="0.1">
				<path fill="#010101" d="M1018.14,108.55c0,1.405-1.141,2.544-2.545,2.544h-73.062c-1.406,0-2.543-1.139-2.543-2.544V54.821
					c0-1.406,1.137-2.544,2.543-2.544h73.062c1.404,0,2.545,1.138,2.545,2.544V108.55z"/>
				<path fill="#010101" d="M939.989,61.966v-7.146c0-1.406,1.137-2.544,2.543-2.544h73.062c1.404,0,2.545,1.138,2.545,2.544v7.146
					H939.989z"/>
				<circle fill="#010101" cx="949.099" cy="57.122" r="2.793"/>
				<circle fill="#010101" cx="958.872" cy="57.122" r="2.793"/>
				<circle fill="#010101" cx="968.646" cy="57.122" r="2.793"/>
				<rect x="945.136" y="67.516" fill="#010101" width="15.27" height="4.599"/>
				<rect x="962.419" y="67.516" fill="#010101" width="30.543" height="4.599"/>
				<rect x="945.136" y="76.371" fill="#010101" width="30.539" height="4.598"/>
				<rect x="977.69" y="76.371" fill="#010101" width="30.541" height="4.598"/>
				<rect x="945.136" y="85.592" fill="#010101" width="30.539" height="4.599"/>
				<rect x="977.69" y="85.592" fill="#010101" width="15.271" height="4.599"/>
				<rect x="995.077" y="85.592" fill="#010101" width="13.154" height="4.599"/>
				<rect x="945.136" y="95.525" fill="#010101" width="30.539" height="4.599"/>
				<rect x="977.69" y="95.525" fill="#010101" width="15.271" height="4.599"/>
				<rect x="995.077" y="95.525" fill="#010101" width="13.154" height="4.599"/>
			</g>
			<g>
				<g>
					<path fill="#222D41" d="M1013.436,103.846c0,1.405-1.141,2.544-2.545,2.544h-73.062c-1.406,0-2.543-1.139-2.543-2.544V50.117
						c0-1.406,1.137-2.544,2.543-2.544h73.062c1.404,0,2.545,1.138,2.545,2.544V103.846z"/>
					<path fill="#CBCBCB" d="M935.285,57.262v-7.146c0-1.406,1.137-2.544,2.543-2.544h73.062c1.404,0,2.545,1.138,2.545,2.544v7.146
						H935.285z"/>
					<circle fill="#F04953" cx="944.395" cy="52.418" r="2.793"/>
					<circle fill="#FBB56B" cx="954.168" cy="52.418" r="2.793"/>
					<circle fill="#79BA51" cx="963.941" cy="52.418" r="2.793"/>
					<rect x="940.432" y="62.812" fill="#EF5359" width="15.27" height="4.599"/>
					<rect x="957.715" y="62.812" fill="#67CDEF" width="30.543" height="4.599"/>
					<rect x="940.432" y="71.667" fill="#656975" width="30.539" height="4.598"/>
					<rect x="972.986" y="71.667" fill="#656975" width="30.541" height="4.598"/>
					<rect x="940.432" y="80.888" fill="#656975" width="30.539" height="4.599"/>
					<rect x="972.986" y="80.888" fill="#656975" width="15.271" height="4.599"/>
					<rect x="990.373" y="80.888" fill="#CBCBCB" width="13.154" height="4.599"/>
					<rect x="940.432" y="90.821" fill="#CBCBCB" width="30.539" height="4.599"/>
					<rect x="972.986" y="90.821" fill="#67CDEF" width="15.271" height="4.599"/>
					<rect x="990.373" y="90.821" fill="#EF5359" width="13.154" height="4.599"/>
				</g>
			</g>
		</g>
	</g>
</g>
</svg>
